<?xml version='1.0' encoding='UTF-8' standalone='no'?>
<!-- Generator: Adobe Illustrator 15.1.0, SVG Export Plug-In . SVG Version: 6.00 Build 0)  -->
<svg xmlns="http://www.w3.org/2000/svg" xml:space="preserve" x="0px" height="259.75003" viewBox="0 0 169.75008 259.75002" y="0px" version="1.1" id="Ebene_1"  xmlns:xml="http://www.w3.org/XML/1998/namespace" width="169.75009" gorn="0" enable-background="new 0 0 66.773 20.586">
    <desc >
        <referenceFile >circuitbreaker_breadboard.svg</referenceFile>
    </desc>
    <defs id="defs42374" />
    <g  transform="translate(49.024,116.5473)">
        <g >
            <g id="breadboard"  gorn="0.2.0.0">
                <path style="fill:#2c2b2c;fill-opacity:1" d="m 103.496,-116.5473 h -135.28 a 17.29,17.29 0 0 0 -17.24,17.24 v 225.28 a 17.28,17.28 0 0 0 17.24,17.23 h 135.28 a 17.28,17.28 0 0 0 17.23,-17.23 v -225.28 a 17.28,17.28 0 0 0 -17.23,-17.24 z m -111.36,44.44 a 13.4,13.4 0 1 1 13.4,-13.39 13.39,13.39 0 0 1 -13.4,13.39 z m 85.2,197.67 a 13.4,13.4 0 1 1 13.4,-13.4 13.39,13.39 0 0 1 -13.4,13.4 z" id="path6383"  class="cls-30" gorn="0.2.0.0.0"/>
                <rect height="71.178711" x="51.463589" y="-108.87116" style="stroke-linecap:round;stop-color:#000000" id="rect43965"  width="50.941628" fill="#323232" gorn="0.2.0.0.1" rx="23.138308" stroke-width="1.33333" fill-opacity="1"/>
                <rect x="29.186049" height="259.75" y="-116.54727" style="fill:#383739" id="rect6385"  width="10" class="cls-51" gorn="0.2.0.0.2"/>
                <rect height="71.178711" x="-33.671734" y="64.888641" style="stroke-linecap:round;stop-color:#000000" id="rect44071"  width="50.941628" fill="#323232" gorn="0.2.0.0.3" rx="23.138308" stroke-width="1.33333" fill-opacity="1"/>
                <circle r="15.493491" cx="-7.8639998" style="fill:#846c30" cy="112.16275" id="circle44265"  class="cls-54" gorn="0.2.0.0.4"/>
                <rect x="-49.023911" height="142.50999" y="-57.927338" style="fill:#383739" id="rect6387"  width="169.75" class="cls-51" gorn="0.2.0.0.5" rx="10.878101"/>
                <rect x="-49.023911" height="47.27" y="-13.86728" style="fill:#414142" id="rect6389"  width="169.75" class="cls-52" gorn="0.2.0.0.6" rx="21.044817"/>
                <rect x="-43.023911" height="39.27" y="-9.86728" style="fill:#4b4b4b;fill-opacity:1" id="rect43185"  width="157.75" class="cls-52" gorn="0.2.0.0.7" rx="21.044817"/>
                <rect x="67.285904" height="18.209999" y="0.6727581" style="fill:#98232e;fill-opacity:1" id="rect6391"  width="31.379999" class="cls-53" gorn="0.2.0.0.8" rx="6.23"/>
                <circle r="15.493491" cx="77.335953" style="fill:#846c30" cy="-85.497284" id="circle44263"  class="cls-54" gorn="0.2.0.0.9"/>
                <circle r="11.306508" cx="77.335953" style="fill:#8a7d5c;fill-opacity:1" cy="-85.497284" id="connector0pin"  class="cls-54" gorn="0.2.0.0.10"/>
                <circle r="11.306508" cx="-7.8639998" style="fill:#8a7d5c;fill-opacity:1" cy="112.16275" id="connector1pin"  gorn="0.2.0.0.11"/>
                <path style="fill:#a2a63c" d="m -6.614,50.9527 h -4.43 v -0.45 l 2.74,-4.25 h 0.64 l -0.68,1.22 -1.81,2.85 h 3.54 z m -0.85,1.43 h -0.79 v -6.13 h 0.79 z" id="path6397"  class="cls-55" gorn="0.2.0.0.12"/>
                <path style="fill:#a2a63c" d="m -1.894,52.3827 h -4 v -0.56 l 2,-2.23 a 7.4,7.4 0 0 0 0.57,-0.7 2.16,2.16 0 0 0 0.29,-0.52 1.6,1.6 0 0 0 0.08,-0.47 1.12,1.12 0 0 0 -0.28,-0.78 0.94,0.94 0 0 0 -0.78,-0.32 1.31,1.31 0 0 0 -0.69,0.16 1,1 0 0 0 -0.4,0.44 1.48,1.48 0 0 0 -0.13,0.65 h -0.79 a 2.05,2.05 0 0 1 0.23,-1 1.68,1.68 0 0 1 0.67,-0.68 2.22,2.22 0 0 1 1.11,-0.25 1.94,1.94 0 0 1 1.36,0.45 1.54,1.54 0 0 1 0.49,1.18 1.92,1.92 0 0 1 -0.16,0.73 3.42,3.42 0 0 1 -0.42,0.73 7.28,7.28 0 0 1 -0.57,0.7 l -1.64,1.79 h 3.07 z" id="path6399"  class="cls-55" gorn="0.2.0.0.13"/>
                <path style="fill:#a2a63c" d="m 3.346,51.4527 0.23,0.93 h -0.63 l -2.27,-6.13 h 0.89 z m 1.7,-5.2 h 0.89 l -2.27,6.13 h -0.63 l 0.21,-0.93 z" id="path6401"  class="cls-55" gorn="0.2.0.0.14"/>
                <path style="fill:#a2a63c" d="m 11.426,49.5127 a 3.8,3.8 0 0 1 -0.31,1.58 2.32,2.32 0 0 1 -0.85,1 2.41,2.41 0 0 1 -1.3,0.35 2.27,2.27 0 0 1 -2.16,-1.37 3.65,3.65 0 0 1 -0.32,-1.58 v -0.38 a 3.65,3.65 0 0 1 0.32,-1.58 2.43,2.43 0 0 1 0.87,-1 2.55,2.55 0 0 1 2.58,0 2.34,2.34 0 0 1 0.86,1 3.8,3.8 0 0 1 0.31,1.58 z m -0.81,-0.4 a 3.37,3.37 0 0 0 -0.2,-1.23 1.63,1.63 0 0 0 -0.57,-0.77 1.53,1.53 0 0 0 -0.89,-0.26 1.51,1.51 0 0 0 -0.87,0.26 1.71,1.71 0 0 0 -0.58,0.77 3.17,3.17 0 0 0 -0.2,1.23 v 0.4 a 3.43,3.43 0 0 0 0.2,1.24 1.71,1.71 0 0 0 0.58,0.77 1.64,1.64 0 0 0 1.77,0 1.55,1.55 0 0 0 0.56,-0.77 3.43,3.43 0 0 0 0.2,-1.24 z" id="path6403"  class="cls-55" gorn="0.2.0.0.15"/>
                <path style="fill:#a2a63c" d="m 13.456,52.3827 h -0.82 v -6.13 h 0.82 z m 2.9,0 h -3.06 v -0.66 h 3.06 z" id="path6405"  class="cls-55" gorn="0.2.0.0.16"/>
                <path style="fill:#a2a63c" d="m 20.636,46.9127 h -4.74 v -0.66 h 4.74 z m -2,5.47 h -0.8 v -6.13 h 0.8 z" id="path6407"  class="cls-55" gorn="0.2.0.0.17"/>
                <path style="fill:#a2a63c" d="m 24.726,50.8327 a 0.91,0.91 0 0 0 -0.12,-0.49 1,1 0 0 0 -0.44,-0.37 5,5 0 0 0 -0.89,-0.33 5.93,5.93 0 0 1 -0.82,-0.3 3.19,3.19 0 0 1 -0.63,-0.38 1.69,1.69 0 0 1 -0.4,-0.49 1.53,1.53 0 0 1 0.12,-1.49 1.81,1.81 0 0 1 0.73,-0.6 2.65,2.65 0 0 1 1.09,-0.21 2.37,2.37 0 0 1 1.18,0.26 1.88,1.88 0 0 1 0.74,0.68 1.76,1.76 0 0 1 0.25,0.91 h -0.82 a 1.26,1.26 0 0 0 -0.15,-0.62 1,1 0 0 0 -0.44,-0.42 1.69,1.69 0 0 0 -0.76,-0.15 1.67,1.67 0 0 0 -0.71,0.13 0.89,0.89 0 0 0 -0.41,0.35 1,1 0 0 0 -0.13,0.51 0.76,0.76 0 0 0 0.14,0.46 1.47,1.47 0 0 0 0.46,0.36 6.68,6.68 0 0 0 0.82,0.3 5,5 0 0 1 1.14,0.45 1.77,1.77 0 0 1 0.66,0.6 1.6,1.6 0 0 1 0.21,0.83 1.44,1.44 0 0 1 -0.26,0.87 1.83,1.83 0 0 1 -0.75,0.57 3.13,3.13 0 0 1 -2,0.08 2.4,2.4 0 0 1 -0.74,-0.35 1.75,1.75 0 0 1 -0.54,-0.58 1.62,1.62 0 0 1 -0.2,-0.81 h 0.82 a 1.13,1.13 0 0 0 0.12,0.54 1,1 0 0 0 0.33,0.38 1.3,1.3 0 0 0 0.48,0.21 2.12,2.12 0 0 0 0.57,0.07 1.85,1.85 0 0 0 0.71,-0.12 1,1 0 0 0 0.45,-0.33 0.91,0.91 0 0 0 0.19,-0.52 z" id="path6409"  class="cls-55" gorn="0.2.0.0.18"/>
                <path style="fill:#a2a63c" d="m 29.536,52.3827 h -0.81 v -6.13 h 0.81 z m -0.44,0 v -0.66 h 1.27 a 1.94,1.94 0 0 0 1.09,-0.28 1.61,1.61 0 0 0 0.66,-0.77 2.81,2.81 0 0 0 0.22,-1.17 v -0.39 a 2.89,2.89 0 0 0 -0.22,-1.2 1.68,1.68 0 0 0 -0.64,-0.75 2,2 0 0 0 -1,-0.26 h -1.38 v -0.66 h 1.38 a 2.81,2.81 0 0 1 1.41,0.35 2.48,2.48 0 0 1 0.95,1 3.2,3.2 0 0 1 0.34,1.53 v 0.37 a 3.2,3.2 0 0 1 -0.34,1.53 2.5,2.5 0 0 1 -1,1 3,3 0 0 1 -1.48,0.35 z" id="path6411"  class="cls-55" gorn="0.2.0.0.19"/>
                <path style="fill:#a2a63c" d="m 38.886,50.4327 a 2.55,2.55 0 0 1 -0.33,1 1.91,1.91 0 0 1 -0.76,0.73 2.67,2.67 0 0 1 -1.23,0.26 2.29,2.29 0 0 1 -1.26,-0.35 2.34,2.34 0 0 1 -0.84,-1 3.52,3.52 0 0 1 -0.3,-1.5 v -0.61 a 3.49,3.49 0 0 1 0.3,-1.5 2.26,2.26 0 0 1 0.86,-1 2.36,2.36 0 0 1 1.31,-0.35 2.51,2.51 0 0 1 1.18,0.25 1.86,1.86 0 0 1 0.74,0.73 2.54,2.54 0 0 1 0.33,1.06 h -0.81 a 2,2 0 0 0 -0.41,-1 1.28,1.28 0 0 0 -1,-0.37 1.51,1.51 0 0 0 -0.91,0.27 1.69,1.69 0 0 0 -0.55,0.76 3.24,3.24 0 0 0 -0.19,1.14 v 0.62 a 3.43,3.43 0 0 0 0.17,1.1 1.69,1.69 0 0 0 0.52,0.79 1.29,1.29 0 0 0 0.89,0.29 1.73,1.73 0 0 0 0.82,-0.16 1.1,1.1 0 0 0 0.46,-0.47 2.48,2.48 0 0 0 0.23,-0.74 z" id="path6413"  class="cls-55" gorn="0.2.0.0.20"/>
                <path style="fill:#a2a63c" d="m 42.826,46.2527 0.11,3.73 v 2.4 h -0.81 v -6.13 z m 0.35,0 2,5 2,-5 h 0.79 l -2.48,6.13 h -0.62 l -2.48,-6.13 z m 5.05,0 v 6.13 h -0.81 v -2.4 l 0.11,-3.73 z" id="path6415"  class="cls-55" gorn="0.2.0.0.21"/>
                <path style="fill:#a2a63c" d="m 49.906,52.3827 h -0.85 l 2.34,-6.13 h 0.54 v 0.54 z m 3.61,-1.61 h -3.44 v -0.66 h 3.44 z m -1.93,-4 v -0.54 h 0.53 l 2.34,6.13 h -0.82 z" id="path6417"  class="cls-55" gorn="0.2.0.0.22"/>
                <path style="fill:#a2a63c" d="m 57.286,48.6027 1.47,-2.35 h 1 l -1.93,3 2,3.1 h -1 l -1.5,-2.4 -1.51,2.4 h -1 l 2,-3.1 -1.94,-3 h 1 z" id="path6419"  class="cls-55" gorn="0.2.0.0.23"/>
                <path style="fill:#a2a63c" d="m 61.566,52.3827 h -0.81 v -6.13 h 0.81 z" id="path6421"  class="cls-55" gorn="0.2.0.0.24"/>
                <path style="fill:#a2a63c" d="m 63.736,46.2527 0.12,3.73 v 2.4 h -0.82 v -6.13 z m 0.36,0 2,5 2,-5 h 0.8 l -2.49,6.13 h -0.62 l -2.48,-6.13 z m 5.05,0 v 6.13 h -0.82 v -2.4 l 0.12,-3.73 z" id="path6423"  class="cls-55" gorn="0.2.0.0.25"/>
                <path style="fill:#a2a63c" d="m 74.886,46.2527 v 4.14 a 2,2 0 0 1 -0.31,1.15 1.84,1.84 0 0 1 -0.82,0.69 2.64,2.64 0 0 1 -1.1,0.23 2.7,2.7 0 0 1 -1.12,-0.23 1.79,1.79 0 0 1 -0.8,-0.69 2.11,2.11 0 0 1 -0.29,-1.15 v -4.14 h 0.81 v 4.14 a 1.61,1.61 0 0 0 0.18,0.8 1.09,1.09 0 0 0 0.49,0.46 1.88,1.88 0 0 0 1.47,0 1,1 0 0 0 0.49,-0.46 1.61,1.61 0 0 0 0.18,-0.8 v -4.14 z" id="path6425"  class="cls-55" gorn="0.2.0.0.26"/>
                <path style="fill:#a2a63c" d="m 76.856,46.2527 0.11,3.73 v 2.4 h -0.81 v -6.13 z m 0.35,0 2,5 2,-5 h 0.8 l -2.49,6.13 h -0.62 l -2.48,-6.13 z m 5,0 v 6.13 h -0.81 v -2.4 l 0.11,-3.73 z" id="path6427"  class="cls-55" gorn="0.2.0.0.27"/>
                <path style="fill:#a2a63c" d="m -5.554,61.4727 h -0.81 v -6.12 h 0.82 z" id="path6429"  class="cls-55" gorn="0.2.0.0.28"/>
                <path style="fill:#a2a63c" d="m 0.446,60.6727 a 2.42,2.42 0 0 1 -0.36,0.37 2.16,2.16 0 0 1 -0.68,0.36 3.26,3.26 0 0 1 -1.13,0.16 2.5,2.5 0 0 1 -1.32,-0.35 2.36,2.36 0 0 1 -0.91,-1 3.46,3.46 0 0 1 -0.33,-1.57 v -0.48 a 3.93,3.93 0 0 1 0.29,-1.57 2.2,2.2 0 0 1 0.83,-1 2.5,2.5 0 0 1 1.34,-0.35 2.61,2.61 0 0 1 1.18,0.24 1.86,1.86 0 0 1 0.74,0.67 2.4,2.4 0 0 1 0.35,1 h -0.81 a 1.59,1.59 0 0 0 -0.22,-0.61 1.15,1.15 0 0 0 -0.46,-0.44 1.55,1.55 0 0 0 -0.76,-0.17 1.51,1.51 0 0 0 -0.93,0.27 1.49,1.49 0 0 0 -0.54,0.78 3.51,3.51 0 0 0 -0.18,1.19 v 0.49 a 3.15,3.15 0 0 0 0.22,1.21 1.82,1.82 0 0 0 0.61,0.77 1.57,1.57 0 0 0 0.91,0.27 2.65,2.65 0 0 0 0.7,-0.07 1.39,1.39 0 0 0 0.42,-0.18 1,1 0 0 0 0.24,-0.2 v -1.35 h -1.42 v -0.65 h 2.23 z" id="path6431"  class="cls-55" gorn="0.2.0.0.29"/>
                <path style="fill:#a2a63c" d="m 6.496,61.4727 h -0.86 l -3.07,-4.74 v 4.74 h -0.82 v -6.12 h 0.82 l 3.08,4.75 v -4.75 h 0.81 z" id="path6433"  class="cls-55" gorn="0.2.0.0.30"/>
                <path style="fill:#a2a63c" d="m 8.806,61.4727 h -0.81 v -6.12 h 0.81 z" id="path6435"  class="cls-55" gorn="0.2.0.0.31"/>
                <path style="fill:#a2a63c" d="m 14.516,56.0127 h -4.73 v -0.66 h 4.73 z m -2,5.46 h -0.81 v -6.12 h 0.81 z" id="path6437"  class="cls-55" gorn="0.2.0.0.32"/>
                <path style="fill:#a2a63c" d="m 16.306,61.4727 h -0.82 v -6.12 h 0.82 z" id="path6439"  class="cls-55" gorn="0.2.0.0.33"/>
                <path style="fill:#a2a63c" d="m 22.496,58.6127 a 3.84,3.84 0 0 1 -0.31,1.58 2.29,2.29 0 0 1 -0.85,1 2.33,2.33 0 0 1 -1.3,0.36 2.36,2.36 0 0 1 -1.29,-0.36 2.4,2.4 0 0 1 -0.87,-1 3.68,3.68 0 0 1 -0.32,-1.58 v -0.39 a 3.62,3.62 0 0 1 0.32,-1.58 2.37,2.37 0 0 1 0.87,-1 2.49,2.49 0 0 1 2.58,0 2.28,2.28 0 0 1 0.86,1 3.77,3.77 0 0 1 0.31,1.58 z m -0.81,-0.4 a 3.46,3.46 0 0 0 -0.2,-1.24 1.6,1.6 0 0 0 -0.57,-0.76 1.46,1.46 0 0 0 -0.89,-0.26 1.42,1.42 0 0 0 -0.87,0.26 1.68,1.68 0 0 0 -0.58,0.76 3.26,3.26 0 0 0 -0.2,1.24 v 0.4 a 3.26,3.26 0 0 0 0.2,1.24 1.63,1.63 0 0 0 0.58,0.76 1.59,1.59 0 0 0 1.77,0 1.54,1.54 0 0 0 0.56,-0.76 3.46,3.46 0 0 0 0.2,-1.24 z" id="path6441"  class="cls-55" gorn="0.2.0.0.34"/>
                <path style="fill:#a2a63c" d="m 28.426,61.4727 h -0.79 l -3.07,-4.74 v 4.74 h -0.82 v -6.12 h 0.82 l 3.07,4.76 v -4.75 h 0.81 z" id="path6443"  class="cls-55" gorn="0.2.0.0.35"/>
                <path style="fill:#a2a63c" d="m 32.636,59.1127 v -0.66 h 1.63 a 1.7,1.7 0 0 0 0.77,-0.15 1,1 0 0 0 0.43,-0.42 1.38,1.38 0 0 0 0.14,-0.62 1.35,1.35 0 0 0 -0.14,-0.59 1,1 0 0 0 -0.43,-0.45 1.47,1.47 0 0 0 -0.77,-0.17 h -1.45 v 5.46 h -0.81 v -6.12 h 2.26 a 2.64,2.64 0 0 1 1.18,0.24 1.65,1.65 0 0 1 0.72,0.66 1.81,1.81 0 0 1 0.25,1 1.89,1.89 0 0 1 -0.25,1 1.49,1.49 0 0 1 -0.72,0.63 2.79,2.79 0 0 1 -1.18,0.22 z" id="path6445"  class="cls-55" gorn="0.2.0.0.36"/>
                <path style="fill:#a2a63c" d="m 39.466,55.3527 a 2.91,2.91 0 0 1 1.17,0.21 1.54,1.54 0 0 1 0.73,0.62 2,2 0 0 1 0.25,1 1.65,1.65 0 0 1 -0.66,1.35 2.32,2.32 0 0 1 -0.76,0.36 l -0.23,0.09 h -1.9 v -0.66 h 1.43 a 1.61,1.61 0 0 0 0.73,-0.15 1,1 0 0 0 0.43,-0.42 1.1,1.1 0 0 0 0.15,-0.57 1.17,1.17 0 0 0 -0.32,-0.86 1.35,1.35 0 0 0 -1,-0.32 h -1.21 v 5.46 h -0.82 v -6.12 z m 0.06,3.35 h 0.85 l 1.51,2.72 v 0 h -0.88 z" id="path6447"  class="cls-55" gorn="0.2.0.0.37"/>
                <path style="fill:#a2a63c" d="m 47.456,58.6127 a 3.84,3.84 0 0 1 -0.3,1.58 2.36,2.36 0 0 1 -0.85,1 2.51,2.51 0 0 1 -2.59,0 2.4,2.4 0 0 1 -0.87,-1 3.68,3.68 0 0 1 -0.32,-1.58 v -0.39 a 3.62,3.62 0 0 1 0.32,-1.58 2.24,2.24 0 0 1 0.87,-1 2.49,2.49 0 0 1 2.58,0 2.35,2.35 0 0 1 0.86,1 3.77,3.77 0 0 1 0.3,1.58 z m -0.81,-0.4 a 3.48,3.48 0 0 0 -0.19,-1.24 1.6,1.6 0 0 0 -0.57,-0.76 1.64,1.64 0 0 0 -1.77,0 1.67,1.67 0 0 0 -0.57,0.76 3.25,3.25 0 0 0 -0.21,1.24 v 0.4 a 3.25,3.25 0 0 0 0.21,1.24 1.63,1.63 0 0 0 0.58,0.76 1.59,1.59 0 0 0 1.77,0 1.6,1.6 0 0 0 0.56,-0.76 3.48,3.48 0 0 0 0.19,-1.24 z" id="path6449"  class="cls-55" gorn="0.2.0.0.38"/>
                <path style="fill:#a2a63c" d="m 52.576,56.0127 h -4.74 v -0.66 h 4.74 z m -2,5.46 h -0.81 v -6.12 h 0.81 z" id="path6451"  class="cls-55" gorn="0.2.0.0.39"/>
                <path style="fill:#a2a63c" d="m 54.296,61.4727 h -0.82 v -6.12 h 0.82 z m 3,-5.46 h -3.2 v -0.66 h 3.2 z m -0.39,2.63 h -2.81 v -0.66 h 2.81 z m 0.43,2.83 h -3.24 v -0.65 h 3.24 z" id="path6453"  class="cls-55" gorn="0.2.0.0.40"/>
                <path style="fill:#a2a63c" d="m 62.886,59.5327 a 2.59,2.59 0 0 1 -0.33,1 1.89,1.89 0 0 1 -0.76,0.72 2.54,2.54 0 0 1 -1.23,0.27 2.29,2.29 0 0 1 -1.26,-0.35 2.4,2.4 0 0 1 -0.84,-1 3.52,3.52 0 0 1 -0.3,-1.5 v -0.56 a 3.45,3.45 0 0 1 0.3,-1.49 2.26,2.26 0 0 1 0.86,-1 2.36,2.36 0 0 1 1.31,-0.36 2.48,2.48 0 0 1 1.18,0.26 1.77,1.77 0 0 1 0.74,0.72 2.63,2.63 0 0 1 0.33,1.07 h -0.81 a 1.91,1.91 0 0 0 -0.41,-1 1.29,1.29 0 0 0 -1,-0.38 1.51,1.51 0 0 0 -0.91,0.27 1.74,1.74 0 0 0 -0.55,0.76 3.32,3.32 0 0 0 -0.19,1.14 v 0.63 a 3.48,3.48 0 0 0 0.17,1.1 1.77,1.77 0 0 0 0.52,0.79 1.36,1.36 0 0 0 0.89,0.29 1.73,1.73 0 0 0 0.82,-0.16 1.1,1.1 0 0 0 0.46,-0.47 2.48,2.48 0 0 0 0.23,-0.74 z" id="path6455"  class="cls-55" gorn="0.2.0.0.41"/>
                <path style="fill:#a2a63c" d="m 68.096,56.0127 h -4.73 v -0.66 h 4.73 z m -2,5.46 h -0.81 v -6.12 h 0.81 z" id="path6457"  class="cls-55" gorn="0.2.0.0.42"/>
                <path style="fill:#a2a63c" d="m 69.826,61.4727 h -0.82 v -6.12 h 0.82 z m 3,-5.46 h -3.19 v -0.66 h 3.19 z m -0.38,2.63 h -2.81 v -0.66 h 2.81 z m 0.43,2.83 h -3.24 v -0.65 h 3.24 z" id="path6459"  class="cls-55" gorn="0.2.0.0.43"/>
                <path style="fill:#a2a63c" d="m 74.726,61.4727 h -0.82 v -6.12 h 0.82 z m -0.44,0 v -0.65 h 1.27 a 2,2 0 0 0 1.09,-0.28 1.72,1.72 0 0 0 0.66,-0.77 2.87,2.87 0 0 0 0.22,-1.17 v -0.38 a 2.89,2.89 0 0 0 -0.22,-1.2 1.6,1.6 0 0 0 -0.65,-0.75 1.86,1.86 0 0 0 -1,-0.26 h -1.38 v -0.66 h 1.36 a 2.75,2.75 0 0 1 1.42,0.35 2.45,2.45 0 0 1 0.95,1 3.38,3.38 0 0 1 0.34,1.53 v 0.38 a 3.32,3.32 0 0 1 -0.34,1.53 2.37,2.37 0 0 1 -1,1 2.86,2.86 0 0 1 -1.47,0.35 z" id="path6461"  class="cls-55" gorn="0.2.0.0.44"/>
                <path style="fill:#a2a63c" d="m 10.236,68.6427 0.28,1.93 h -0.58 l -1.48,-6.13 h 0.81 z m 1.5,-4.2 h 0.59 l -0.34,1.66 -1.31,4.47 h -0.59 l 0.43,-1.85 z m 1.86,4.28 0.43,1.85 h -0.59 l -1.26,-4.47 -0.34,-1.66 h 0.58 z m 1.24,-4.28 h 0.82 l -1.48,6.13 h -0.54 l 0.3,-1.93 z" id="path6463"  class="cls-55" gorn="0.2.0.0.45"/>
                <path style="fill:#a2a63c" d="m 16.636,70.5727 h -0.85 l 2.34,-6.13 h 0.54 v 0.54 z m 3.61,-1.6 h -3.44 v -0.66 h 3.44 z m -1.93,-4 v -0.54 h 0.53 l 2.34,6.13 h -0.83 z" id="path6465"  class="cls-55" gorn="0.2.0.0.46"/>
                <path style="fill:#a2a63c" d="m 25.726,65.1127 h -4.73 v -0.66 h 4.73 z m -2,5.47 h -0.81 v -6.13 h 0.81 z" id="path6467"  class="cls-55" gorn="0.2.0.0.47"/>
                <path style="fill:#a2a63c" d="m 27.456,70.5727 h -0.82 v -6.13 h 0.82 z m 3,-5.47 h -3.19 v -0.66 h 3.19 z m -0.39,2.63 h -2.8 v -0.62 h 2.8 z m 0.43,2.84 h -3.23 v -0.66 h 3.23 z" id="path6469"  class="cls-55" gorn="0.2.0.0.48"/>
                <path style="fill:#a2a63c" d="m 33.566,64.4427 a 2.91,2.91 0 0 1 1.17,0.21 1.56,1.56 0 0 1 0.73,0.63 1.83,1.83 0 0 1 0.25,1 1.77,1.77 0 0 1 -0.17,0.77 1.74,1.74 0 0 1 -0.49,0.59 2.32,2.32 0 0 1 -0.76,0.36 l -0.23,0.09 h -1.9 v -0.66 h 1.47 a 1.61,1.61 0 0 0 0.73,-0.15 1.09,1.09 0 0 0 0.43,-0.42 1.14,1.14 0 0 0 0.15,-0.58 1.16,1.16 0 0 0 -0.32,-0.85 1.35,1.35 0 0 0 -1,-0.33 h -1.21 v 5.47 h -0.82 v -6.13 z m 0.06,3.35 h 0.85 l 1.51,2.73 v 0 h -0.88 z" id="path6471"  class="cls-55" gorn="0.2.0.0.49"/>
                <path style="fill:#a2a63c" d="m 37.476,68.1727 v -0.66 h 1.63 a 1.7,1.7 0 0 0 0.77,-0.15 1,1 0 0 0 0.43,-0.42 1.38,1.38 0 0 0 0.13,-0.62 1.31,1.31 0 0 0 -0.13,-0.59 1,1 0 0 0 -0.43,-0.45 1.46,1.46 0 0 0 -0.77,-0.18 h -1.47 v 5.47 h -0.81 v -6.13 h 2.26 a 2.6,2.6 0 0 1 1.17,0.24 1.68,1.68 0 0 1 0.73,0.66 1.85,1.85 0 0 1 0.25,1 1.92,1.92 0 0 1 -0.25,1 1.51,1.51 0 0 1 -0.73,0.63 2.75,2.75 0 0 1 -1.17,0.22 z" id="path6473"  class="cls-55" gorn="0.2.0.0.50"/>
                <path style="fill:#a2a63c" d="m 44.316,64.4427 a 2.91,2.91 0 0 1 1.17,0.21 1.56,1.56 0 0 1 0.73,0.63 1.92,1.92 0 0 1 0.25,1 1.77,1.77 0 0 1 -0.17,0.77 1.74,1.74 0 0 1 -0.49,0.59 2.28,2.28 0 0 1 -0.77,0.36 l -0.22,0.09 h -1.91 v -0.66 h 1.43 a 1.54,1.54 0 0 0 0.72,-0.15 1.12,1.12 0 0 0 0.44,-0.42 1.14,1.14 0 0 0 0.15,-0.58 1.16,1.16 0 0 0 -0.32,-0.85 1.35,1.35 0 0 0 -1,-0.33 h -1.22 v 5.47 h -0.81 v -6.13 z m 0.06,3.35 h 0.85 l 1.51,2.73 v 0 h -0.88 z" id="path6475"  class="cls-55" gorn="0.2.0.0.51"/>
                <path style="fill:#a2a63c" d="m 52.306,67.7027 a 3.77,3.77 0 0 1 -0.3,1.58 2.34,2.34 0 0 1 -0.86,1 2.55,2.55 0 0 1 -2.58,0 2.43,2.43 0 0 1 -0.87,-1 3.48,3.48 0 0 1 -0.32,-1.58 v -0.39 a 3.68,3.68 0 0 1 0.31,-1.58 2.37,2.37 0 0 1 4.32,0 3.84,3.84 0 0 1 0.3,1.58 z m -0.81,-0.39 a 3.48,3.48 0 0 0 -0.19,-1.24 1.68,1.68 0 0 0 -0.57,-0.76 1.48,1.48 0 0 0 -0.89,-0.26 1.45,1.45 0 0 0 -0.88,0.26 1.55,1.55 0 0 0 -0.57,0.76 3.25,3.25 0 0 0 -0.21,1.24 v 0.39 a 3.26,3.26 0 0 0 0.21,1.25 1.68,1.68 0 0 0 0.58,0.76 1.44,1.44 0 0 0 0.87,0.26 1.49,1.49 0 0 0 0.9,-0.26 1.65,1.65 0 0 0 0.56,-0.76 3.5,3.5 0 0 0 0.19,-1.25 z" id="path6477"  class="cls-55" gorn="0.2.0.0.52"/>
                <path style="fill:#a2a63c" d="m 58.246,67.7027 a 3.77,3.77 0 0 1 -0.31,1.58 2.22,2.22 0 0 1 -2.15,1.37 2.36,2.36 0 0 1 -1.29,-0.35 2.43,2.43 0 0 1 -0.87,-1 3.62,3.62 0 0 1 -0.32,-1.58 v -0.39 a 3.68,3.68 0 0 1 0.32,-1.58 2.34,2.34 0 0 1 0.87,-1 2.49,2.49 0 0 1 2.58,0 2.26,2.26 0 0 1 0.86,1 3.84,3.84 0 0 1 0.31,1.58 z m -0.81,-0.39 a 3.46,3.46 0 0 0 -0.2,-1.24 1.55,1.55 0 0 0 -0.57,-0.76 1.46,1.46 0 0 0 -0.89,-0.26 1.42,1.42 0 0 0 -0.87,0.26 1.63,1.63 0 0 0 -0.58,0.76 3.26,3.26 0 0 0 -0.2,1.24 v 0.39 a 3.28,3.28 0 0 0 0.2,1.25 1.68,1.68 0 0 0 0.58,0.76 1.64,1.64 0 0 0 1.77,0 1.58,1.58 0 0 0 0.56,-0.76 3.48,3.48 0 0 0 0.2,-1.25 z" id="path6479"  class="cls-55" gorn="0.2.0.0.53"/>
                <path style="fill:#a2a63c" d="m 60.276,70.5727 h -0.82 v -6.13 h 0.82 z m 3,-5.47 h -3.16 v -0.66 h 3.16 z m -0.42,2.76 h -2.74 v -0.66 h 2.74 z" id="path6481"  class="cls-55" gorn="0.2.0.0.54"/>
                <path style="fill:#a2a63c" d="m 13.736,-30.6373 h -0.78 v -5.19 l -1.57,0.57 v -0.7 l 2.23,-0.84 h 0.12 z" id="path6483"  class="cls-55" gorn="0.2.0.0.55"/>
                <path style="fill:#a2a63c" d="m 20.036,-30.6373 h -4 v -0.55 l 2,-2.24 a 8.09,8.09 0 0 0 0.58,-0.7 1.79,1.79 0 0 0 0.28,-0.52 1.26,1.26 0 0 0 0.08,-0.47 1.15,1.15 0 0 0 -0.27,-0.77 1,1 0 0 0 -0.79,-0.33 1.39,1.39 0 0 0 -0.68,0.16 1,1 0 0 0 -0.4,0.44 1.53,1.53 0 0 0 -0.14,0.66 h -0.78 a 2,2 0 0 1 0.22,-1 1.71,1.71 0 0 1 0.68,-0.68 2.21,2.21 0 0 1 1.1,-0.26 1.94,1.94 0 0 1 1.36,0.45 1.53,1.53 0 0 1 0.49,1.19 2,2 0 0 1 -0.15,0.73 4.48,4.48 0 0 1 -0.42,0.72 6.33,6.33 0 0 1 -0.58,0.7 l -1.64,1.79 h 3.07 z" id="path6485"  class="cls-55" gorn="0.2.0.0.56"/>
                <path style="fill:#a2a63c" d="m 24.706,-33.2473 a 4.38,4.38 0 0 1 -0.23,1.59 1.68,1.68 0 0 1 -0.67,0.85 2,2 0 0 1 -1,0.26 2,2 0 0 1 -1,-0.26 1.74,1.74 0 0 1 -0.68,-0.85 4.36,4.36 0 0 1 -0.24,-1.59 v -0.94 a 4.23,4.23 0 0 1 0.24,-1.58 1.62,1.62 0 0 1 0.67,-0.83 2.25,2.25 0 0 1 2.06,0 1.67,1.67 0 0 1 0.67,0.83 4.25,4.25 0 0 1 0.23,1.58 z m -0.78,-1.07 a 4.11,4.11 0 0 0 -0.13,-1.11 1.21,1.21 0 0 0 -0.39,-0.6 1.14,1.14 0 0 0 -1.26,0 1.21,1.21 0 0 0 -0.39,0.6 3.75,3.75 0 0 0 -0.13,1.11 v 1.19 a 3.87,3.87 0 0 0 0.13,1.12 1.25,1.25 0 0 0 0.4,0.63 1.09,1.09 0 0 0 1.26,0 1.3,1.3 0 0 0 0.38,-0.63 4.25,4.25 0 0 0 0.13,-1.12 z" id="path6487"  class="cls-55" gorn="0.2.0.0.57"/>
                <path style="fill:#a2a63c" d="m 28.296,-30.6373 h -0.84 l 2.34,-6.12 h 0.54 v 0.53 z m 3.62,-1.6 h -3.45 v -0.65 h 3.45 z m -1.93,-4 v -0.53 h 0.53 l 2.35,6.12 h -0.84 z" id="path6489"  class="cls-55" gorn="0.2.0.0.58"/>
                <path style="fill:#a2a63c" d="m 34.376,-36.7573 0.11,3.73 v 2.39 h -0.85 v -6.12 z m 0.35,0 2,5 2,-5 h 0.8 l -2.49,6.12 h -0.62 l -2.48,-6.12 z m 5,0 v 6.12 h -0.81 v -2.39 l 0.12,-3.73 z" id="path6491"  class="cls-55" gorn="0.2.0.0.59"/>
                <path style="fill:#a2a63c" d="m 41.836,-33.0373 v -0.66 h 1.63 a 1.67,1.67 0 0 0 0.77,-0.15 0.92,0.92 0 0 0 0.43,-0.42 1.38,1.38 0 0 0 0.14,-0.62 1.31,1.31 0 0 0 -0.14,-0.59 1,1 0 0 0 -0.43,-0.45 1.44,1.44 0 0 0 -0.77,-0.17 h -1.44 v 5.46 h -0.82 v -6.12 h 2.26 a 2.61,2.61 0 0 1 1.18,0.24 1.74,1.74 0 0 1 0.73,0.66 1.91,1.91 0 0 1 0.25,1 2,2 0 0 1 -0.25,1 1.56,1.56 0 0 1 -0.73,0.63 2.76,2.76 0 0 1 -1.18,0.22 z" id="path6493"  class="cls-55" gorn="0.2.0.0.60"/>
                <path style="fill:#a2a63c" d="m 47.466,-30.6373 h -0.83 v -6.12 h 0.82 z m 3,-5.46 h -3.19 v -0.66 h 3.19 z m -0.38,2.63 h -2.81 v -0.66 h 2.81 z m 0.42,2.83 h -3.23 v -0.65 h 3.23 z" id="path6495"  class="cls-55" gorn="0.2.0.0.61"/>
                <path style="fill:#a2a63c" d="m 53.576,-36.7573 a 2.91,2.91 0 0 1 1.17,0.21 1.54,1.54 0 0 1 0.73,0.62 1.86,1.86 0 0 1 0.25,1 1.65,1.65 0 0 1 -0.66,1.36 2.32,2.32 0 0 1 -0.76,0.36 l -0.23,0.09 h -1.9 v -0.66 h 1.46 a 1.61,1.61 0 0 0 0.73,-0.15 1.09,1.09 0 0 0 0.43,-0.42 1.14,1.14 0 0 0 0.15,-0.58 1.16,1.16 0 0 0 -0.32,-0.85 1.35,1.35 0 0 0 -1,-0.32 h -1.21 v 5.46 h -0.82 v -6.12 z m 0.06,3.35 h 0.85 l 1.51,2.72 v 0 h -0.88 z" id="path6497"  class="cls-55" gorn="0.2.0.0.62"/>
                <path style="fill:#a2a63c" d="m 57.636,-30.6373 h -0.81 v -6.12 h 0.81 z m 3,-5.46 h -3.2 v -0.66 h 3.2 z m -0.39,2.63 h -2.81 v -0.66 h 2.81 z m 0.43,2.83 h -3.24 v -0.65 h 3.24 z" id="path6499"  class="cls-55" gorn="0.2.0.0.63"/>
                <path style="fill:#a2a63c" d="m -15.254,-27.0073 h -4.73 v -0.66 h 4.73 z m -2,5.47 h -0.81 v -6.13 h 0.81 z" id="path6501"  class="cls-55" gorn="0.2.0.0.64"/>
                <path style="fill:#a2a63c" d="m -13.524,-21.5373 h -0.84 v -6.13 h 0.82 z m 3.18,-2.84 h -3.31 v -0.65 h 3.29 z m 0.72,2.84 h -0.82 v -6.13 h 0.82 z" id="path6503"  class="cls-55" gorn="0.2.0.0.65"/>
                <path style="fill:#a2a63c" d="m -7.364,-21.5373 h -0.82 v -6.13 h 0.82 z m 3,-5.47 h -3.19 v -0.66 h 3.19 z m -0.39,2.63 h -2.8 v -0.65 h 2.8 z m 0.43,2.84 h -3.23 v -0.66 h 3.23 z" id="path6505"  class="cls-55" gorn="0.2.0.0.66"/>
                <path style="fill:#a2a63c" d="m -1.264,-27.6673 a 2.91,2.91 0 0 1 1.17,0.21 1.59,1.59 0 0 1 0.73,0.62 2,2 0 0 1 0.25,1 1.77,1.77 0 0 1 -0.17,0.77 1.84,1.84 0 0 1 -0.49,0.59 2.32,2.32 0 0 1 -0.76,0.36 l -0.23,0.09 h -1.9 v -0.66 h 1.43 a 1.49,1.49 0 0 0 0.73,-0.16 1.06,1.06 0 0 0 0.43,-0.41 1.25,1.25 0 0 0 -0.17,-1.43 1.35,1.35 0 0 0 -1,-0.33 h -1.22 v 5.47 h -0.81 v -6.13 z m 0.06,3.35 h 0.85 l 1.51,2.73 v 0 h -0.88 z" id="path6507"  class="cls-55" gorn="0.2.0.0.67"/>
                <path style="fill:#a2a63c" d="m 2.706,-27.6673 0.12,3.74 v 2.39 h -0.81 v -6.13 z m 0.36,0 2,5 2,-5 h 0.8 l -2.49,6.13 h -0.61 l -2.49,-6.13 z m 5.05,0 v 6.13 h -0.81 v -2.35 l 0.11,-3.74 z" id="path6509"  class="cls-55" gorn="0.2.0.0.68"/>
                <path style="fill:#a2a63c" d="m 9.786,-21.5373 h -0.84 l 2.34,-6.13 h 0.54 v 0.54 z m 3.62,-1.6 h -3.45 v -0.66 h 3.45 z m -1.93,-4 v -0.54 h 0.54 l 2.34,6.13 h -0.84 z" id="path6511"  class="cls-55" gorn="0.2.0.0.69"/>
                <path style="fill:#a2a63c" d="m 15.986,-21.5373 h -0.82 v -6.13 h 0.82 z m 2.9,0 h -3.06 v -0.66 h 3.06 z" id="path6513"  class="cls-55" gorn="0.2.0.0.70"/>
                <path style="fill:#a2a63c" d="m 26.466,-23.4773 a 2.67,2.67 0 0 1 -0.34,1 1.91,1.91 0 0 1 -0.76,0.73 2.55,2.55 0 0 1 -1.23,0.26 2.21,2.21 0 0 1 -1.26,-0.35 2.28,2.28 0 0 1 -0.84,-1 3.45,3.45 0 0 1 -0.3,-1.49 v -0.56 a 3.52,3.52 0 0 1 0.3,-1.5 2.37,2.37 0 0 1 0.86,-1 2.44,2.44 0 0 1 1.31,-0.35 2.37,2.37 0 0 1 1.18,0.26 1.77,1.77 0 0 1 0.74,0.72 2.75,2.75 0 0 1 0.34,1.07 h -0.83 a 2,2 0 0 0 -0.41,-1 1.28,1.28 0 0 0 -1,-0.37 1.51,1.51 0 0 0 -0.91,0.27 1.69,1.69 0 0 0 -0.55,0.76 3.32,3.32 0 0 0 -0.19,1.14 v 0.63 a 3.41,3.41 0 0 0 0.17,1.09 1.71,1.71 0 0 0 0.52,0.79 1.31,1.31 0 0 0 0.89,0.3 1.73,1.73 0 0 0 0.82,-0.17 1,1 0 0 0 0.46,-0.47 2.41,2.41 0 0 0 0.23,-0.73 z" id="path6515"  class="cls-55" gorn="0.2.0.0.71"/>
                <path style="fill:#a2a63c" d="m 28.436,-21.5373 h -0.8 v -6.13 h 0.82 z" id="path6517"  class="cls-55" gorn="0.2.0.0.72"/>
                <path style="fill:#a2a63c" d="m 31.936,-27.6673 a 2.91,2.91 0 0 1 1.17,0.21 1.59,1.59 0 0 1 0.73,0.62 1.89,1.89 0 0 1 0.25,1 1.77,1.77 0 0 1 -0.17,0.77 1.72,1.72 0 0 1 -0.49,0.59 2.23,2.23 0 0 1 -0.76,0.36 l -0.23,0.09 h -1.9 v -0.66 h 1.43 a 1.46,1.46 0 0 0 0.73,-0.16 1,1 0 0 0 0.43,-0.41 1.25,1.25 0 0 0 -0.17,-1.43 1.33,1.33 0 0 0 -1,-0.33 h -1.21 v 5.47 h -0.82 v -6.13 z m 0.06,3.35 h 0.85 l 1.51,2.73 v 0 h -0.88 z" id="path6519"  class="cls-55" gorn="0.2.0.0.73"/>
                <path style="fill:#a2a63c" d="m 39.726,-23.4773 a 2.5,2.5 0 0 1 -0.33,1 2,2 0 0 1 -0.76,0.73 2.56,2.56 0 0 1 -1.24,0.26 2.21,2.21 0 0 1 -1.26,-0.35 2.33,2.33 0 0 1 -0.83,-1 3.45,3.45 0 0 1 -0.3,-1.49 v -0.56 a 3.52,3.52 0 0 1 0.3,-1.5 2.37,2.37 0 0 1 0.86,-1 2.42,2.42 0 0 1 1.31,-0.35 2.35,2.35 0 0 1 1.17,0.26 1.86,1.86 0 0 1 0.75,0.72 2.59,2.59 0 0 1 0.33,1.07 h -0.82 a 2,2 0 0 0 -0.41,-1 1.26,1.26 0 0 0 -1,-0.37 1.49,1.49 0 0 0 -0.91,0.27 1.62,1.62 0 0 0 -0.55,0.76 3.1,3.1 0 0 0 -0.19,1.14 v 0.63 a 3.41,3.41 0 0 0 0.17,1.09 1.7,1.7 0 0 0 0.51,0.79 1.31,1.31 0 0 0 0.89,0.3 1.7,1.7 0 0 0 0.82,-0.17 1.07,1.07 0 0 0 0.47,-0.47 2.41,2.41 0 0 0 0.22,-0.73 z" id="path6521"  class="cls-55" gorn="0.2.0.0.74"/>
                <path style="fill:#a2a63c" d="m 45.136,-27.6673 v 4.15 a 2.07,2.07 0 0 1 -0.3,1.15 1.94,1.94 0 0 1 -0.82,0.68 2.55,2.55 0 0 1 -1.1,0.23 2.6,2.6 0 0 1 -1.13,-0.23 1.8,1.8 0 0 1 -0.79,-0.68 2.07,2.07 0 0 1 -0.29,-1.15 v -4.15 h 0.8 v 4.15 a 1.57,1.57 0 0 0 0.18,0.79 1.09,1.09 0 0 0 0.49,0.46 1.79,1.79 0 0 0 1.48,0 1.09,1.09 0 0 0 0.49,-0.46 1.57,1.57 0 0 0 0.17,-0.79 v -4.15 z" id="path6523"  class="cls-55" gorn="0.2.0.0.75"/>
                <path style="fill:#a2a63c" d="m 47.286,-21.5373 h -0.81 v -6.13 h 0.81 z" id="path6525"  class="cls-55" gorn="0.2.0.0.76"/>
                <path style="fill:#a2a63c" d="m 52.996,-27.0073 h -4.74 v -0.66 h 4.74 z m -2,5.47 h -0.8 v -6.13 h 0.8 z" id="path6527"  class="cls-55" gorn="0.2.0.0.77"/>
                <path style="fill:#a2a63c" d="m 56.436,-24.4073 v -0.64 h 1.4 a 1.35,1.35 0 0 0 0.85,-0.26 0.91,0.91 0 0 0 0.32,-0.73 0.88,0.88 0 0 0 -0.3,-0.74 1.44,1.44 0 0 0 -0.89,-0.23 h -1.18 v 5.47 h -0.82 v -6.13 h 2 a 2.42,2.42 0 0 1 1.47,0.39 1.44,1.44 0 0 1 0.53,1.25 1.22,1.22 0 0 1 -0.19,0.68 1.53,1.53 0 0 1 -0.54,0.5 2.2,2.2 0 0 1 -0.81,0.25 l -0.28,0.19 z m -0.33,2.87 0.47,-0.66 h 1.37 a 1.24,1.24 0 0 0 0.89,-0.3 1,1 0 0 0 0.32,-0.8 1.35,1.35 0 0 0 -0.13,-0.59 0.8,0.8 0 0 0 -0.38,-0.39 1.41,1.41 0 0 0 -0.66,-0.13 h -1.16 v -0.64 h 1.58 l 0.17,0.23 a 1.55,1.55 0 0 1 0.75,0.25 1.36,1.36 0 0 1 0.47,0.54 1.8,1.8 0 0 1 -0.39,2 2.26,2.26 0 0 1 -1.47,0.45 z" id="path6529"  class="cls-55" gorn="0.2.0.0.78"/>
                <path style="fill:#a2a63c" d="m 63.196,-27.6673 a 2.91,2.91 0 0 1 1.17,0.21 1.59,1.59 0 0 1 0.73,0.62 1.89,1.89 0 0 1 0.25,1 1.77,1.77 0 0 1 -0.17,0.77 1.72,1.72 0 0 1 -0.49,0.59 2.23,2.23 0 0 1 -0.76,0.36 l -0.23,0.09 h -1.9 v -0.66 h 1.43 a 1.46,1.46 0 0 0 0.73,-0.16 1,1 0 0 0 0.43,-0.41 1.25,1.25 0 0 0 -0.17,-1.43 1.33,1.33 0 0 0 -1,-0.33 h -1.21 v 5.47 h -0.82 v -6.13 z m 0.06,3.35 h 0.85 l 1.51,2.73 v 0 h -0.88 z" id="path6531"  class="cls-55" gorn="0.2.0.0.79"/>
                <path style="fill:#a2a63c" d="m 67.286,-21.5373 h -0.81 v -6.13 h 0.81 z m 3,-5.47 h -3.2 v -0.66 h 3.2 z m -0.39,2.63 h -2.81 v -0.65 h 2.81 z m 0.43,2.84 h -3.24 v -0.66 h 3.24 z" id="path6533"  class="cls-55" gorn="0.2.0.0.80"/>
                <path style="fill:#a2a63c" d="m 71.636,-21.5373 h -0.84 l 2.34,-6.13 h 0.54 v 0.54 z m 3.62,-1.6 h -3.44 v -0.66 h 3.44 z m -1.93,-4 v -0.54 h 0.54 l 2.34,6.13 h -0.83 z" id="path6535"  class="cls-55" gorn="0.2.0.0.81"/>
                <path style="fill:#a2a63c" d="m 77.816,-21.5373 h -0.81 v -6.13 h 0.81 z m 1.16,-3.27 -1.43,1.48 -0.14,-0.86 1.07,-1.19 2.06,-2.29 h 1 z m -0.51,0.28 0.49,-0.64 2.75,3.63 h -1 z" id="path6537"  class="cls-55" gorn="0.2.0.0.82"/>
                <path style="fill:#a2a63c" d="m 83.226,-21.5373 h -0.82 v -6.13 h 0.82 z m 3,-5.47 h -3.19 v -0.66 h 3.19 z m -0.38,2.63 h -2.81 v -0.65 h 2.81 z m 0.43,2.84 h -3.24 v -0.66 h 3.24 z" id="path6539"  class="cls-55" gorn="0.2.0.0.83"/>
                <path style="fill:#a2a63c" d="m 89.336,-27.6673 a 2.91,2.91 0 0 1 1.17,0.21 1.59,1.59 0 0 1 0.73,0.62 1.89,1.89 0 0 1 0.25,1 1.77,1.77 0 0 1 -0.17,0.77 1.72,1.72 0 0 1 -0.49,0.59 2.23,2.23 0 0 1 -0.76,0.36 l -0.23,0.09 h -1.9 v -0.66 h 1.43 a 1.46,1.46 0 0 0 0.73,-0.16 1.09,1.09 0 0 0 0.44,-0.41 1.27,1.27 0 0 0 0.14,-0.58 1.16,1.16 0 0 0 -0.31,-0.85 1.37,1.37 0 0 0 -1,-0.33 h -1.21 v 5.47 h -0.82 v -6.13 z m 0.06,3.35 h 0.85 l 1.51,2.73 v 0 h -0.87 z" id="path6541"  class="cls-55" gorn="0.2.0.0.84"/>
                <rect x="65.460358" height="18.209999" y="-1.1527843" style="fill:#be2c3a" id="rect44269"  width="31.379999" class="cls-53" gorn="0.2.0.0.85" rx="6.23"/>
                <path style="stroke-linecap:round;stroke-linejoin:miter;stroke-dasharray:none;" stroke="#d53f4d" d="m 88.928374,0.25208354 -17.969133,-0.0872 C 69.100244,0.18587884 66.82503,2.7509919 66.859484,4.2464322 l -0.0872,6.2177168" stroke-opacity="1" id="path44334"  fill="none" gorn="0.2.0.0.86" stroke-width="1.5"/>
            </g>
        </g>
    </g>
</svg>
