<?xml version='1.0' encoding='UTF-8' standalone='no'?>
<svg xmlns="http://www.w3.org/2000/svg"  x="0px" gorn="0" version="1.2" id="svg15051" height="1.3949741in" y="0px" viewBox="0 0 160.45502 100.43979" width="2.2285419in">
    <desc >
        <referenceFile >REV_NEO_550_Motor_breadboard.svg</referenceFile>
    </desc>
    <defs  id="defs15055"/>
    <g  transform="translate(4.0167529,22.401339)">
        <g >
            <g >
                <g >
                    <g  gorn="0.2.0.0.0.0" id="breadboard">
                        <rect  style="stroke-linecap:round;stroke-dasharray:none;" x="130.83405" stroke-width="1.00002" ry="0.67863333" stroke="#000000" gorn="0.2.0.0.0.0.0" fill="#a8a8a8" id="rect15895" height="10.368008" fill-opacity="1" stroke-opacity="1" y="22.733032" width="25.104677" rx="0.39340258"/>
                        <rect  style="stroke-linecap:round;stroke-dasharray:none;" x="118.86272" stroke-width="0.873321" ry="0.9758966" stroke="#000000" gorn="0.2.0.0.0.0.1" fill="#3c3c3c" id="rect15893" height="36.801781" fill-opacity="1" stroke-opacity="1" y="9.416995" width="16.473831" rx="1.5942417"/>
                        <rect  style="opacity:1;stroke-dasharray:none;stop-color:#000000" x="100.32858" stroke-width="0.500008" stroke="#0f0f0f" gorn="0.2.0.0.0.0.2" fill="#222222" id="rect2629" height="70.781021" fill-opacity="1" stroke-opacity="1" y="-7.3057141" width="3.2433352"/>
                        <path  style="opacity:1;stroke-dasharray:none;stop-color:#000000" stroke-width="1.00002" stroke="#0f0f0f" gorn="0.2.0.0.0.0.3" fill="#404040" id="rect2683" fill-opacity="1" d="m 103.32787,-21.901272 18.64314,0.02801 c 0.45164,6.79e-4 0.81523,0.363594 0.81523,0.815234 v 97.781237 c 0,0.451639 -0.36359,0.815234 -0.81523,0.815234 h -18.67115 c -0.45164,0 -0.50715,-0.05551 -0.50715,-0.507147 v -98.397411 c 0,-0.45164 0.0835,-0.535833 0.53516,-0.535155 z"/>
                        <path  style="opacity:1;stroke-linecap:butt;stroke-linejoin:miter;stroke-dasharray:none;" stroke-width="1.00002" stroke="#000000" gorn="0.2.0.0.0.0.4" fill="#353535" id="path15839" fill-opacity="1" stroke-opacity="1" d="m 20.627528,-21.133383 c 0.01807,-0.528995 0.07998,-0.687394 0.732754,-0.748189 l 78.901678,0.03853 c 0.5406,0.014 0.70195,0.1508 0.70645,0.915539 l 0.0288,97.596833 c -0.0508,0.764649 -0.22504,0.842154 -0.88382,0.821264 l -78.790331,-0.06629 c -0.523793,-0.006 -0.76509,-0.58857 -0.736184,-1.251687 z"/>
                        <rect  x="19.221001" gorn="0.2.0.0.0.0.5" fill="#8c8c8c" id="rect2898" height="1" y="43.257" width="1"/>
                        <path  stroke-width="0.838477" stroke="none" gorn="0.2.0.0.0.0.6" fill="#ffffff" id="path15009" opacity="0.16" d="m 98.947404,-7.3987425 c 0,0.7978815 -0.27919,1.443732 -2.471681,1.443732 H 23.031642 c -0.960145,0 -1.347098,-0.5906689 -1.347098,-1.3891136 v -7.2028939 c 0,-0.798445 0.547856,-1.502292 1.347098,-1.502292 h 73.444081 c 2.192491,0 2.471681,0.647539 2.471681,1.445984 z"/>
                        <rect  style="stroke-linecap:round;stroke-dasharray:none;" x="136.30669" stroke-width="1.00001" ry="0.72001189" stroke="none" gorn="0.2.0.0.0.0.7" fill="#d0d0d0" id="rect16002" height="2.9366555" fill-opacity="1" stroke-opacity="1" y="24.237795" width="17.966467" rx="0.72001189"/>
                        <rect  style="stroke-linecap:round;stroke-dasharray:none;" x="103.70387" stroke-width="1.00001" ry="7.2001185" stroke="none" gorn="0.2.0.0.0.0.8" fill="#202020" id="rect16472" height="49.12833" fill-opacity="1" stroke-opacity="1" y="3.1513956" width="12.650553" rx="5.7600951"/>
                        <g  stroke="none" gorn="0.2.0.0.0.0.9" fill="#8b7749" id="g30874" fill-opacity="1">
                            <g  transform="matrix(0,0.85307725,-0.85307725,0,80.833822,-29.041161)">
                                <g >
                                    <g >
                                        <g >
                                            <g  aria-label="NEO" style="font-weight:bold;line-height:1.25;-inkscape-font-specification:'sans-serif Bold';font-variation-settings:normal;letter-spacing:0px;word-spacing:0px;opacity:1;stroke-linecap:butt;stroke-linejoin:miter;stroke-miterlimit:4;stroke-dasharray:none;stroke-dashoffset:0;stop-color:#000000;stop-opacity:1" stroke-width="0.117225" stroke="none" gorn="0.2.0.0.0.0.9.0.0.0.0.0" fill="#8b7749" id="text13943" fill-opacity="1" stroke-opacity="1" font-size="24.0004">
                                                <path  style="font-variation-settings:normal;stroke-linecap:butt;stroke-linejoin:miter;stroke-miterlimit:4;stroke-dasharray:none;stroke-dashoffset:0;stop-color:#000000;stop-opacity:1" stroke-width="0.117225" stroke="none" gorn="0.2.0.0.0.0.9.0.0.0.0.0.0" fill="#8b7749" id="path16123" fill-opacity="1" stroke-opacity="1" d="M 55.502597,31.059198 H 50.082585 L 41.375748,16.749602 V 31.059198 H 35.668282 V 9.2473116 h 6.723745 L 50.346261,21.742637 V 9.2473116 h 5.156336 z"/>
                                                <path  style="font-variation-settings:normal;stroke-linecap:butt;stroke-linejoin:miter;stroke-miterlimit:4;stroke-dasharray:none;stroke-dashoffset:0;stop-color:#000000;stop-opacity:1" stroke-width="0.117225" stroke="none" gorn="0.2.0.0.0.0.9.0.0.0.0.0.1" fill="#8b7749" id="path16125" fill-opacity="1" stroke-opacity="1" d="M 76.845727,31.059198 H 58.069047 V 9.2473116 h 18.77668 L 74.022988,13.907036 H 63.664844 v 3.654485 h 9.227947 v 4.329046 h -9.227947 v 4.288455 h 9.850155 z"/>
                                                <path  style="font-variation-settings:normal;stroke-linecap:butt;stroke-linejoin:miter;stroke-miterlimit:4;stroke-dasharray:none;stroke-dashoffset:0;stop-color:#000000;stop-opacity:1" stroke-width="0.117225" stroke="none" gorn="0.2.0.0.0.0.9.0.0.0.0.0.2" fill="#8b7749" id="path16127" fill-opacity="1" stroke-opacity="1" d="m 97.832916,20.160579 q 0,5.214931 -2.988335,8.291154 -2.988331,3.061575 -8.261857,3.061575 -5.258876,0 -8.247207,-3.061575 -2.988332,-3.076223 -2.988332,-8.291154 0,-5.258876 2.988332,-8.305802 2.988331,-3.0615745 8.247207,-3.0615745 5.244228,0 8.247208,3.0615745 3.002984,3.046926 3.002984,8.305802 z m -7.456183,5.522553 q 0.820326,-0.99611 1.21584,-2.343789 0.395515,-1.362327 0.395515,-3.193412 0,-1.962924 -0.454109,-3.3399 -0.45411,-1.376976 -1.186544,-2.226599 -0.747082,-0.878921 -1.728544,-1.274436 -0.966813,-0.395514 -2.021518,-0.395514 -1.069354,0 -2.021518,0.380866 -0.937516,0.380865 -1.728545,1.259786 -0.732434,0.820326 -1.201191,2.270546 -0.45411,1.435571 -0.45411,3.339899 0,1.948275 0.439461,3.325251 0.454109,1.362327 1.186543,2.2266 0.732434,0.864272 1.713896,1.274435 0.981461,0.410163 2.065464,0.410163 1.084002,0 2.065464,-0.410163 0.981462,-0.424812 1.713896,-1.303733 z"/>
                                            </g>
                                        </g>
                                    </g>
                                </g>
                            </g>
                            <path  style="stroke-dasharray:none;" stroke-width="0.100002" stroke="none" gorn="0.2.0.0.0.0.9.1" fill="#8b7749" id="polygon60246" fill-opacity="1" stroke-opacity="1" d="M 78.406811,7.9130366 V 5.2850342 l 1.356115,0.8155867 V 8.6380033 Z M 74.42887,3.0195075 Z m 1.717749,15.2242905 v -6.162212 l 1.175302,0.634349 v 4.802898 l 1.265702,-0.724966 v -3.352969 l 1.175303,0.634348 v 0 1.993654 l 1.717747,-0.996829 v 0 0 -3.443585 L 80.21496,12.353448 74.42887,9.0004773 V 19.150007 Z m 5.334054,4.712284 -3.616307,-2.08428 3.616307,-2.084278 v -1.993657 l -7.051803,4.077935 7.051803,4.077937 z M 80.124556,4.2882052 76.146619,2.0226848 l -1.717745,0.9968287 3.977937,2.2655207 -3.977937,2.2655184 1.717745,0.9968297 0.904077,-0.5437247 v 1.0874497 l 3.164268,1.8124157 1.265708,-0.724967 V 3.5632395 Z" class="st11"/>
                            <g  transform="matrix(0,0.55699499,-0.65401808,0,105.04978,-0.48310293)">
                                <g >
                                    <g >
                                        <g >
                                            <g  aria-label="ROBOTICS" style="font-weight:bold;line-height:1.25;font-family:Droid Sans;-inkscape-font-specification:'Droid Sans Bold';font-variation-settings:normal;letter-spacing:0px;word-spacing:0px;opacity:1;stroke-linecap:butt;stroke-linejoin:miter;stroke-miterlimit:4;stroke-dasharray:none;stroke-dashoffset:0;stop-color:#000000;stop-opacity:1" stroke-width="0.165686" stroke="none" gorn="0.2.0.0.0.0.9.2.0.0.0.0" fill="#8b7749" id="text10999" fill-opacity="1" stroke-opacity="1" font-size="6.4001">
                                                <path  style="font-variation-settings:normal;stroke-linecap:butt;stroke-linejoin:miter;stroke-miterlimit:4;stroke-dasharray:none;stroke-dashoffset:0;stop-color:#000000;stop-opacity:1" stroke-width="0.165686" stroke="none" gorn="0.2.0.0.0.0.9.2.0.0.0.0.0" fill="#8b7749" id="path11727" fill-opacity="1" stroke-opacity="1" d="m 45.720172,42.173857 v 1.5469 h 1.363304 q 0.406257,0 0.609385,-0.09375 0.359381,-0.164066 0.359381,-0.648449 0,-0.523446 -0.347662,-0.703136 -0.195316,-0.101564 -0.585947,-0.101564 z m 1.648465,-1.000017 q 0.605479,0.01172 0.929703,0.14844 0.32813,0.136721 0.554696,0.402351 0.187503,0.218753 0.29688,0.484382 0.109377,0.26563 0.109377,0.605479 0,0.410163 -0.207035,0.808607 -0.207034,0.394538 -0.683605,0.558603 0.398444,0.160159 0.56251,0.457039 0.167971,0.292974 0.167971,0.898452 v 0.386725 q 0,0.394538 0.03125,0.535165 0.04687,0.22266 0.218753,0.328131 v 0.144533 h -1.32424 q -0.05469,-0.191409 -0.07813,-0.308598 -0.04687,-0.242192 -0.05078,-0.496102 l -0.0078,-0.535165 q -0.0078,-0.550791 -0.203129,-0.734387 -0.191409,-0.183597 -0.722668,-0.183597 h -1.242208 v 2.257849 h -1.1758 V 41.17384 Z"/>
                                                <path  style="font-variation-settings:normal;stroke-linecap:butt;stroke-linejoin:miter;stroke-miterlimit:4;stroke-dasharray:none;stroke-dashoffset:0;stop-color:#000000;stop-opacity:1" stroke-width="0.165686" stroke="none" gorn="0.2.0.0.0.0.9.2.0.0.0.0.1" fill="#8b7749" id="path11729" fill-opacity="1" stroke-opacity="1" d="m 52.841383,46.072358 q 0.714855,0 1.132831,-0.527352 0.421882,-0.527353 0.421882,-1.500025 0,-0.968766 -0.421882,-1.496118 -0.417976,-0.531259 -1.132831,-0.531259 -0.714856,0 -1.140644,0.527353 -0.425788,0.527352 -0.425788,1.500024 0,0.972672 0.425788,1.500025 0.425788,0.527352 1.140644,0.527352 z m 2.757858,-2.027377 q 0,1.550807 -0.871108,2.375039 -0.652355,0.671886 -1.88675,0.671886 -1.234395,0 -1.88675,-0.671886 -0.875014,-0.824232 -0.875014,-2.375039 0,-1.582057 0.875014,-2.375039 0.652355,-0.671886 1.88675,-0.671886 1.234395,0 1.88675,0.671886 0.871108,0.792982 0.871108,2.375039 z m -2.757858,-3.046925 z"/>
                                                <path  style="font-variation-settings:normal;stroke-linecap:butt;stroke-linejoin:miter;stroke-miterlimit:4;stroke-dasharray:none;stroke-dashoffset:0;stop-color:#000000;stop-opacity:1" stroke-width="0.165686" stroke="none" gorn="0.2.0.0.0.0.9.2.0.0.0.0.2" fill="#8b7749" id="path11731" fill-opacity="1" stroke-opacity="1" d="m 57.685213,42.173857 v 1.269552 h 1.414086 q 0.378912,0 0.613291,-0.140628 0.238285,-0.144533 0.238285,-0.50782 0,-0.402351 -0.312505,-0.531259 -0.269536,-0.08985 -0.687511,-0.08985 z m 0,2.222692 v 1.535182 h 1.414086 q 0.378912,0 0.589853,-0.101564 0.382819,-0.187503 0.382819,-0.718762 0,-0.449226 -0.3711,-0.617198 -0.207035,-0.09375 -0.582041,-0.09766 z m 1.648464,-3.222709 q 1.058612,0.01563 1.500025,0.613292 0.265629,0.367193 0.265629,0.87892 0,0.527353 -0.265629,0.84767 -0.14844,0.179691 -0.437507,0.328131 0.441413,0.160159 0.664073,0.507821 0.226567,0.347662 0.226567,0.843764 0,0.511727 -0.257817,0.917983 -0.164065,0.269536 -0.410163,0.453133 -0.277349,0.210941 -0.656261,0.289067 -0.375006,0.07813 -0.81642,0.07813 H 56.536756 V 41.17384 Z"/>
                                                <path  style="font-variation-settings:normal;stroke-linecap:butt;stroke-linejoin:miter;stroke-miterlimit:4;stroke-dasharray:none;stroke-dashoffset:0;stop-color:#000000;stop-opacity:1" stroke-width="0.165686" stroke="none" gorn="0.2.0.0.0.0.9.2.0.0.0.0.3" fill="#8b7749" id="path11733" fill-opacity="1" stroke-opacity="1" d="m 64.84158,46.072358 q 0.714855,0 1.132831,-0.527352 0.421882,-0.527353 0.421882,-1.500025 0,-0.968766 -0.421882,-1.496118 -0.417976,-0.531259 -1.132831,-0.531259 -0.714856,0 -1.140644,0.527353 -0.425788,0.527352 -0.425788,1.500024 0,0.972672 0.425788,1.500025 0.425788,0.527352 1.140644,0.527352 z m 2.757858,-2.027377 q 0,1.550807 -0.871108,2.375039 -0.652355,0.671886 -1.88675,0.671886 -1.234395,0 -1.88675,-0.671886 -0.875014,-0.824232 -0.875014,-2.375039 0,-1.582057 0.875014,-2.375039 0.652355,-0.671886 1.88675,-0.671886 1.234395,0 1.88675,0.671886 0.871108,0.792982 0.871108,2.375039 z M 64.84158,40.998056 Z"/>
                                                <path  style="font-variation-settings:normal;stroke-linecap:butt;stroke-linejoin:miter;stroke-miterlimit:4;stroke-dasharray:none;stroke-dashoffset:0;stop-color:#000000;stop-opacity:1" stroke-width="0.165686" stroke="none" gorn="0.2.0.0.0.0.9.2.0.0.0.0.4" fill="#8b7749" id="path11735" fill-opacity="1" stroke-opacity="1" d="m 72.701085,41.17384 v 1.019548 H 70.9784 v 4.738359 H 69.767443 V 42.193388 H 68.036946 V 41.17384 Z"/>
                                                <path  style="font-variation-settings:normal;stroke-linecap:butt;stroke-linejoin:miter;stroke-miterlimit:4;stroke-dasharray:none;stroke-dashoffset:0;stop-color:#000000;stop-opacity:1" stroke-width="0.165686" stroke="none" gorn="0.2.0.0.0.0.9.2.0.0.0.0.5" fill="#8b7749" id="path11737" fill-opacity="1" stroke-opacity="1" d="M 74.505802,46.931747 H 73.31047 V 41.17384 h 1.195332 z m -0.597666,-5.87119 z"/>
                                                <path  style="font-variation-settings:normal;stroke-linecap:butt;stroke-linejoin:miter;stroke-miterlimit:4;stroke-dasharray:none;stroke-dashoffset:0;stop-color:#000000;stop-opacity:1" stroke-width="0.165686" stroke="none" gorn="0.2.0.0.0.0.9.2.0.0.0.0.6" fill="#8b7749" id="path11739" fill-opacity="1" stroke-opacity="1" d="m 75.376909,44.09967 q 0,-1.507838 0.808607,-2.324257 0.703137,-0.71095 1.789092,-0.71095 1.453149,0 2.125035,0.953141 0.3711,0.535165 0.398444,1.074237 h -1.203144 q -0.11719,-0.41407 -0.300787,-0.625011 -0.32813,-0.375006 -0.972672,-0.375006 -0.656261,0 -1.035173,0.531259 -0.378913,0.527352 -0.378913,1.496118 0,0.968766 0.398444,1.453149 0.402351,0.480477 1.019549,0.480477 0.632822,0 0.964859,-0.41407 0.183597,-0.222659 0.304693,-0.667979 h 1.191425 q -0.156252,0.941421 -0.800794,1.531275 -0.640635,0.589853 -1.644558,0.589853 -1.242208,0 -1.953157,-0.796888 -0.71095,-0.800794 -0.71095,-2.195348 z m 2.562543,-3.101614 z"/>
                                                <path  style="font-variation-settings:normal;stroke-linecap:butt;stroke-linejoin:miter;stroke-miterlimit:4;stroke-dasharray:none;stroke-dashoffset:0;stop-color:#000000;stop-opacity:1" stroke-width="0.165686" stroke="none" gorn="0.2.0.0.0.0.9.2.0.0.0.0.7" fill="#8b7749" id="path11741" fill-opacity="1" stroke-opacity="1" d="m 82.275461,45.154374 q 0.05469,0.394538 0.214847,0.589854 0.292974,0.355474 1.003923,0.355474 0.425788,0 0.691417,-0.09375 0.503915,-0.17969 0.503915,-0.66798 0,-0.285161 -0.250004,-0.441413 -0.250004,-0.152347 -0.785169,-0.269536 l -0.609385,-0.136721 q -0.898453,-0.203128 -1.242208,-0.441413 -0.582041,-0.398445 -0.582041,-1.246115 0,-0.77345 0.562509,-1.285177 0.562509,-0.511727 1.652371,-0.511727 0.910171,0 1.550807,0.484383 0.644542,0.480476 0.675792,1.39846 h -1.156269 q -0.03125,-0.51954 -0.453132,-0.738293 -0.281255,-0.144534 -0.699231,-0.144534 -0.464851,0 -0.742199,0.187503 -0.277349,0.187503 -0.277349,0.523446 0,0.308599 0.273442,0.460945 0.175785,0.101565 0.750013,0.238286 l 0.992204,0.238285 q 0.652354,0.156252 0.984391,0.417975 0.515633,0.406257 0.515633,1.175801 0,0.789075 -0.605478,1.312522 -0.601573,0.519539 -1.703153,0.519539 -1.125019,0 -1.769561,-0.511727 -0.644542,-0.515633 -0.644542,-1.414086 z m 1.167988,-4.156318 z"/>
                                            </g>
                                        </g>
                                    </g>
                                </g>
                            </g>
                            <g  transform="matrix(0,1.7122983,-1.7122983,0,80.49594,-71.932164)">
                                <g >
                                    <g >
                                        <g >
                                            <g  aria-label="550" style="font-weight:bold;line-height:1.25;font-family:Droid Sans;-inkscape-font-specification:'Droid Sans Bold';font-variation-settings:normal;letter-spacing:0px;word-spacing:0px;opacity:1;stroke-linecap:butt;stroke-linejoin:miter;stroke-miterlimit:4;stroke-dasharray:none;stroke-dashoffset:0;stop-color:#000000;stop-opacity:1" stroke-width="0.058402" stroke="none" gorn="0.2.0.0.0.0.9.3.0.0.0.0" fill="#8b7749" id="text23435" fill-opacity="1" stroke-opacity="1" font-size="6.40013">
                                                <path  style="font-variation-settings:normal;stroke-linecap:butt;stroke-linejoin:miter;stroke-miterlimit:4;stroke-dasharray:none;stroke-dashoffset:0;stop-color:#000000;stop-opacity:1" stroke-width="0.058402" stroke="none" gorn="0.2.0.0.0.0.9.3.0.0.0.0.0" fill="#8b7749" id="path24163" fill-opacity="1" stroke-opacity="1" d="m 43.684818,20.945902 q 0.06641,0.363289 0.253911,0.562511 0.187504,0.195317 0.546886,0.195317 0.414071,0 0.628919,-0.289069 0.218755,-0.292974 0.218755,-0.734389 0,-0.433603 -0.20313,-0.730484 -0.203129,-0.300787 -0.632825,-0.300787 -0.203129,0 -0.351569,0.05078 -0.261724,0.09375 -0.394539,0.347664 l -1.00002,-0.04688 0.398445,-3.128969 h 3.121156 v 0.945331 h -2.316452 l -0.203129,1.238306 q 0.257817,-0.167972 0.402351,-0.222661 0.242193,-0.08985 0.589856,-0.08985 0.703139,0 1.226587,0.472666 0.523448,0.472665 0.523448,1.375027 0,0.785172 -0.503916,1.402372 -0.503917,0.6172 -1.507843,0.6172 -0.80861,0 -1.328152,-0.433603 -0.519541,-0.433602 -0.578136,-1.230493 z"/>
                                                <path  style="font-variation-settings:normal;stroke-linecap:butt;stroke-linejoin:miter;stroke-miterlimit:4;stroke-dasharray:none;stroke-dashoffset:0;stop-color:#000000;stop-opacity:1" stroke-width="0.058402" stroke="none" gorn="0.2.0.0.0.0.9.3.0.0.0.0.1" fill="#8b7749" id="path24165" fill-opacity="1" stroke-opacity="1" d="m 48.134126,20.945902 q 0.06641,0.363289 0.253911,0.562511 0.187504,0.195317 0.546886,0.195317 0.414071,0 0.628919,-0.289069 0.218754,-0.292974 0.218754,-0.734389 0,-0.433603 -0.203129,-0.730484 -0.203129,-0.300787 -0.632825,-0.300787 -0.203129,0 -0.351569,0.05078 -0.261724,0.09375 -0.394539,0.347664 l -1.000021,-0.04688 0.398446,-3.128969 h 3.121156 v 0.945331 h -2.316452 l -0.203129,1.238306 q 0.257817,-0.167972 0.402351,-0.222661 0.242193,-0.08985 0.589856,-0.08985 0.703139,0 1.226587,0.472666 0.523448,0.472665 0.523448,1.375027 0,0.785172 -0.503916,1.402372 -0.503917,0.6172 -1.507843,0.6172 -0.80861,0 -1.328152,-0.433603 -0.519541,-0.433602 -0.578136,-1.230493 z"/>
                                                <path  style="font-variation-settings:normal;stroke-linecap:butt;stroke-linejoin:miter;stroke-miterlimit:4;stroke-dasharray:none;stroke-dashoffset:0;stop-color:#000000;stop-opacity:1" stroke-width="0.058402" stroke="none" gorn="0.2.0.0.0.0.9.3.0.0.0.0.2" fill="#8b7749" id="path24167" fill-opacity="1" stroke-opacity="1" d="m 52.649841,19.684158 q 0,0.976582 0.16016,1.496124 0.160159,0.515635 0.656263,0.515635 0.496104,0 0.648451,-0.515635 0.156253,-0.519542 0.156253,-1.496124 0,-1.023458 -0.156253,-1.515655 -0.152347,-0.492198 -0.648451,-0.492198 -0.496104,0 -0.656263,0.492198 -0.16016,0.492197 -0.16016,1.515655 z m 0.816423,-2.92584 q 1.082053,0 1.515655,0.761734 0.437509,0.761734 0.437509,2.164106 0,1.402372 -0.437509,2.1602 -0.433602,0.757827 -1.515655,0.757827 -1.082053,0 -1.519562,-0.757827 -0.433602,-0.757828 -0.433602,-2.1602 0,-1.402372 0.433602,-2.164106 0.437509,-0.761734 1.519562,-0.761734 z"/>
                                            </g>
                                        </g>
                                    </g>
                                </g>
                            </g>
                            <g  transform="matrix(0,0.61339928,-0.79483292,0,58.355597,5.6068199)">
                                <g >
                                    <g >
                                        <g >
                                            <g  aria-label="BRUSHLESSMOTOR" style="font-weight:bold;line-height:0.85;font-family:Droid Sans;-inkscape-font-specification:'Droid Sans Bold';font-variation-settings:normal;letter-spacing:0px;word-spacing:0px;opacity:1;stroke-linecap:butt;stroke-linejoin:miter;stroke-miterlimit:4;stroke-dasharray:none;stroke-dashoffset:0;stop-color:#000000;stop-opacity:1" stroke-width="0.143218" stroke="none" gorn="0.2.0.0.0.0.9.4.0.0.0.0" fill="#8b7749" id="text27828" fill-opacity="1" stroke-opacity="1" font-size="6.40013">
                                                <path  style="font-variation-settings:normal;stroke-linecap:butt;stroke-linejoin:miter;stroke-miterlimit:4;stroke-dasharray:none;stroke-dashoffset:0;stop-color:#000000;stop-opacity:1" stroke-width="0.143218" stroke="none" gorn="0.2.0.0.0.0.9.4.0.0.0.0.0" fill="#8b7749" id="path28608" fill-opacity="1" stroke-opacity="1" d="m 32.237438,9.2162448 v 1.2695562 h 1.41409 q 0.378914,0 0.613294,-0.140627 0.238286,-0.144535 0.238286,-0.507823 0,-0.4023518 -0.312506,-0.5312607 -0.269537,-0.089845 -0.687514,-0.089845 z m 0,2.2227012 v 1.535187 h 1.41409 q 0.378914,0 0.589856,-0.101565 0.38282,-0.187504 0.38282,-0.718764 0,-0.449228 -0.371101,-0.6172 -0.207035,-0.09375 -0.582043,-0.09766 z m 1.64847,-3.2227212 q 1.058615,0.015625 1.50003,0.6132935 0.26563,0.3671948 0.26563,0.8789238 0,0.5273539 -0.26563,0.8476729 -0.14844,0.179691 -0.437509,0.328132 0.441415,0.160159 0.664076,0.507823 0.226567,0.347663 0.226567,0.843767 0,0.511729 -0.257817,0.917987 -0.164066,0.269536 -0.410165,0.453134 -0.277349,0.210941 -0.656263,0.289068 -0.375008,0.07813 -0.816423,0.07813 H 31.088977 V 8.2162248 Z"/>
                                                <path  style="font-variation-settings:normal;stroke-linecap:butt;stroke-linejoin:miter;stroke-miterlimit:4;stroke-dasharray:none;stroke-dashoffset:0;stop-color:#000000;stop-opacity:1" stroke-width="0.143218" stroke="none" gorn="0.2.0.0.0.0.9.4.0.0.0.0.1" fill="#8b7749" id="path28610" fill-opacity="1" stroke-opacity="1" d="m 38.050054,9.2162448 v 1.5469062 h 1.363309 q 0.406258,0 0.609387,-0.09375 0.359382,-0.164066 0.359382,-0.648451 0,-0.5234476 -0.347663,-0.7031387 Q 39.839152,9.2162448 39.44852,9.2162448 Z m 1.648471,-1.00002 q 0.605481,0.011719 0.929706,0.1484404 0.328131,0.1367215 0.554698,0.4023518 0.187504,0.2187544 0.296881,0.4843847 0.109378,0.2656304 0.109378,0.6054809 0,0.4101644 -0.207036,0.8086104 -0.207035,0.394539 -0.683607,0.558604 0.398445,0.16016 0.562511,0.457041 0.167972,0.292975 0.167972,0.898455 v 0.386727 q 0,0.394539 0.03125,0.535167 0.04688,0.222661 0.218754,0.328131 v 0.144535 h -1.324245 q -0.05469,-0.191411 -0.07813,-0.3086 -0.04688,-0.242193 -0.05078,-0.496104 l -0.0078,-0.535167 q -0.0078,-0.550792 -0.203129,-0.73439 -0.19141,-0.183597 -0.72267,-0.183597 h -1.242213 v 2.257858 H 36.874249 V 8.2162248 Z"/>
                                                <path  style="font-variation-settings:normal;stroke-linecap:butt;stroke-linejoin:miter;stroke-miterlimit:4;stroke-dasharray:none;stroke-dashoffset:0;stop-color:#000000;stop-opacity:1" stroke-width="0.143218" stroke="none" gorn="0.2.0.0.0.0.9.4.0.0.0.0.2" fill="#8b7749" id="path28612" fill-opacity="1" stroke-opacity="1" d="m 42.624365,8.2162248 h 1.22268 v 3.5391332 q 0,0.593762 0.140628,0.867205 0.218755,0.484385 0.953144,0.484385 0.730484,0 0.949238,-0.484385 0.140628,-0.273443 0.140628,-0.867205 V 8.2162248 h 1.222681 v 3.5391332 q 0,0.917987 -0.285162,1.429716 -0.531261,0.937519 -2.027385,0.937519 -1.496123,0 -2.03129,-0.937519 -0.285162,-0.511729 -0.285162,-1.429716 z m 2.316452,0 z"/>
                                                <path  style="font-variation-settings:normal;stroke-linecap:butt;stroke-linejoin:miter;stroke-miterlimit:4;stroke-dasharray:none;stroke-dashoffset:0;stop-color:#000000;stop-opacity:1" stroke-width="0.143218" stroke="none" gorn="0.2.0.0.0.0.9.4.0.0.0.0.3" fill="#8b7749" id="path28614" fill-opacity="1" stroke-opacity="1" d="m 49.272935,12.196773 q 0.05469,0.394539 0.214848,0.589856 0.292975,0.355476 1.003926,0.355476 0.42579,0 0.691421,-0.09375 0.503916,-0.179691 0.503916,-0.667982 0,-0.285162 -0.250005,-0.441415 -0.250005,-0.152347 -0.785172,-0.269537 l -0.609387,-0.136722 q -0.898456,-0.203129 -1.242213,-0.441415 -0.582043,-0.398445 -0.582043,-1.2461184 0,-0.773453 0.562512,-1.285182 0.562511,-0.511729 1.652376,-0.511729 0.910175,0 1.550813,0.4843847 0.644544,0.4804784 0.675795,1.3984655 h -1.156274 q -0.03125,-0.5195416 -0.453134,-0.738296 -0.281255,-0.1445341 -0.699232,-0.1445341 -0.464853,0 -0.742203,0.1875037 -0.277349,0.1875038 -0.277349,0.523448 0,0.3085996 0.273443,0.4609466 0.175785,0.101565 0.750015,0.238286 l 0.992207,0.238286 q 0.652357,0.156253 0.984395,0.417977 0.515635,0.406258 0.515635,1.175805 0,0.789078 -0.605481,1.312526 -0.601574,0.519542 -1.703159,0.519542 -1.125022,0 -1.769566,-0.511729 -0.644545,-0.515635 -0.644545,-1.414091 z M 50.440927,8.04044 Z"/>
                                                <path  style="font-variation-settings:normal;stroke-linecap:butt;stroke-linejoin:miter;stroke-miterlimit:4;stroke-dasharray:none;stroke-dashoffset:0;stop-color:#000000;stop-opacity:1" stroke-width="0.143218" stroke="none" gorn="0.2.0.0.0.0.9.4.0.0.0.0.4" fill="#8b7749" id="path28616" fill-opacity="1" stroke-opacity="1" d="M 53.730055,13.974153 V 8.2162248 h 1.191431 v 2.1953562 h 2.250045 V 8.2162248 h 1.195336 v 5.7579282 h -1.195336 v -2.570364 h -2.250045 v 2.570364 z"/>
                                                <path  style="font-variation-settings:normal;stroke-linecap:butt;stroke-linejoin:miter;stroke-miterlimit:4;stroke-dasharray:none;stroke-dashoffset:0;stop-color:#000000;stop-opacity:1" stroke-width="0.143218" stroke="none" gorn="0.2.0.0.0.0.9.4.0.0.0.0.5" fill="#8b7749" id="path28618" fill-opacity="1" stroke-opacity="1" d="m 59.515328,8.2162248 h 1.203149 v 4.7227512 h 2.85162 v 1.035177 h -4.054769 z"/>
                                                <path  style="font-variation-settings:normal;stroke-linecap:butt;stroke-linejoin:miter;stroke-miterlimit:4;stroke-dasharray:none;stroke-dashoffset:0;stop-color:#000000;stop-opacity:1" stroke-width="0.143218" stroke="none" gorn="0.2.0.0.0.0.9.4.0.0.0.0.6" fill="#8b7749" id="path28620" fill-opacity="1" stroke-opacity="1" d="m 68.660042,9.2357764 h -3.046936 v 1.2226806 h 2.796931 v 1.00002 h -2.796931 v 1.480499 h 3.187564 v 1.035177 H 64.437301 V 8.2162248 h 4.222741 z"/>
                                                <path  style="font-variation-settings:normal;stroke-linecap:butt;stroke-linejoin:miter;stroke-miterlimit:4;stroke-dasharray:none;stroke-dashoffset:0;stop-color:#000000;stop-opacity:1" stroke-width="0.143218" stroke="none" gorn="0.2.0.0.0.0.9.4.0.0.0.0.7" fill="#8b7749" id="path28622" fill-opacity="1" stroke-opacity="1" d="m 70.6093,12.196773 q 0.05469,0.394539 0.214848,0.589856 0.292974,0.355476 1.003926,0.355476 0.42579,0 0.69142,-0.09375 0.503917,-0.179691 0.503917,-0.667982 0,-0.285162 -0.250005,-0.441415 -0.250005,-0.152347 -0.785172,-0.269537 l -0.609388,-0.136722 q -0.898455,-0.203129 -1.242212,-0.441415 -0.582043,-0.398445 -0.582043,-1.2461184 0,-0.773453 0.562511,-1.285182 0.562512,-0.511729 1.652377,-0.511729 0.910175,0 1.550813,0.4843847 0.644544,0.4804784 0.675794,1.3984655 h -1.156273 q -0.03125,-0.5195416 -0.453134,-0.738296 -0.281256,-0.1445341 -0.699233,-0.1445341 -0.464853,0 -0.742202,0.1875037 -0.277349,0.1875038 -0.277349,0.523448 0,0.3085996 0.273443,0.4609466 0.175784,0.101565 0.750015,0.238286 l 0.992207,0.238286 q 0.652357,0.156253 0.984395,0.417977 0.515635,0.406258 0.515635,1.175805 0,0.789078 -0.605481,1.312526 -0.601574,0.519542 -1.703159,0.519542 -1.125022,0 -1.769567,-0.511729 -0.644544,-0.515635 -0.644544,-1.414091 z M 71.777292,8.04044 Z"/>
                                                <path  style="font-variation-settings:normal;stroke-linecap:butt;stroke-linejoin:miter;stroke-miterlimit:4;stroke-dasharray:none;stroke-dashoffset:0;stop-color:#000000;stop-opacity:1" stroke-width="0.143218" stroke="none" gorn="0.2.0.0.0.0.9.4.0.0.0.0.8" fill="#8b7749" id="path28624" fill-opacity="1" stroke-opacity="1" d="m 75.945344,12.196773 q 0.05469,0.394539 0.214848,0.589856 0.292975,0.355476 1.003926,0.355476 0.42579,0 0.691421,-0.09375 0.503916,-0.179691 0.503916,-0.667982 0,-0.285162 -0.250005,-0.441415 -0.250005,-0.152347 -0.785172,-0.269537 l -0.609387,-0.136722 q -0.898456,-0.203129 -1.242213,-0.441415 -0.582043,-0.398445 -0.582043,-1.2461184 0,-0.773453 0.562512,-1.285182 0.562511,-0.511729 1.652377,-0.511729 0.910174,0 1.550812,0.4843847 0.644544,0.4804784 0.675795,1.3984655 h -1.156274 q -0.03125,-0.5195416 -0.453134,-0.738296 -0.281255,-0.1445341 -0.699232,-0.1445341 -0.464853,0 -0.742203,0.1875037 -0.277349,0.1875038 -0.277349,0.523448 0,0.3085996 0.273443,0.4609466 0.175785,0.101565 0.750015,0.238286 l 0.992207,0.238286 q 0.652357,0.156253 0.984395,0.417977 0.515635,0.406258 0.515635,1.175805 0,0.789078 -0.60548,1.312526 -0.601575,0.519542 -1.70316,0.519542 -1.125022,0 -1.769566,-0.511729 -0.644544,-0.515635 -0.644544,-1.414091 z M 77.113336,8.04044 Z"/>
                                                <path  style="font-variation-settings:normal;stroke-linecap:butt;stroke-linejoin:miter;stroke-miterlimit:4;stroke-dasharray:none;stroke-dashoffset:0;stop-color:#000000;stop-opacity:1" stroke-width="0.143218" stroke="none" gorn="0.2.0.0.0.0.9.4.0.0.0.0.9" fill="#8b7749" id="path28626" fill-opacity="1" stroke-opacity="1" d="m 34.885928,15.016361 h 1.730504 v 5.757928 H 35.495315 V 16.87968 q 0,-0.167972 0.0039,-0.46876 0.0039,-0.304693 0.0039,-0.468759 l -1.089866,4.832128 H 33.24527 l -1.082053,-4.832128 q 0,0.164066 0.0039,0.468759 0.0039,0.300788 0.0039,0.46876 v 3.894609 h -1.121116 v -5.757928 h 1.750035 l 1.046896,4.527435 z"/>
                                                <path  style="font-variation-settings:normal;stroke-linecap:butt;stroke-linejoin:miter;stroke-miterlimit:4;stroke-dasharray:none;stroke-dashoffset:0;stop-color:#000000;stop-opacity:1" stroke-width="0.143218" stroke="none" gorn="0.2.0.0.0.0.9.4.0.0.0.0.10" fill="#8b7749" id="path28628" fill-opacity="1" stroke-opacity="1" d="m 40.280567,19.914897 q 0.714859,0 1.132836,-0.527355 0.421883,-0.527354 0.421883,-1.50003 0,-0.968769 -0.421883,-1.496123 -0.417977,-0.531261 -1.132836,-0.531261 -0.714858,0 -1.140647,0.527354 -0.42579,0.527355 -0.42579,1.50003 0,0.972676 0.42579,1.50003 0.425789,0.527355 1.140647,0.527355 z m 2.757868,-2.027385 q 0,1.550813 -0.871111,2.375048 -0.652357,0.671888 -1.886757,0.671888 -1.234399,0 -1.886756,-0.671888 -0.875018,-0.824235 -0.875018,-2.375048 0,-1.582063 0.875018,-2.375047 0.652357,-0.671889 1.886756,-0.671889 1.2344,0 1.886757,0.671889 0.871111,0.792984 0.871111,2.375047 z m -2.757868,-3.046936 z"/>
                                                <path  style="font-variation-settings:normal;stroke-linecap:butt;stroke-linejoin:miter;stroke-miterlimit:4;stroke-dasharray:none;stroke-dashoffset:0;stop-color:#000000;stop-opacity:1" stroke-width="0.143218" stroke="none" gorn="0.2.0.0.0.0.9.4.0.0.0.0.11" fill="#8b7749" id="path28630" fill-opacity="1" stroke-opacity="1" d="m 48.140099,15.016361 v 1.019552 h -1.722691 v 4.738376 h -1.210961 v -4.738376 h -1.730504 v -1.019552 z"/>
                                                <path  style="font-variation-settings:normal;stroke-linecap:butt;stroke-linejoin:miter;stroke-miterlimit:4;stroke-dasharray:none;stroke-dashoffset:0;stop-color:#000000;stop-opacity:1" stroke-width="0.143218" stroke="none" gorn="0.2.0.0.0.0.9.4.0.0.0.0.12" fill="#8b7749" id="path28632" fill-opacity="1" stroke-opacity="1" d="m 51.249537,19.914897 q 0.714858,0 1.132835,-0.527355 0.421883,-0.527354 0.421883,-1.50003 0,-0.968769 -0.421883,-1.496123 -0.417977,-0.531261 -1.132835,-0.531261 -0.714858,0 -1.140648,0.527354 -0.42579,0.527355 -0.42579,1.50003 0,0.972676 0.42579,1.50003 0.42579,0.527355 1.140648,0.527355 z m 2.757868,-2.027385 q 0,1.550813 -0.871112,2.375048 -0.652356,0.671888 -1.886756,0.671888 -1.2344,0 -1.886757,-0.671888 -0.875017,-0.824235 -0.875017,-2.375048 0,-1.582063 0.875017,-2.375047 0.652357,-0.671889 1.886757,-0.671889 1.2344,0 1.886756,0.671889 0.871112,0.792984 0.871112,2.375047 z m -2.757868,-3.046936 z"/>
                                                <path  style="font-variation-settings:normal;stroke-linecap:butt;stroke-linejoin:miter;stroke-miterlimit:4;stroke-dasharray:none;stroke-dashoffset:0;stop-color:#000000;stop-opacity:1" stroke-width="0.143218" stroke="none" gorn="0.2.0.0.0.0.9.4.0.0.0.0.13" fill="#8b7749" id="path28634" fill-opacity="1" stroke-opacity="1" d="m 56.12854,16.016381 v 1.546906 h 1.363309 q 0.406258,0 0.609387,-0.09375 0.359382,-0.164066 0.359382,-0.64845 0,-0.523448 -0.347663,-0.703139 -0.195317,-0.101565 -0.585949,-0.101565 z m 1.648471,-1.00002 q 0.60548,0.01172 0.929706,0.148441 0.328131,0.136721 0.554698,0.402351 0.187504,0.218755 0.296881,0.484385 0.109377,0.26563 0.109377,0.605481 0,0.410164 -0.207035,0.80861 -0.207035,0.394539 -0.683607,0.558605 0.398445,0.160159 0.562511,0.45704 0.167972,0.292975 0.167972,0.898456 v 0.386726 q 0,0.394539 0.03125,0.535167 0.04688,0.222661 0.218754,0.328132 v 0.144534 h -1.324245 q -0.05469,-0.19141 -0.07813,-0.3086 -0.04688,-0.242192 -0.05078,-0.496104 l -0.0078,-0.535167 q -0.0078,-0.550792 -0.203129,-0.734389 -0.19141,-0.183598 -0.722671,-0.183598 H 56.12854 v 2.257858 h -1.175805 v -5.757928 z"/>
                                            </g>
                                        </g>
                                    </g>
                                </g>
                            </g>
                        </g>
                        <rect  style="stroke-linecap:round;stroke-dasharray:none;" x="68.395416" stroke-width="1.00001" ry="7.2001185" stroke="none" gorn="0.2.0.0.0.0.10" fill="#fefefe" id="rect18394" height="10.080166" fill-opacity="1" stroke-opacity="1" y="6.1387544" width="46.512871" rx="5.7600951"/>
                        <rect  style="stroke-linecap:round;stroke-dasharray:none;" x="68.395416" stroke-width="1.00001" ry="7.2001185" stroke="none" gorn="0.2.0.0.0.0.11" fill="#050505" id="rect21042" height="10.080166" fill-opacity="1" stroke-opacity="1" y="17.111141" width="46.512871" rx="5.7600951"/>
                        <rect  style="stroke-linecap:round;stroke-dasharray:none;" x="68.395416" stroke-width="1.00001" ry="7.2001185" stroke="none" gorn="0.2.0.0.0.0.12" fill="#e00000" id="rect21044" height="10.080166" fill-opacity="1" stroke-opacity="1" y="28.16691" width="46.512871" rx="5.7600951"/>
                        <rect  style="stroke-linecap:round;stroke-dasharray:none;" x="68.395416" stroke-width="1.00001" ry="7.2001185" stroke="none" gorn="0.2.0.0.0.0.13" fill="#262626" id="rect21046" height="10.080166" fill-opacity="1" stroke-opacity="1" y="39.13929" width="46.512871" rx="5.7600951"/>
                        <circle  style="stroke-linecap:round;stroke-dasharray:none;" stroke-width="1.00001" stroke="none" gorn="0.2.0.0.0.0.14" fill="#d78e00" id="connector0pin" cy="11.215032" fill-opacity="1" stroke-opacity="1" r="4.3679595" cx="73.152206"/>
                        <circle  style="stroke-linecap:round;stroke-dasharray:none;" stroke-width="1.00001" stroke="none" gorn="0.2.0.0.0.0.15" fill="#d78e00" id="connector1pin" cy="22.187418" fill-opacity="1" stroke-opacity="1" r="4.3679595" cx="73.152206"/>
                        <circle  style="stroke-linecap:round;stroke-dasharray:none;" stroke-width="1.00001" stroke="none" gorn="0.2.0.0.0.0.16" fill="#d78e00" id="connector2pin" cy="33.159805" fill-opacity="1" stroke-opacity="1" r="4.3679595" cx="73.152206"/>
                        <circle  style="stroke-linecap:round;stroke-dasharray:none;" stroke-width="1.00001" stroke="none" gorn="0.2.0.0.0.0.17" fill="#3a3a3a" id="circle21106" cy="44.256828" fill-opacity="1" stroke-opacity="1" r="4.3679595" cx="73.152206"/>
                        <circle  style="stroke-linecap:round;stroke-dasharray:none;" stroke-width="1.00001" stroke="none" gorn="0.2.0.0.0.0.18" fill="#d78e00" id="connector5pin" cy="47.185383" fill-opacity="1" stroke-opacity="1" r="1.0800178" cx="72.733589"/>
                        <circle  style="stroke-linecap:round;stroke-dasharray:none;" stroke-width="1.00001" stroke="none" gorn="0.2.0.0.0.0.19" fill="#d78e00" id="connector4pin" cy="44.811386" fill-opacity="1" stroke-opacity="1" r="1.0800178" cx="70.440498"/>
                        <circle  style="stroke-linecap:round;stroke-dasharray:none;" stroke-width="1.00001" stroke="none" gorn="0.2.0.0.0.0.20" fill="#d78e00" id="connector7pin" cy="42.056675" fill-opacity="1" stroke-opacity="1" r="1.0800178" cx="71.817871"/>
                        <circle  style="stroke-linecap:round;stroke-dasharray:none;" stroke-width="1.00001" stroke="none" gorn="0.2.0.0.0.0.21" fill="#d78e00" id="connector8pin" cy="42.474056" fill-opacity="1" stroke-opacity="1" r="1.0800178" cx="74.98996"/>
                        <circle  style="stroke-linecap:round;stroke-dasharray:none;" stroke-width="1.00001" stroke="none" gorn="0.2.0.0.0.0.22" fill="#d78e00" id="connector6pin" cy="45.646145" fill-opacity="1" stroke-opacity="1" r="1.0800178" cx="75.532562"/>
                        <circle  style="stroke-linecap:round;stroke-dasharray:none;" stroke-width="1.00001" stroke="none" gorn="0.2.0.0.0.0.23" fill="#d78e00" id="connector3pin" cy="44.519218" fill-opacity="1" stroke-opacity="1" r="1.0800178" cx="73.070015"/>
                        <path  style="opacity:1;stroke-linejoin:round;stroke-dasharray:none;stop-color:#000000" stroke-width="1.00002" stroke="#151515" gorn="0.2.0.0.0.0.24" fill="#404040" id="rect2574" fill-opacity="1" stroke-opacity="1" d="M -2.4599541,-2.8824087 20.458123,-21.719453 20.438786,77.245404 -2.3169555,58.590657 c -0.9671574,-1.058588 -1.1544781,-2.004052 -1.2019658,-2.960455 l 0.049123,-55.69743451 c -0.025878,-1.56732829 0.461714,-1.97348029 1.0098442,-2.81517619 z"/>
                        <ellipse  style="opacity:1;stroke-dasharray:none;stop-color:#000000" stroke-width="1.00001" ry="2.306402" stroke="none" gorn="0.2.0.0.0.0.25" fill="#2b2b2b" id="path2738" cy="-13.873295" fill-opacity="1" stroke-opacity="1" cx="109.90827" rx="3.4993684"/>
                        <ellipse  style="opacity:1;stroke-dasharray:none;stop-color:#000000" stroke-width="1.00001" ry="2.306402" stroke="none" gorn="0.2.0.0.0.0.26" fill="#2b2b2b" id="ellipse2896" cy="68.628021" fill-opacity="1" stroke-opacity="1" cx="109.90827" rx="3.4993684"/>
                        <path  style="font-variation-settings:normal;opacity:0.16;vector-effect:none;stroke-linecap:butt;stroke-linejoin:miter;stroke-miterlimit:4;stroke-dasharray:none;stroke-dashoffset:0;-inkscape-stop-color:#000000;stop-opacity:1" stroke-width="0.838477" stroke="none" gorn="0.2.0.0.0.0.27" fill="#ffffff" id="path36256" fill-opacity="1" stroke-opacity="1" d="M 19.131908,-15.090819 -2.1034128,0.05240158 V 7.192194 L 18.957847,-5.5141863 Z"/>
                    </g>
                </g>
            </g>
        </g>
    </g>
</svg>
