<?xml version='1.0' encoding='UTF-8' standalone='no'?>
<svg xmlns="http://www.w3.org/2000/svg" version="1.2" gorn="0" y="0px"  width="3.6805553in" height="2.3736234in" x="0px" viewBox="0 0 265 170.9037" id="svg15051">
    <desc >
        <referenceFile >REV_NEO_Motor_v11_breadboard.svg</referenceFile>
    </desc>
    <defs  id="defs15055"/>
    <g transform="translate(42.948332,57.672799)" >
        <g >
            <g gorn="0.2.0.0"  id="breadboard">
                <rect gorn="0.2.0.0.0" y="12.551" fill="#8c8c8c"  width="1" height="1" x="19.320999" id="connector0pin"/>
                <rect gorn="0.2.0.0.1" y="43.257" fill="#8c8c8c"  width="1" height="1" x="19.221001" id="connector1pin"/>
                <g gorn="0.2.0.0.2"  id="g14989">
                    <rect gorn="0.2.0.0.2.0" y="25.221001" fill="#878787"  width="12.975" height="4.5619998" x="107.157" id="rect14981"/>
                    <rect gorn="0.2.0.0.2.1" y="25.221001" fill="#2d2d2d"  width="0.45100001" height="4.5619998" x="107.157" id="rect14983"/>
                    <rect gorn="0.2.0.0.2.2" y="29.257999" opacity="0.35"  width="12.975" height="0.52200001" x="107.157" id="rect14985"/>
                    <path gorn="0.2.0.0.2.3" d="m 119.835,26.478 c 0,0.255 -0.275,0.461 -0.617,0.461 H 106.78 c -0.34,0 -0.617,-0.188 -0.617,-0.443 v -0.369 c 0,-0.256 0.277,-0.479 0.617,-0.479 h 12.438 c 0.342,0 0.617,0.207 0.617,0.461 z" opacity="0.35" fill="#ffffff"  id="path14987"/>
                </g>
                <g gorn="0.2.0.0.3"  id="g14993">
                    <path gorn="0.2.0.0.3.0" d="m 106.687,7.465 c 0,-1.561 -1.275,-2.834 -2.834,-2.834 h -0.031 c -1.561,0 -2.836,-0.93 -2.836,-2.062 0,-1.132 -1.273,-2.061 -2.834,-2.061 H 28.507 v 54.701 h 69.645 c 1.561,0 2.834,-0.93 2.834,-2.062 0,-1.132 1.275,-2.061 2.836,-2.061 h 0.031 c 1.559,0 2.834,-1.275 2.834,-2.836 z" fill="#6d6d6d" stroke="#6d6d6d"  stroke-width="1" id="path14991"/>
                </g>
                <path gorn="0.2.0.0.4" d="m 104.28,47.815 h -0.029 c -1.551,0 -3.102,0.606 -3.102,1.346 0,0.738 -0.982,1.346 -2.531,1.346 H 34.22 v 4.453 h 63.833 c 1.547,0 2.812,-0.926 2.812,-2.055 0,-1.129 1.27,-2.055 2.816,-2.055 h 0.031 c 1.549,0 2.814,-1.271 2.814,-2.824 v -2.061 c 0.004,1.018 -0.697,1.85 -2.246,1.85 z" opacity="0.35"  id="path14995"/>
                <rect gorn="0.2.0.0.5" y="26.34" fill="#878787"  width="0.94" height="3.0409999" x="23.905001" id="rect14997"/>
                <rect gorn="0.2.0.0.6" y="25.069" fill="#e5e500"  width="10.242" height="5.5840001" x="27.642" id="rect14999"/>
                <g gorn="0.2.0.0.7"  id="g15005">
                    <rect gorn="0.2.0.0.7.0" y="18.865999" fill="#e5e500"  width="2.7950001" height="17.988001" x="24.847" id="rect15001"/>
                    <polygon gorn="0.2.0.0.7.1" fill="#f3ff00"  points="37.884,26 37.884,29.719 27.642,29.719 27.642,55.721 35.158,55.721 35.158,30.653 37.884,30.653 37.884,25.069 35.158,25.069 35.158,0 27.642,0 27.642,26 " id="polygon15003"/>
                </g>
                <path gorn="0.2.0.0.8" d="m 101.724,28.065 c 0,13.27 -0.758,24.021 -0.758,24.021 V 4.047 c 0,0 0.758,10.756 0.758,24.018 z" opacity="0.5" fill="#686868"  id="path15007"/>
                <path gorn="0.2.0.0.9" d="m 99.819,17.839 c 0,1.417 -1.425,2.564 -3.181,2.564 H 41.119 c -1.757,0 -3.181,-1.049 -3.181,-2.467 V 5.144 c 0,-1.418 1.424,-2.668 3.181,-2.668 h 55.519 c 1.756,0 3.181,1.15 3.181,2.568 z" opacity="0.16" fill="#ffffff"  id="path15009"/>
                <g gorn="0.2.0.0.10" opacity="0.16"  id="g15013">
                    <path gorn="0.2.0.0.10.0" d="m 105.595,18.178 c 0,0.78 -0.639,1.417 -1.417,1.417 h -0.352 c -0.777,0 -1.417,-0.638 -1.417,-1.417 V 7.685 c 0,-0.78 0.64,-1.417 1.417,-1.417 h 0.352 c 0.778,0 1.417,0.638 1.417,1.417 z" fill="#ffffff"  id="path15011"/>
                </g>
                <g gorn="0.2.0.0.11"  id="g15019">
                    <path gorn="0.2.0.0.11.0" d="m 92.049,24.66 c -1.034,0 -1.876,-0.841 -1.876,-1.875 v -8.422 c 0,-1.035 0.842,-1.877 1.876,-1.877 1.034,0 1.876,0.842 1.876,1.877 v 8.422 c 0,1.033 -0.842,1.875 -1.876,1.875 z"  id="path15015"/>
                    <path gorn="0.2.0.0.11.1" d="m 92.049,12.986 c 0.759,0 1.376,0.618 1.376,1.377 v 8.422 c 0,0.76 -0.617,1.375 -1.376,1.375 -0.759,0 -1.376,-0.615 -1.376,-1.375 v -8.422 c 0,-0.76 0.617,-1.377 1.376,-1.377 m 0,-1 c -1.312,0 -2.376,1.064 -2.376,2.377 v 8.422 c 0,1.312 1.062,2.375 2.376,2.375 1.312,0 2.376,-1.062 2.376,-2.375 v -8.422 c 0,-1.313 -1.064,-2.377 -2.376,-2.377 z" fill="#6b6b6b"  id="path15017"/>
                </g>
                <g gorn="0.2.0.0.12"  id="g15025">
                    <path gorn="0.2.0.0.12.0" d="m 92.049,43.234 c -1.034,0 -1.876,-0.842 -1.876,-1.876 v -8.421 c 0,-1.035 0.842,-1.877 1.876,-1.877 1.034,0 1.876,0.842 1.876,1.877 v 8.421 c 0,1.034 -0.842,1.876 -1.876,1.876 z"  id="path15021"/>
                    <path gorn="0.2.0.0.12.1" d="m 92.049,31.56 c 0.759,0 1.376,0.618 1.376,1.377 v 8.421 c 0,0.759 -0.617,1.376 -1.376,1.376 -0.759,0 -1.376,-0.617 -1.376,-1.376 v -8.421 c 0,-0.759 0.617,-1.377 1.376,-1.377 m 0,-1 c -1.312,0 -2.376,1.064 -2.376,2.377 v 8.421 c 0,1.312 1.062,2.376 2.376,2.376 1.312,0 2.376,-1.062 2.376,-2.376 v -8.421 c 0,-1.312 -1.064,-2.377 -2.376,-2.377 z" fill="#6b6b6b"  id="path15023"/>
                </g>
                <g gorn="0.2.0.0.13"  id="g15031">
                    <path gorn="0.2.0.0.13.0" d="m 92.049,6.086 c -1.034,0 -1.876,-0.843 -1.876,-1.875 V 0.5 h 3.752 v 3.711 c 0,1.034 -0.842,1.875 -1.876,1.875 z"  id="path15027"/>
                    <path gorn="0.2.0.0.13.1" d="m 93.425,1 v 3.211 c 0,0.758 -0.617,1.375 -1.376,1.375 -0.759,0 -1.376,-0.617 -1.376,-1.375 V 1 h 2.752 m 1,-1 h -4.752 v 4.211 c 0,1.312 1.062,2.375 2.376,2.375 1.312,0 2.376,-1.063 2.376,-2.375 z" fill="#6b6b6b"  id="path15029"/>
                </g>
                <g gorn="0.2.0.0.14"  id="g15037">
                    <path gorn="0.2.0.0.14.0" d="M 90.173,55.221 V 51.51 c 0,-1.035 0.842,-1.877 1.876,-1.877 1.034,0 1.876,0.842 1.876,1.877 v 3.711 z"  id="path15033"/>
                    <path gorn="0.2.0.0.14.1" d="m 92.049,50.133 c 0.759,0 1.376,0.618 1.376,1.377 v 3.211 H 90.673 V 51.51 c 0,-0.759 0.617,-1.377 1.376,-1.377 m 0,-1 c -1.312,0 -2.376,1.062 -2.376,2.377 v 4.211 h 4.752 V 51.51 c 0,-1.312 -1.064,-2.377 -2.376,-2.377 z" fill="#6b6b6b"  id="path15035"/>
                </g>
                <g gorn="0.2.0.0.15"  id="wires">
                    <path gorn="0.2.0.0.15.0" d="m 19.884,10.438 -0.5,0.548 v 3 l 0.559,0.548 h 7.699 v -4.097 z m 1.559,3.398 c -0.746,0 -1.35,-0.604 -1.35,-1.35 0,-0.746 0.604,-1.35 1.35,-1.35 0.746,0 1.35,0.604 1.35,1.35 0,0.746 -0.604,1.35 -1.35,1.35 z" fill="#ed8f66"  id="path15039"/>
                    <path gorn="0.2.0.0.15.1" d="m 19.884,41.208 -0.5,0.549 v 3 l 0.559,0.548 h 7.699 v -4.097 z m 1.559,3.399 c -0.746,0 -1.35,-0.604 -1.35,-1.35 0,-0.746 0.604,-1.35 1.35,-1.35 0.746,0 1.35,0.604 1.35,1.35 0,0.746 -0.604,1.35 -1.35,1.35 z" fill="#ed8f66"  id="path15041"/>
                    <line y2="24.573" x1="0" x2="2" gorn="0.2.0.0.15.2" fill="none" stroke="#32bf4f" stroke-linecap="round" y1="25.573"  id="connector0leg" stroke-width="3"/>
                    <line y2="33.056999" x1="0" x2="2" gorn="0.2.0.0.15.3" fill="none" stroke="#ffd500" stroke-linecap="round" y1="33.056999"  id="connector1leg" stroke-width="3"/>
                    <path gorn="0.2.0.0.15.4" d="M 2,24.573 C 7.5,21.227 9.094,12.551 19.321,12.551" fill="none" stroke="#32bf4f"  stroke-width="3" id="path15045"/>
                    <path gorn="0.2.0.0.15.5" d="m 2,33.057 c 7.512,0.34 11.557,10.2 17.221,10.2" fill="none" stroke="#ffd500"  stroke-width="3" id="path15047"/>
                </g>
                <rect style="stroke-linecap:round;stroke-dasharray:none;" gorn="0.2.0.0.16" rx="1.4166356" y="16.528549" fill-opacity="1" stroke-opacity="1" fill="#a8a8a8" ry="1.4400238" stroke="#000000"  width="90.401489" height="22.000362" x="131.15317" id="rect15895" stroke-width="1.00001"/>
                <rect style="stroke-linecap:round;stroke-dasharray:none;" gorn="0.2.0.0.17" rx="1.4166356" y="0.62687469" fill-opacity="1" stroke-opacity="1" fill="#515151" ry="1.4400238" stroke="#000000"  width="14.638568" height="54.304363" x="118.92609" id="rect15893" stroke-width="1.00002"/>
                <path style="stroke-linecap:butt;stroke-linejoin:miter;stroke-dasharray:none;" gorn="0.2.0.0.18" d="m -42.449641,-53.172601 c 0.03962,-0.98147 0.747244,-1.23924 1.40002,-1.300035 l 162.302651,-2.700045 c 0.5406,0.014 1.37238,0.24644 1.40002,1.15002 V 111.33009 c -0.0277,1.01919 -0.74124,1.42091 -1.40002,1.40002 l -162.302651,-2.80004 c -0.523793,-0.006 -1.407382,-0.39216 -1.400023,-1.40002 z" fill-opacity="1" stroke-opacity="1" fill="#515151" stroke="#000000"  id="path15839" stroke-width="1.00002"/>
                <rect style="stroke-linecap:round;stroke-dasharray:none;" gorn="0.2.0.0.19" rx="2.8800476" y="24.928688" fill-opacity="1" stroke-opacity="1" fill="#8b8b8b" ry="2.8800476" stroke="#000000"  width="67.55117" height="5.5500908" x="139.95413" id="rect15897" stroke-width="1.00001"/>
                <path style="stroke-linecap:butt;stroke-linejoin:miter;" gorn="0.2.0.0.20" d="m -40.430077,-40.788681 160.872687,-2.167834 -0.16695,20.542742 -160.377097,2.214609 z" fill-opacity="1" stroke-opacity="1" fill="#8e8e8e" stroke="none"  id="path15899" stroke-width="0.60001"/>
                <path style="stroke-linecap:butt;stroke-linejoin:miter;" gorn="0.2.0.0.21" d="m -40.430077,-16.788283 160.872687,-2.167834 -0.16695,7.042519 -160.377097,2.2146089 z" fill-opacity="1" stroke-opacity="1" fill="#8e8e8e" stroke="none"  id="path15901" stroke-width="0.60001"/>
                <rect style="stroke-linecap:round;stroke-dasharray:none;" gorn="0.2.0.0.22" rx="0.72001189" y="18.180157" fill-opacity="1" stroke-opacity="1" fill="#d0d0d0" ry="0.72001189" stroke="none"  width="84.289818" height="2.1600356" x="135.99603" id="rect16002" stroke-width="1.00001"/>
                <rect style="stroke-linecap:round;stroke-dasharray:none;" gorn="0.2.0.0.23" rx="5.7600951" y="2.8332713" fill-opacity="1" stroke-opacity="1" fill="#383838" ry="7.2001185" stroke="none"  width="14.400237" height="50.400829" x="101.63606" id="rect16472" stroke-width="1.00001"/>
                <rect style="stroke-linecap:round;stroke-dasharray:none;" gorn="0.2.0.0.24" rx="5.7600951" y="6.1387544" fill-opacity="1" stroke-opacity="1" fill="#fefefe" ry="7.2001185" stroke="none"  width="46.512871" height="10.080166" x="67.372589" id="rect18394" stroke-width="1.00001"/>
                <rect style="stroke-linecap:round;stroke-dasharray:none;" gorn="0.2.0.0.25" rx="5.7600951" y="17.111141" fill-opacity="1" stroke-opacity="1" fill="#050505" ry="7.2001185" stroke="none"  width="46.512871" height="10.080166" x="67.372589" id="rect21042" stroke-width="1.00001"/>
                <rect style="stroke-linecap:round;stroke-dasharray:none;" gorn="0.2.0.0.26" rx="5.7600951" y="28.16691" fill-opacity="1" stroke-opacity="1" fill="#e00000" ry="7.2001185" stroke="none"  width="46.512871" height="10.080166" x="67.372589" id="rect21044" stroke-width="1.00001"/>
                <rect style="stroke-linecap:round;stroke-dasharray:none;" gorn="0.2.0.0.27" rx="5.7600951" y="39.13929" fill-opacity="1" stroke-opacity="1" fill="#262626" ry="7.2001185" stroke="none"  width="46.512871" height="10.080166" x="67.372589" id="rect21046" stroke-width="1.00001"/>
                <circle style="stroke-linecap:round;stroke-dasharray:none;" cy="11.215032" gorn="0.2.0.0.28" fill-opacity="1" stroke-opacity="1" fill="#d78e00" cx="72.129379" r="4.3679595" stroke="none"  id="path21100" stroke-width="1.00001"/>
                <circle style="stroke-linecap:round;stroke-dasharray:none;" cy="22.187418" gorn="0.2.0.0.29" fill-opacity="1" stroke-opacity="1" fill="#d78e00" cx="72.129379" r="4.3679595" stroke="none"  id="circle21102" stroke-width="1.00001"/>
                <circle style="stroke-linecap:round;stroke-dasharray:none;" cy="33.159805" gorn="0.2.0.0.30" fill-opacity="1" stroke-opacity="1" fill="#d78e00" cx="72.129379" r="4.3679595" stroke="none"  id="circle21104" stroke-width="1.00001"/>
                <circle style="stroke-linecap:round;stroke-dasharray:none;" cy="44.256828" gorn="0.2.0.0.31" fill-opacity="1" stroke-opacity="1" fill="#3a3a3a" cx="72.129379" r="4.3679595" stroke="none"  id="circle21106" stroke-width="1.00001"/>
                <circle style="stroke-linecap:round;stroke-dasharray:none;" cy="47.185383" gorn="0.2.0.0.32" fill-opacity="1" stroke-opacity="1" fill="#d78e00" cx="71.710762" r="1.0800178" stroke="none"  id="path21160" stroke-width="1.00001"/>
                <circle style="stroke-linecap:round;stroke-dasharray:none;" cy="44.811386" gorn="0.2.0.0.33" fill-opacity="1" stroke-opacity="1" fill="#d78e00" cx="69.417671" r="1.0800178" stroke="none"  id="circle21559" stroke-width="1.00001"/>
                <circle style="stroke-linecap:round;stroke-dasharray:none;" cy="42.056675" gorn="0.2.0.0.34" fill-opacity="1" stroke-opacity="1" fill="#d78e00" cx="70.795044" r="1.0800178" stroke="none"  id="circle21561" stroke-width="1.00001"/>
                <circle style="stroke-linecap:round;stroke-dasharray:none;" cy="42.474056" gorn="0.2.0.0.35" fill-opacity="1" stroke-opacity="1" fill="#d78e00" cx="73.967133" r="1.0800178" stroke="none"  id="circle21563" stroke-width="1.00001"/>
                <circle style="stroke-linecap:round;stroke-dasharray:none;" cy="45.646145" gorn="0.2.0.0.36" fill-opacity="1" stroke-opacity="1" fill="#d78e00" cx="74.509735" r="1.0800178" stroke="none"  id="circle21565" stroke-width="1.00001"/>
                <circle style="stroke-linecap:round;stroke-dasharray:none;" cy="44.519218" gorn="0.2.0.0.37" fill-opacity="1" stroke-opacity="1" fill="#d78e00" cx="72.047188" r="1.0800178" stroke="none"  id="circle21567" stroke-width="1.00001"/>
            </g>
        </g>
    </g>
</svg>
