<?xml version='1.0' encoding='UTF-8' standalone='no'?>
<svg xmlns="http://www.w3.org/2000/svg"  gorn="0" version="1.2" xmlns:xml="http://www.w3.org/XML/1998/namespace" id="svg40449" height="0.92583638in" viewBox="0 0 1494.4436 925.83637" xml:space="preserve" width="1.4944437in">
    <desc >
        <referenceFile >app_sb50_breadbard.svg</referenceFile>
    </desc>
    <defs  id="defs40453"/>
    <g  transform="translate(487.96236,370.46908)">
        <g >
            <g  gorn="0.2.0.0" id="breadboard">
                <rect  style="font-variation-settings:normal;stroke-linecap:butt;stroke-linejoin:miter;stroke-miterlimit:4;stroke-dasharray:none;stroke-dashoffset:0;stop-color:#000000" x="676.01782" stroke-width="13.8889" ry="0" stroke="#000000" gorn="0.2.0.0.0" fill="#6c1212" id="rect42057" height="208.2774" fill-opacity="1" stroke-opacity="1" y="258.78821" width="313.7164"/>
                <rect  style="font-variation-settings:normal;stroke-linecap:butt;stroke-linejoin:miter;stroke-miterlimit:4;stroke-dasharray:none;stroke-dashoffset:0;stop-color:#000000" x="676.01782" stroke-width="13.8889" ry="0" stroke="#000000" gorn="0.2.0.0.1" fill="#292929" id="rect41743" height="208.2774" fill-opacity="1" stroke-opacity="1" y="-282.87842" width="313.7164"/>
                <rect  style="font-variation-settings:normal;stroke-linecap:butt;stroke-linejoin:miter;stroke-miterlimit:4;stroke-dasharray:none;stroke-dashoffset:0;stop-color:#000000" x="-481.01791" stroke-width="13.8889" ry="21.515224" stroke="#000000" gorn="0.2.0.0.2" fill="#8e0f0f" id="rect41011" height="882.42798" fill-opacity="1" stroke-opacity="1" y="-347.62244" width="1195.1201"/>
                <path  style="stop-color:#000000" stroke-width="6.94444" stroke="#000000" gorn="0.2.0.0.3" fill="#820d0d" id="rect41015" d="m -74.022339,-7.3791249 h 63.44029 L 5.0686905,-21.505005 H 141.45367 l 22.35819,14.1258801 H 479.06239 L 492.4773,-21.505005 h 140.8566 l 17.8866,14.1258801 h 57.3527 V 194.58099 h -57.3527 l -20.1224,14.12588 H 490.24148 L 476.82657,194.58099 H 170.51932 l -20.12237,14.12588 H 7.3045105 l -15.65074,-14.12588 H -74.022339 Z"/>
                <rect  style="font-variation-settings:normal;stroke-linecap:butt;stroke-linejoin:miter;stroke-miterlimit:4;stroke-dasharray:none;stroke-dashoffset:0;stop-color:#000000" x="-481.01791" stroke-width="13.8889" ry="21.515224" stroke="#000000" gorn="0.2.0.0.4" fill="#941010" id="rect41348" height="882.42798" fill-opacity="1" stroke-opacity="1" y="-347.62244" width="420.29239"/>
                <path  style="stop-color:#000000" stroke-width="6.94445" stroke="#000000" gorn="0.2.0.0.5" fill="#941010" id="rect41402" d="m 139.20611,350.99062 c 11.29617,0 17.5129,50.76348 17.76334,62.05687 l 2.62687,118.45739 c 0.25044,11.29339 -9.09404,20.3902 -20.39021,20.3902 -11.29617,0 -20.64064,-9.09681 -20.3902,-20.3902 l 2.62687,-118.45739 c 0.25044,-11.29339 6.46716,-62.05687 17.76333,-62.05687 z"/>
                <path  style="stop-color:#000000" stroke-width="6.94445" stroke="#000000" gorn="0.2.0.0.6" fill="#941010" id="path41405" d="m 303.63693,350.99062 c 11.29617,0 17.5129,50.76348 17.76334,62.05687 l 2.62687,118.45739 c 0.25044,11.29339 -9.09404,20.3902 -20.39021,20.3902 -11.29617,0 -20.64064,-9.09681 -20.3902,-20.3902 l 2.62687,-118.45739 c 0.25044,-11.29339 6.46716,-62.05687 17.76333,-62.05687 z"/>
                <path  style="stop-color:#000000" stroke-width="6.94445" stroke="#000000" gorn="0.2.0.0.7" fill="#941010" id="path41407" d="m 468.06775,350.99062 c 11.29617,0 17.5129,50.76348 17.76334,62.05687 l 2.62687,118.45739 c 0.25044,11.29339 -9.09404,20.3902 -20.39021,20.3902 -11.29617,0 -20.64064,-9.09681 -20.3902,-20.3902 l 2.62687,-118.45739 c 0.25044,-11.29339 6.46716,-62.05687 17.76333,-62.05687 z"/>
                <path  style="stop-color:#000000" stroke-width="6.94445" stroke="#000000" gorn="0.2.0.0.8" fill="#941010" id="path41409" d="m 630.2628,350.99062 c 11.2962,0 17.5129,50.76348 17.7633,62.05687 l 2.6269,118.45739 c 0.2505,11.29339 -9.094,20.3902 -20.3902,20.3902 -11.29616,0 -20.64069,-9.09681 -20.39025,-20.3902 l 2.62687,-118.45739 c 0.25044,-11.29339 6.46722,-62.05687 17.76338,-62.05687 z"/>
                <circle  style="font-variation-settings:normal;stroke-linecap:butt;stroke-linejoin:miter;stroke-miterlimit:4;stroke-dasharray:none;stroke-dashoffset:0;stop-color:#000000" stroke-width="6.94445" stroke="#000000" gorn="0.2.0.0.9" fill="#2d0505" id="circle41465" cy="93.438446" fill-opacity="1" stroke-opacity="1" r="51.423851" cx="83.322426"/>
                <circle  style="font-variation-settings:normal;stroke-linecap:butt;stroke-linejoin:miter;stroke-miterlimit:4;stroke-dasharray:none;stroke-dashoffset:0;stop-color:#000000" stroke-width="6.94445" stroke="#000000" gorn="0.2.0.0.10" fill="#2d0505" id="circle41467" cy="93.438446" fill-opacity="1" stroke-opacity="1" r="51.423851" cx="562.48865"/>
                <path  style="stop-color:#000000" stroke-width="6.94445" stroke="#000000" gorn="0.2.0.0.11" fill="#941010" id="path41521" d="m 139.20611,-166.0924 c 11.29617,0 17.5129,-50.76348 17.76334,-62.05687 l 2.62687,-118.45739 c 0.25044,-11.29339 -9.09404,-20.3902 -20.39021,-20.3902 -11.29617,0 -20.64064,9.09681 -20.3902,20.3902 l 2.62687,118.45739 c 0.25044,11.29339 6.46716,62.05687 17.76333,62.05687 z"/>
                <path  style="stop-color:#000000" stroke-width="6.94445" stroke="#000000" gorn="0.2.0.0.12" fill="#941010" id="path41523" d="m 303.63693,-166.0924 c 11.29617,0 17.5129,-50.76348 17.76334,-62.05687 l 2.62687,-118.45739 c 0.25044,-11.29339 -9.09404,-20.3902 -20.39021,-20.3902 -11.29617,0 -20.64064,9.09681 -20.3902,20.3902 l 2.62687,118.45739 c 0.25044,11.29339 6.46716,62.05687 17.76333,62.05687 z"/>
                <path  style="stop-color:#000000" stroke-width="6.94445" stroke="#000000" gorn="0.2.0.0.13" fill="#941010" id="path41525" d="m 468.06775,-166.0924 c 11.29617,0 17.5129,-50.76348 17.76334,-62.05687 l 2.62687,-118.45739 c 0.25044,-11.29339 -9.09404,-20.3902 -20.39021,-20.3902 -11.29617,0 -20.64064,9.09681 -20.3902,20.3902 l 2.62687,118.45739 c 0.25044,11.29339 6.46716,62.05687 17.76333,62.05687 z"/>
                <path  style="stop-color:#000000" stroke-width="6.94445" stroke="#000000" gorn="0.2.0.0.14" fill="#941010" id="path41527" d="m 630.2628,-166.0924 c 11.2962,0 17.5129,-50.76348 17.7633,-62.05687 l 2.6269,-118.45739 c 0.2505,-11.29339 -9.094,-20.3902 -20.3902,-20.3902 -11.29616,0 -20.64069,9.09681 -20.39025,20.3902 l 2.62687,118.45739 c 0.25044,11.29339 6.46722,62.05687 17.76338,62.05687 z"/>
                <g  transform="rotate(90,591.16769,179.49517)">
                    <g >
                        <g  gorn="0.2.0.0.15.0.0" id="g41670">
                            <path  style="opacity:1;stroke-linecap:butt;stroke-linejoin:miter;stroke-miterlimit:4;stroke-dasharray:none;stroke-dashoffset:0;stop-color:#000000;stop-opacity:1" stroke-width="7.66345" stroke="none" gorn="0.2.0.0.15.0.0.0" fill="#fc3434" id="rect41592" fill-opacity="1" stroke-opacity="1" d="m 751.2243,310.05649 c -8.13868,0 -14.68328,6.5446 -14.68328,14.68328 v 34.66512 h -34.66511 c -8.13868,0 -14.68329,6.5446 -14.68329,14.68327 v 12.57285 c 0,8.13867 6.54461,14.68328 14.68329,14.68328 h 34.66511 v 34.64266 c 0,8.13868 6.5446,14.70574 14.68328,14.70574 h 12.57284 c 8.13868,0 14.68329,-6.56706 14.68329,-14.70574 v -34.64266 h 34.66512 c 8.13867,0 14.68328,-6.54461 14.68328,-14.68328 v -12.57285 c 0,-8.13867 -6.54461,-14.68327 -14.68328,-14.68327 h -34.66512 v -34.66512 c 0,-8.13868 -6.54461,-14.68328 -14.68329,-14.68328 z"/>
                            <path  style="opacity:1;stroke-linecap:butt;stroke-linejoin:miter;stroke-miterlimit:4;stroke-dasharray:none;stroke-dashoffset:0;stop-color:#000000;stop-opacity:1" stroke-width="7.66345" stroke="none" gorn="0.2.0.0.15.0.0.1" fill="#5f0b0b" id="path41597" fill-opacity="1" stroke-opacity="1" d="m 759.02244,317.85463 c -8.13868,0 -14.68328,6.5446 -14.68328,14.68328 v 34.66512 h -34.66511 c -8.13868,0 -14.68329,6.5446 -14.68329,14.68327 v 12.57285 c 0,8.13867 6.54461,14.68328 14.68329,14.68328 h 34.66511 v 34.64266 c 0,8.13868 6.5446,14.70574 14.68328,14.70574 h 12.57284 c 8.13868,0 14.68329,-6.56706 14.68329,-14.70574 v -34.64266 h 34.66512 c 8.13867,0 14.68328,-6.54461 14.68328,-14.68328 V 381.8863 c 0,-8.13867 -6.54461,-14.68327 -14.68328,-14.68327 h -34.66512 v -34.66512 c 0,-8.13868 -6.54461,-14.68328 -14.68329,-14.68328 z"/>
                            <path  style="opacity:1;stroke-linecap:butt;stroke-linejoin:miter;stroke-miterlimit:4;stroke-dasharray:none;stroke-dashoffset:0;stop-color:#000000;stop-opacity:1" stroke-width="7.66345" stroke="none" gorn="0.2.0.0.15.0.0.2" fill="#a21212" id="path41599" fill-opacity="1" stroke-opacity="1" d="m 755.12337,315.25525 c -8.13868,0 -14.68328,6.5446 -14.68328,14.68328 v 34.66512 h -34.66511 c -8.13868,0 -14.68329,6.5446 -14.68329,14.68327 v 12.57285 c 0,8.13867 6.54461,14.68328 14.68329,14.68328 h 34.66511 v 34.64266 c 0,8.13868 6.5446,14.70574 14.68328,14.70574 h 12.57284 c 8.13868,0 14.68329,-6.56706 14.68329,-14.70574 v -34.64266 h 34.66512 c 8.13867,0 14.68328,-6.54461 14.68328,-14.68328 v -12.57285 c 0,-8.13867 -6.54461,-14.68327 -14.68328,-14.68327 H 782.3795 v -34.66512 c 0,-8.13868 -6.54461,-14.68328 -14.68329,-14.68328 z"/>
                        </g>
                    </g>
                </g>
                <g  transform="rotate(90,729.91801,-208.77978)">
                    <g >
                        <g  gorn="0.2.0.0.16.0.0" id="g41665">
                            <rect  style="font-variation-settings:normal;opacity:1;vector-effect:none;stroke-linecap:butt;stroke-linejoin:miter;stroke-miterlimit:4;stroke-dasharray:none;stroke-dashoffset:0;-inkscape-stop-color:#000000;stop-opacity:1" x="688.49298" stroke-width="7.66345" ry="14.690767" stroke="none" gorn="0.2.0.0.16.0.0.0" fill="#fc3434" id="rect41590" height="41.944229" fill-opacity="1" stroke-opacity="1" y="108.53905" width="140.63654"/>
                            <rect  style="font-variation-settings:normal;opacity:1;vector-effect:none;stroke-linecap:butt;stroke-linejoin:miter;stroke-miterlimit:4;stroke-dasharray:none;stroke-dashoffset:0;-inkscape-stop-color:#000000;stop-opacity:1" x="695.02979" stroke-width="7.66345" ry="14.690767" stroke="none" gorn="0.2.0.0.16.0.0.1" fill="#5f0b0b" id="rect41620" height="41.944229" fill-opacity="1" stroke-opacity="1" y="117.67508" width="140.63654"/>
                            <rect  style="font-variation-settings:normal;opacity:1;vector-effect:none;stroke-linecap:butt;stroke-linejoin:miter;stroke-miterlimit:4;stroke-dasharray:none;stroke-dashoffset:0;-inkscape-stop-color:#000000;stop-opacity:1" x="692.43042" stroke-width="7.66345" ry="14.690767" stroke="none" gorn="0.2.0.0.16.0.0.2" fill="#a21212" id="rect41622" height="41.944229" fill-opacity="1" stroke-opacity="1" y="112.4763" width="140.63654"/>
                        </g>
                    </g>
                </g>
                <rect  style="font-variation-settings:normal;stroke-linecap:butt;stroke-linejoin:miter;stroke-miterlimit:4;stroke-dasharray:none;stroke-dashoffset:0;stop-color:#000000" x="925.60291" stroke-width="13.8889" stroke="none" gorn="0.2.0.0.17" fill="#292929" id="connector0pin" height="81.440201" fill-opacity="1" stroke-opacity="1" y="-221.03795" width="80.878334"/>
                <rect  style="font-variation-settings:normal;stroke-linecap:butt;stroke-linejoin:miter;stroke-miterlimit:4;stroke-dasharray:none;stroke-dashoffset:0;stop-color:#000000" x="925.60291" stroke-width="13.8889" stroke="none" gorn="0.2.0.0.18" fill="#6c1212" id="connector1pin" height="81.440201" fill-opacity="1" stroke-opacity="1" y="320.62875" width="80.878334"/>
            </g>
        </g>
    </g>
</svg>
