<?xml version='1.0' encoding='UTF-8' standalone='no'?>
<svg xmlns="http://www.w3.org/2000/svg" x="0px" viewBox="0 0 72.390061 32.759" xml:space="preserve" width="72.389999mm" id="Layer_1" xmlns:xml="http://www.w3.org/XML/1998/namespace" version="1.1" enable-background="new 0 0 198.43 85.04" gorn="0" y="0px"  height="32.758972mm">
    <desc id="desc2" >
        <referenceFile >REV_SPARK_MAX_1_breadboard.svg</referenceFile>
    </desc>
    <metadata id="metadata77" >
        <rdf:RDF xmlns:rdf="http://www.w3.org/1999/02/22-rdf-syntax-ns#">
            <cc:Work rdf:about="" xmlns:rdf="http://www.w3.org/1999/02/22-rdf-syntax-ns#" xmlns:cc="http://creativecommons.org/ns#">
                <dc:format xmlns:dc="http://purl.org/dc/elements/1.1/">image/svg+xml</dc:format>
                <dc:type xmlns:rdf="http://www.w3.org/1999/02/22-rdf-syntax-ns#" xmlns:dc="http://purl.org/dc/elements/1.1/" rdf:resource="http://purl.org/dc/dcmitype/StillImage"/>
            </cc:Work>
        </rdf:RDF>
    </metadata>
    <defs id="defs75" />
    <g transform="matrix(0.02540189,0,0,0.02540189,-4.455222e-5,0.0088321)" >
        <g >
            <g id="breadboard" gorn="0.3.0.0" >
                <rect fill="#ff0000" x="0.70070517" width="200.00008" id="rect389" gorn="0.3.0.0.0" y="397.11346"  height="125.00005" stroke="none"/>
                <rect fill="#000000" x="2599.479" width="250.00009" id="rect391" gorn="0.3.0.0.1" y="584.12183"  height="125.00005" stroke="none"/>
                <rect fill="#ef0000" x="2599.792" width="250.00009" id="rect393" gorn="0.3.0.0.2" y="317.37494"  height="125.00005" stroke="none"/>
                <path id="rect377" gorn="0.3.0.0.3"  d="M 1.4915475,542.15811 H 81.899873 c 130.632137,4.41769 76.472907,227.47944 95.261817,229.14981 h 24.32993 v 125.00006 h -5.73138 C 3.9606854,897.4646 112.08761,667.3659 54.368295,667.15817 H 1.4915475 Z"/>
                <rect fill="#c9c9c9" x="2599.479" width="250.00009" id="rect9165" gorn="0.3.0.0.4" y="850.85632"  height="125.00005" stroke="none"/>
                <path fill="#eaeaea" id="path2757" stroke-opacity="1" gorn="0.3.0.0.5" fill-opacity="1"  style="stroke-linecap:butt;stroke-linejoin:miter;stroke-dasharray:none" d="m 133.12411,1282.5723 -86.526457,-88.4582 v -190.9022 c 0,0 132.780837,-62.36275 134.830137,-95.15234 V 381.1097 C 179.37849,348.32011 46.597653,285.95744 46.597653,285.95744 V 95.055166 L 133.12411,6.5967552 H 2680.5563 l 86.5263,88.4584108 V 285.95744 c 0,0 -132.7806,62.36267 -134.8299,95.15226 v 526.94986 c 2.0493,32.78959 134.8299,95.15234 134.8299,95.15234 v 190.9022 l -86.5263,88.4582 z" stroke-width="13.8889" stroke="#000000"/>
                <path fill="#eaeaea" id="path2760" stroke-opacity="1" gorn="0.3.0.0.6" fill-opacity="1"  style="stroke-linecap:butt;stroke-linejoin:miter;stroke-dasharray:none" d="m 129.93415,129.02734 v 105.95313 l 218.16539,86.37459 -0.002,652.23871 -218.16344,80.59573 v 105.9472 l 38.24414,33.6347 H 2645.502 l 38.2441,-33.6347 V 1054.1895 L 2465.5788,977.58592 V 315.56834 l 218.1635,-80.58982 V 129.03125 L 2645.4981,95.398525 H 168.17433 L 129.9341,129.02734 Z" stroke-width="13.8889" stroke="#000000"/>
                <rect fill="#c9c9c9" x="206.73949" width="88.878662" id="rect3441" stroke-opacity="1" gorn="0.3.0.0.7" fill-opacity="1" y="647.26855"  style="stroke-linecap:round;stroke-dasharray:none" height="285.95743" stroke-width="13.8889" stroke="#f7f9ff"/>
                <g transform="rotate(90)" >
                    <g >
                        <g id="g19" gorn="0.3.0.0.8.0.0" >
                            <g id="g17" gorn="0.3.0.0.8.0.0.0" >
                                <rect fill="#1a1a1a" x="385.32684" width="525.48853" id="bgnd" gorn="0.3.0.0.8.0.0.0.0" y="-2054.5591"  height="228.86121" stroke-width="0" stroke="none"/>
                            </g>
                        </g>
                    </g>
                </g>
                <g transform="rotate(90)" >
                    <g >
                        <g id="g24" gorn="0.3.0.0.9.0.0" >
                            <g id="g22" gorn="0.3.0.0.9.0.0.0" >
                                <rect fill="#2a2a29" x="385.32684" width="525.48853" id="top inset" gorn="0.3.0.0.9.0.0.0.0" y="-2054.5591"  height="25.526258" stroke-width="0" stroke="none"/>
                            </g>
                        </g>
                    </g>
                </g>
                <g transform="rotate(90)" >
                    <g >
                        <g id="g29" gorn="0.3.0.0.10.0.0" >
                            <g id="g27" gorn="0.3.0.0.10.0.0.0" >
                                <rect fill="#595959" x="385.32684" width="525.48853" id="bottom inset" gorn="0.3.0.0.10.0.0.0.0" y="-1851.2245"  height="25.526258" stroke-width="0" stroke="none"/>
                            </g>
                        </g>
                    </g>
                </g>
                <path fill="#373737" id="left inset" gorn="0.3.0.0.11"  d="m 2054.559,385.32583 h -228.8612 l 25.5263,25.52626 h 177.8087 z" stroke-width="0" stroke="none"/>
                <path fill="#474747" id="right inset" gorn="0.3.0.0.12"  d="m 2054.559,910.81434 h -228.8612 l 25.5263,-25.52625 h 177.8087 z" stroke-width="0" stroke="none"/>
                <g transform="rotate(90)" >
                    <g >
                        <g id="g36" gorn="0.3.0.0.13.0.0" >
                            <g id="g34" gorn="0.3.0.0.13.0.0.0" >
                                <rect fill="#404040" x="385.32684" width="525.48853" id="top border" gorn="0.3.0.0.13.0.0.0.0" y="-2054.5591"  height="16.403124" stroke-width="0" stroke="none"/>
                            </g>
                        </g>
                    </g>
                </g>
                <g transform="rotate(90)" >
                    <g >
                        <g id="g41" gorn="0.3.0.0.14.0.0" >
                            <g id="g39" gorn="0.3.0.0.14.0.0.0" >
                                <rect fill="#404040" x="385.32684" width="525.48853" id="bottom border" gorn="0.3.0.0.14.0.0.0.0" y="-1842.1013"  height="16.403124" stroke-width="0" stroke="none"/>
                            </g>
                        </g>
                    </g>
                </g>
                <g transform="rotate(90)" >
                    <g >
                        <g id="g46" gorn="0.3.0.0.15.0.0" >
                            <g id="g44" gorn="0.3.0.0.15.0.0.0" >
                                <rect fill="#404040" x="385.32684" width="16.403126" id="left border" gorn="0.3.0.0.15.0.0.0.0" y="-2054.5591"  height="228.86121" stroke-width="0" stroke="none"/>
                            </g>
                        </g>
                    </g>
                </g>
                <g transform="rotate(90)" >
                    <g >
                        <g id="g51" gorn="0.3.0.0.16.0.0" >
                            <g id="g49" gorn="0.3.0.0.16.0.0.0" >
                                <rect fill="#404040" x="894.4126" width="16.403126" id="right border" gorn="0.3.0.0.16.0.0.0.0" y="-2054.5591"  height="228.86121" stroke-width="0" stroke="none"/>
                            </g>
                        </g>
                    </g>
                </g>
                <g transform="rotate(90)" >
                    <g >
                        <g id="g56" gorn="0.3.0.0.17.0.0" >
                            <g id="g54" gorn="0.3.0.0.17.0.0.0" >
                                <rect fill="#141414" x="499.37009" width="34.658527" id="upper connector bgnd" gorn="0.3.0.0.17.0.0.0.0" y="-1991.5189"  height="34.65852" stroke-width="0" stroke="none"/>
                            </g>
                        </g>
                    </g>
                </g>
                <g transform="rotate(90)" >
                    <g >
                        <g id="g61" gorn="0.3.0.0.18.0.0" >
                            <g id="g59" gorn="0.3.0.0.18.0.0.0" >
                                <rect fill="#8c8663" x="506.21259" width="20.973932" id="rect433" gorn="0.3.0.0.18.0.0.0.0" y="-1984.6766"  height="20.973927" stroke-width="0" stroke="none"/>
                            </g>
                        </g>
                    </g>
                </g>
                <g transform="rotate(90)" >
                    <g >
                        <g id="g66" gorn="0.3.0.0.19.0.0" >
                            <g id="g64" gorn="0.3.0.0.19.0.0.0" >
                                <rect fill="#b8af82" x="506.21259" width="20.973932" id="upper connector top inset" gorn="0.3.0.0.19.0.0.0.0" y="-1984.6766"  height="5.0906696" stroke-width="0" stroke="none"/>
                            </g>
                        </g>
                    </g>
                </g>
                <g transform="rotate(90)" >
                    <g >
                        <g id="g71" gorn="0.3.0.0.20.0.0" >
                            <g id="g69" gorn="0.3.0.0.20.0.0.0" >
                                <rect fill="#5e5b43" x="506.21259" width="20.973932" id="upper connector bottom inset" gorn="0.3.0.0.20.0.0.0.0" y="-1968.7933"  height="5.0906696" stroke-width="0" stroke="none"/>
                            </g>
                        </g>
                    </g>
                </g>
                <path fill="#9a916c" id="upper connector left inset" gorn="0.3.0.0.21"  d="m 1984.6761,506.21117 h -20.9738 l 5.0906,5.09067 h 10.7926 z" stroke-width="0" stroke="none"/>
                <path fill="#9a916c" id="upper connector right inset" gorn="0.3.0.0.22"  d="m 1984.6761,527.18466 h -20.9738 l 5.0906,-5.0906 h 10.7926 z" stroke-width="0" stroke="none"/>
                <g transform="rotate(90)" >
                    <g >
                        <g id="g78" gorn="0.3.0.0.23.0.0" >
                            <g id="g76" gorn="0.3.0.0.23.0.0.0" >
                                <rect fill="#141414" x="565.05573" width="34.658527" id="rect19" gorn="0.3.0.0.23.0.0.0.0" y="-1991.5189"  height="34.65852" stroke-width="0" stroke="none"/>
                            </g>
                        </g>
                    </g>
                </g>
                <g transform="rotate(90)" >
                    <g >
                        <g id="g83" gorn="0.3.0.0.24.0.0" >
                            <g id="g81" gorn="0.3.0.0.24.0.0.0" >
                                <rect fill="#8c8663" x="571.89825" width="20.973932" id="rect425" gorn="0.3.0.0.24.0.0.0.0" y="-1984.6766"  height="20.973927" stroke-width="0" stroke="none"/>
                            </g>
                        </g>
                    </g>
                </g>
                <g transform="rotate(90)" >
                    <g >
                        <g id="g88" gorn="0.3.0.0.25.0.0" >
                            <g id="g86" gorn="0.3.0.0.25.0.0.0" >
                                <rect fill="#b8af82" x="571.89825" width="20.973932" id="rect22-2" gorn="0.3.0.0.25.0.0.0.0" y="-1984.6766"  height="5.0906696" stroke-width="0" stroke="none"/>
                            </g>
                        </g>
                    </g>
                </g>
                <g transform="rotate(90)" >
                    <g >
                        <g id="g93" gorn="0.3.0.0.26.0.0" >
                            <g id="g91" gorn="0.3.0.0.26.0.0.0" >
                                <rect fill="#5e5b43" x="571.89825" width="20.973932" id="rect24" gorn="0.3.0.0.26.0.0.0.0" y="-1968.7933"  height="5.0906696" stroke-width="0" stroke="none"/>
                            </g>
                        </g>
                    </g>
                </g>
                <path fill="#9a916c" id="path26" gorn="0.3.0.0.27"  d="m 1984.6761,571.89716 h -20.9738 l 5.0906,5.09074 h 10.7926 z" stroke-width="0" stroke="none"/>
                <path fill="#9a916c" id="path28" gorn="0.3.0.0.28"  d="m 1984.6761,592.87079 h -20.9738 l 5.0906,-5.09067 h 10.7926 z" stroke-width="0" stroke="none"/>
                <g transform="rotate(90)" >
                    <g >
                        <g id="g100" gorn="0.3.0.0.29.0.0" >
                            <g id="g98" gorn="0.3.0.0.29.0.0.0" >
                                <rect fill="#141414" x="630.74109" width="34.658527" id="rect30" gorn="0.3.0.0.29.0.0.0.0" y="-1991.5189"  height="34.65852" stroke-width="0" stroke="none"/>
                            </g>
                        </g>
                    </g>
                </g>
                <g transform="rotate(90)" >
                    <g >
                        <g id="g105" gorn="0.3.0.0.30.0.0" >
                            <g id="g103" gorn="0.3.0.0.30.0.0.0" >
                                <rect fill="#8c8663" x="637.58356" width="20.973932" id="rect417" gorn="0.3.0.0.30.0.0.0.0" y="-1984.6766"  height="20.973927" stroke-width="0" stroke="none"/>
                            </g>
                        </g>
                    </g>
                </g>
                <g transform="rotate(90)" >
                    <g >
                        <g id="g110" gorn="0.3.0.0.31.0.0" >
                            <g id="g108" gorn="0.3.0.0.31.0.0.0" >
                                <rect fill="#b8af82" x="637.58356" width="20.973932" id="rect33" gorn="0.3.0.0.31.0.0.0.0" y="-1984.6766"  height="5.0906696" stroke-width="0" stroke="none"/>
                            </g>
                        </g>
                    </g>
                </g>
                <g transform="rotate(90)" >
                    <g >
                        <g id="g115" gorn="0.3.0.0.32.0.0" >
                            <g id="g113" gorn="0.3.0.0.32.0.0.0" >
                                <rect fill="#5e5b43" x="637.58356" width="20.973932" id="rect35" gorn="0.3.0.0.32.0.0.0.0" y="-1968.7933"  height="5.0906696" stroke-width="0" stroke="none"/>
                            </g>
                        </g>
                    </g>
                </g>
                <path fill="#9a916c" id="path37" gorn="0.3.0.0.33"  d="m 1984.6761,637.58343 h -20.9738 l 5.0906,5.09067 h 10.7926 z" stroke-width="0" stroke="none"/>
                <path fill="#9a916c" id="path39" gorn="0.3.0.0.34"  d="m 1984.6761,658.55692 h -20.9738 l 5.0906,-5.09061 h 10.7926 z" stroke-width="0" stroke="none"/>
                <g transform="rotate(90)" >
                    <g >
                        <g id="g122" gorn="0.3.0.0.35.0.0" >
                            <g id="g120" gorn="0.3.0.0.35.0.0.0" >
                                <rect fill="#141414" x="696.42773" width="34.658527" id="rect41" gorn="0.3.0.0.35.0.0.0.0" y="-1991.5189"  height="34.65852" stroke-width="0" stroke="none"/>
                            </g>
                        </g>
                    </g>
                </g>
                <g transform="rotate(90)" >
                    <g >
                        <g id="g127" gorn="0.3.0.0.36.0.0" >
                            <g id="g125" gorn="0.3.0.0.36.0.0.0" >
                                <rect fill="#8c8663" x="703.27026" width="20.973932" id="rect409" gorn="0.3.0.0.36.0.0.0.0" y="-1984.6766"  height="20.973927" stroke-width="0" stroke="none"/>
                            </g>
                        </g>
                    </g>
                </g>
                <g transform="rotate(90)" >
                    <g >
                        <g id="g132" gorn="0.3.0.0.37.0.0" >
                            <g id="g130" gorn="0.3.0.0.37.0.0.0" >
                                <rect fill="#b8af82" x="703.27026" width="20.973932" id="rect44" gorn="0.3.0.0.37.0.0.0.0" y="-1984.6766"  height="5.0906696" stroke-width="0" stroke="none"/>
                            </g>
                        </g>
                    </g>
                </g>
                <g transform="rotate(90)" >
                    <g >
                        <g id="g137" gorn="0.3.0.0.38.0.0" >
                            <g id="g135" gorn="0.3.0.0.38.0.0.0" >
                                <rect fill="#5e5b43" x="703.27026" width="20.973932" id="rect46" gorn="0.3.0.0.38.0.0.0.0" y="-1968.7933"  height="5.0906696" stroke-width="0" stroke="none"/>
                            </g>
                        </g>
                    </g>
                </g>
                <path fill="#9a916c" id="path48" gorn="0.3.0.0.39"  d="m 1984.6761,703.26935 h -20.9738 l 5.0906,5.09073 h 10.7926 z" stroke-width="0" stroke="none"/>
                <path fill="#9a916c" id="path50" gorn="0.3.0.0.40"  d="m 1984.6761,724.24297 h -20.9738 l 5.0906,-5.09066 h 10.7926 z" stroke-width="0" stroke="none"/>
                <g transform="rotate(90)" >
                    <g >
                        <g id="g144" gorn="0.3.0.0.41.0.0" >
                            <g id="g142" gorn="0.3.0.0.41.0.0.0" >
                                <rect fill="#141414" x="762.11316" width="34.658527" id="rect52" gorn="0.3.0.0.41.0.0.0.0" y="-1991.5189"  height="34.65852" stroke-width="0" stroke="none"/>
                            </g>
                        </g>
                    </g>
                </g>
                <g transform="rotate(90)" >
                    <g >
                        <g id="g149" gorn="0.3.0.0.42.0.0" >
                            <g id="g147" gorn="0.3.0.0.42.0.0.0" >
                                <rect fill="#8c8663" x="768.95569" width="20.973932" id="rect401" gorn="0.3.0.0.42.0.0.0.0" y="-1984.6766"  height="20.973927" stroke-width="0" stroke="none"/>
                            </g>
                        </g>
                    </g>
                </g>
                <g transform="rotate(90)" >
                    <g >
                        <g id="g154" gorn="0.3.0.0.43.0.0" >
                            <g id="g152" gorn="0.3.0.0.43.0.0.0" >
                                <rect fill="#b8af82" x="768.95569" width="20.973932" id="rect55" gorn="0.3.0.0.43.0.0.0.0" y="-1984.6766"  height="5.0906696" stroke-width="0" stroke="none"/>
                            </g>
                        </g>
                    </g>
                </g>
                <g transform="rotate(90)" >
                    <g >
                        <g id="g159" gorn="0.3.0.0.44.0.0" >
                            <g id="g157" gorn="0.3.0.0.44.0.0.0" >
                                <rect fill="#5e5b43" x="768.95569" width="20.973932" id="rect57" gorn="0.3.0.0.44.0.0.0.0" y="-1968.7933"  height="5.0906696" stroke-width="0" stroke="none"/>
                            </g>
                        </g>
                    </g>
                </g>
                <path fill="#9a916c" id="path59" gorn="0.3.0.0.45"  d="m 1984.6761,768.95554 h -20.9738 l 5.0906,5.09067 h 10.7926 z" stroke-width="0" stroke="none"/>
                <path fill="#9a916c" id="path61" gorn="0.3.0.0.46"  d="m 1984.6761,789.92903 h -20.9738 l 5.0906,-5.09066 h 10.7926 z" stroke-width="0" stroke="none"/>
                <g transform="rotate(90)" >
                    <g >
                        <g id="g166" gorn="0.3.0.0.47.0.0" >
                            <g id="g164" gorn="0.3.0.0.47.0.0.0" >
                                <rect fill="#141414" x="499.37009" width="34.658527" id="lower connector bgnd" gorn="0.3.0.0.47.0.0.0.0" y="-1925.8328"  height="34.65852" stroke-width="0" stroke="none"/>
                            </g>
                        </g>
                    </g>
                </g>
                <g transform="rotate(90)" >
                    <g >
                        <g id="g171" gorn="0.3.0.0.48.0.0" >
                            <g id="g169" gorn="0.3.0.0.48.0.0.0" >
                                <rect fill="#8c8663" x="506.21259" width="20.973932" id="rect437" gorn="0.3.0.0.48.0.0.0.0" y="-1918.9905"  height="20.973927" stroke-width="0" stroke="none"/>
                            </g>
                        </g>
                    </g>
                </g>
                <g transform="rotate(90)" >
                    <g >
                        <g id="g176" gorn="0.3.0.0.49.0.0" >
                            <g id="g174" gorn="0.3.0.0.49.0.0.0" >
                                <rect fill="#b8af82" x="506.21259" width="20.973932" id="lower connector top inset" gorn="0.3.0.0.49.0.0.0.0" y="-1918.9905"  height="5.0906696" stroke-width="0" stroke="none"/>
                            </g>
                        </g>
                    </g>
                </g>
                <g transform="rotate(90)" >
                    <g >
                        <g id="g181" gorn="0.3.0.0.50.0.0" >
                            <g id="g179" gorn="0.3.0.0.50.0.0.0" >
                                <rect fill="#5e5b43" x="506.21259" width="20.973932" id="lower connector bottom inset" gorn="0.3.0.0.50.0.0.0.0" y="-1903.1072"  height="5.0906696" stroke-width="0" stroke="none"/>
                            </g>
                        </g>
                    </g>
                </g>
                <path fill="#9a916c" id="lower connector left inset" gorn="0.3.0.0.51"  d="m 1918.9901,506.21117 h -20.974 l 5.0908,5.09067 h 10.7925 z" stroke-width="0" stroke="none"/>
                <path fill="#9a916c" id="lower connector right inset" gorn="0.3.0.0.52"  d="m 1918.9901,527.18466 h -20.974 l 5.0908,-5.0906 h 10.7925 z" stroke-width="0" stroke="none"/>
                <g transform="rotate(90)" >
                    <g >
                        <g id="g188" gorn="0.3.0.0.53.0.0" >
                            <g id="g186" gorn="0.3.0.0.53.0.0.0" >
                                <rect fill="#141414" x="565.05573" width="34.658527" id="rect69" gorn="0.3.0.0.53.0.0.0.0" y="-1925.8328"  height="34.65852" stroke-width="0" stroke="none"/>
                            </g>
                        </g>
                    </g>
                </g>
                <g transform="rotate(90)" >
                    <g >
                        <g id="g193" gorn="0.3.0.0.54.0.0" >
                            <g id="g191" gorn="0.3.0.0.54.0.0.0" >
                                <rect fill="#8c8663" x="571.89825" width="20.973932" id="rect429" gorn="0.3.0.0.54.0.0.0.0" y="-1918.9905"  height="20.973927" stroke-width="0" stroke="none"/>
                            </g>
                        </g>
                    </g>
                </g>
                <g transform="rotate(90)" >
                    <g >
                        <g id="g198" gorn="0.3.0.0.55.0.0" >
                            <g id="g196" gorn="0.3.0.0.55.0.0.0" >
                                <rect fill="#b8af82" x="571.89825" width="20.973932" id="rect72" gorn="0.3.0.0.55.0.0.0.0" y="-1918.9905"  height="5.0906696" stroke-width="0" stroke="none"/>
                            </g>
                        </g>
                    </g>
                </g>
                <g transform="rotate(90)" >
                    <g >
                        <g id="g203" gorn="0.3.0.0.56.0.0" >
                            <g id="g201" gorn="0.3.0.0.56.0.0.0" >
                                <rect fill="#5e5b43" x="571.89825" width="20.973932" id="rect74" gorn="0.3.0.0.56.0.0.0.0" y="-1903.1072"  height="5.0906696" stroke-width="0" stroke="none"/>
                            </g>
                        </g>
                    </g>
                </g>
                <path fill="#9a916c" id="path76" gorn="0.3.0.0.57"  d="m 1918.9901,571.89716 h -20.974 l 5.0908,5.09074 h 10.7925 z" stroke-width="0" stroke="none"/>
                <path fill="#9a916c" id="path78" gorn="0.3.0.0.58"  d="m 1918.9901,592.87079 h -20.974 l 5.0908,-5.09067 h 10.7925 z" stroke-width="0" stroke="none"/>
                <g transform="rotate(90)" >
                    <g >
                        <g id="g210" gorn="0.3.0.0.59.0.0" >
                            <g id="g208" gorn="0.3.0.0.59.0.0.0" >
                                <rect fill="#141414" x="630.74109" width="34.658527" id="rect80" gorn="0.3.0.0.59.0.0.0.0" y="-1925.8328"  height="34.65852" stroke-width="0" stroke="none"/>
                            </g>
                        </g>
                    </g>
                </g>
                <g transform="rotate(90)" >
                    <g >
                        <g id="g215" gorn="0.3.0.0.60.0.0" >
                            <g id="g213" gorn="0.3.0.0.60.0.0.0" >
                                <rect fill="#8c8663" x="637.58356" width="20.973932" id="rect421" gorn="0.3.0.0.60.0.0.0.0" y="-1918.9905"  height="20.973927" stroke-width="0" stroke="none"/>
                            </g>
                        </g>
                    </g>
                </g>
                <g transform="rotate(90)" >
                    <g >
                        <g id="g220" gorn="0.3.0.0.61.0.0" >
                            <g id="g218" gorn="0.3.0.0.61.0.0.0" >
                                <rect fill="#b8af82" x="637.58356" width="20.973932" id="rect83" gorn="0.3.0.0.61.0.0.0.0" y="-1918.9905"  height="5.0906696" stroke-width="0" stroke="none"/>
                            </g>
                        </g>
                    </g>
                </g>
                <g transform="rotate(90)" >
                    <g >
                        <g id="g225" gorn="0.3.0.0.62.0.0" >
                            <g id="g223" gorn="0.3.0.0.62.0.0.0" >
                                <rect fill="#5e5b43" x="637.58356" width="20.973932" id="rect85" gorn="0.3.0.0.62.0.0.0.0" y="-1903.1072"  height="5.0906696" stroke-width="0" stroke="none"/>
                            </g>
                        </g>
                    </g>
                </g>
                <path fill="#9a916c" id="path87" gorn="0.3.0.0.63"  d="m 1918.9901,637.58343 h -20.974 l 5.0908,5.09067 h 10.7925 z" stroke-width="0" stroke="none"/>
                <path fill="#9a916c" id="path89" gorn="0.3.0.0.64"  d="m 1918.9901,658.55692 h -20.974 l 5.0908,-5.09061 h 10.7925 z" stroke-width="0" stroke="none"/>
                <g transform="rotate(90)" >
                    <g >
                        <g id="g232" gorn="0.3.0.0.65.0.0" >
                            <g id="g230" gorn="0.3.0.0.65.0.0.0" >
                                <rect fill="#141414" x="696.42773" width="34.658527" id="rect91" gorn="0.3.0.0.65.0.0.0.0" y="-1925.8328"  height="34.65852" stroke-width="0" stroke="none"/>
                            </g>
                        </g>
                    </g>
                </g>
                <g transform="rotate(90)" >
                    <g >
                        <g id="g237" gorn="0.3.0.0.66.0.0" >
                            <g id="g235" gorn="0.3.0.0.66.0.0.0" >
                                <rect fill="#8c8663" x="703.27026" width="20.973932" id="rect413" gorn="0.3.0.0.66.0.0.0.0" y="-1918.9905"  height="20.973927" stroke-width="0" stroke="none"/>
                            </g>
                        </g>
                    </g>
                </g>
                <g transform="rotate(90)" >
                    <g >
                        <g id="g242" gorn="0.3.0.0.67.0.0" >
                            <g id="g240" gorn="0.3.0.0.67.0.0.0" >
                                <rect fill="#b8af82" x="703.27026" width="20.973932" id="rect94" gorn="0.3.0.0.67.0.0.0.0" y="-1918.9905"  height="5.0906696" stroke-width="0" stroke="none"/>
                            </g>
                        </g>
                    </g>
                </g>
                <g transform="rotate(90)" >
                    <g >
                        <g id="g247" gorn="0.3.0.0.68.0.0" >
                            <g id="g245" gorn="0.3.0.0.68.0.0.0" >
                                <rect fill="#5e5b43" x="703.27026" width="20.973932" id="rect96" gorn="0.3.0.0.68.0.0.0.0" y="-1903.1072"  height="5.0906696" stroke-width="0" stroke="none"/>
                            </g>
                        </g>
                    </g>
                </g>
                <path fill="#9a916c" id="path98" gorn="0.3.0.0.69"  d="m 1918.9901,703.26935 h -20.974 l 5.0908,5.09073 h 10.7925 z" stroke-width="0" stroke="none"/>
                <path fill="#9a916c" id="path100" gorn="0.3.0.0.70"  d="m 1918.9901,724.24297 h -20.974 l 5.0908,-5.09066 h 10.7925 z" stroke-width="0" stroke="none"/>
                <g transform="rotate(90)" >
                    <g >
                        <g id="g254" gorn="0.3.0.0.71.0.0" >
                            <g id="g252" gorn="0.3.0.0.71.0.0.0" >
                                <rect fill="#141414" x="762.11316" width="34.658527" id="rect102" gorn="0.3.0.0.71.0.0.0.0" y="-1925.8328"  height="34.65852" stroke-width="0" stroke="none"/>
                            </g>
                        </g>
                    </g>
                </g>
                <g transform="rotate(90)" >
                    <g >
                        <g id="g259" gorn="0.3.0.0.72.0.0" >
                            <g id="g257" gorn="0.3.0.0.72.0.0.0" >
                                <rect fill="#8c8663" x="768.95569" width="20.973932" id="rect405" gorn="0.3.0.0.72.0.0.0.0" y="-1918.9905"  height="20.973927" stroke-width="0" stroke="none"/>
                            </g>
                        </g>
                    </g>
                </g>
                <g transform="rotate(90)" >
                    <g >
                        <g id="g264" gorn="0.3.0.0.73.0.0" >
                            <g id="g262" gorn="0.3.0.0.73.0.0.0" >
                                <rect fill="#b8af82" x="768.95569" width="20.973932" id="rect105" gorn="0.3.0.0.73.0.0.0.0" y="-1918.9905"  height="5.0906696" stroke-width="0" stroke="none"/>
                            </g>
                        </g>
                    </g>
                </g>
                <g transform="rotate(90)" >
                    <g >
                        <g id="g269" gorn="0.3.0.0.74.0.0" >
                            <g id="g267" gorn="0.3.0.0.74.0.0.0" >
                                <rect fill="#5e5b43" x="768.95569" width="20.973932" id="rect107" gorn="0.3.0.0.74.0.0.0.0" y="-1903.1072"  height="5.0906696" stroke-width="0" stroke="none"/>
                            </g>
                        </g>
                    </g>
                </g>
                <path fill="#9a916c" id="path109" gorn="0.3.0.0.75"  d="m 1918.9901,768.95554 h -20.974 l 5.0908,5.09067 h 10.7925 z" stroke-width="0" stroke="none"/>
                <path fill="#9a916c" id="path111" gorn="0.3.0.0.76"  d="m 1918.9901,789.92903 h -20.974 l 5.0908,-5.09066 h 10.7925 z" stroke-width="0" stroke="none"/>
                <g aria-label="A | M+" id="text395" gorn="0.3.0.0.77"  style="font-size:55.5556px;line-height:1;-inkscape-font-specification:sans-serif">
                    <path id="path12927" gorn="0.3.0.0.77.0"  d="m 2692.7829,399.61646 h -5.7237 l -3.9605,-11.25761 h -17.4697 l -3.9605,11.25761 h -5.4525 l 14.7027,-40.39175 h 7.1615 z m -11.339,-15.86916 -7.0801,-19.82966 -7.1072,19.82966 z"/>
                    <path id="path12929" gorn="0.3.0.0.77.1"  d="m 2727.9934,410.25014 h -4.72 v -52.84292 h 4.72 z"/>
                    <path id="path12931" gorn="0.3.0.0.77.2"  d="m 2799.174,399.61646 h -5.371 v -34.80363 l -11.2305,23.68165 h -3.201 l -11.1491,-23.68165 v 34.80363 h -5.0184 v -40.39175 h 7.3242 l 10.7693,22.48809 10.4167,-22.48809 h 7.4598 z"/>
                    <path id="path12933" gorn="0.3.0.0.77.3"  d="m 2844.3672,384.09995 h -14.7841 v 14.78408 h -4.503 v -14.78408 h -14.7841 v -4.34028 h 14.7841 v -14.78408 h 4.503 v 14.78408 h 14.7841 z"/>
                </g>
                <g aria-label="B | M-" id="text397" gorn="0.3.0.0.78"  style="font-size:55.5556px;-inkscape-font-specification:sans-serif;fill:#ffffff">
                    <path id="path12936" gorn="0.3.0.0.78.0"  d="m 2688.1055,650.54555 q 0,3.01107 -1.1393,5.31684 -1.1394,2.30578 -3.0654,3.79775 -2.2786,1.79037 -5.0184,2.54992 -2.7127,0.75954 -6.9173,0.75954 h -14.323 v -40.39174 h 11.9629 q 4.4217,0 6.619,0.32552 2.1972,0.32552 4.2046,1.35634 2.2244,1.16645 3.2281,3.01107 1.0037,1.81749 1.0037,4.36741 0,2.87544 -1.4648,4.90994 -1.4649,2.00738 -3.9063,3.22809 v 0.21701 q 4.0961,0.84093 6.4562,3.60786 2.36,2.7398 2.36,6.94445 z m -9.0332,-18.20205 q 0,-1.46485 -0.4883,-2.46854 -0.4883,-1.00369 -1.5733,-1.62761 -1.275,-0.73242 -3.0925,-0.89518 -1.8175,-0.18989 -4.503,-0.18989 h -6.402 v 11.66451 h 6.9445 q 2.5228,0 4.0148,-0.24414 1.4919,-0.27127 2.7669,-1.08507 1.2749,-0.8138 1.7904,-2.08876 0.5425,-1.30209 0.5425,-3.06532 z m 3.4451,18.41906 q 0,-2.4414 -0.7324,-3.87912 -0.7325,-1.43772 -2.6585,-2.44141 -1.302,-0.67817 -3.1738,-0.86806 -1.8446,-0.21701 -4.503,-0.21701 h -8.4365 v 15.02822 h 7.1073 q 3.5264,0 5.778,-0.35265 2.2515,-0.37977 3.6892,-1.35633 1.5191,-1.05795 2.2244,-2.41428 0.7053,-1.35634 0.7053,-3.49936 z"/>
                    <path id="path12938" gorn="0.3.0.0.78.1"  d="m 2724.808,673.60329 h -4.7201 v -52.84292 h 4.7201 z"/>
                    <path id="path12940" gorn="0.3.0.0.78.2"  d="m 2795.9886,662.9696 h -5.3711 v -34.80363 l -11.2305,23.68166 h -3.2009 l -11.1491,-23.68166 v 34.80363 h -5.0185 v -40.39174 h 7.3243 l 10.7693,22.48808 10.4167,-22.48808 h 7.4598 z"/>
                    <path id="path12942" gorn="0.3.0.0.78.3"  d="m 2822.4914,647.75149 h -16.9271 v -4.90994 h 16.9271 z"/>
                </g>
                <g aria-label="+Vin" id="text401" gorn="0.3.0.0.79"  style="font-size:60px;font-family:Droid Sans">
                    <path id="path12945" gorn="0.3.0.0.79.0"  d="M 49.169963,467.30148 H 33.203166 v 15.9668 h -4.863281 v -15.9668 H 12.373088 v -4.6875 h 15.966797 v -15.96679 h 4.863281 v 15.96679 h 15.966797 z"/>
                    <path id="path12947" gorn="0.3.0.0.79.1"  d="M 95.576213,440.43625 79.697307,484.0593 H 71.962932 L 56.084026,440.43625 h 6.210937 l 13.681641,38.37891 13.681641,-38.37891 z"/>
                    <path id="path12949" gorn="0.3.0.0.79.2"  d="m 107.67582,445.85617 h -6.21093 v -5.71289 h 6.21093 z m -0.35156,38.20313 h -5.50781 v -32.72461 h 5.50781 z"/>
                    <path id="path12951" gorn="0.3.0.0.79.3"  d="m 145.58598,484.0593 h -5.50781 v -18.63282 q 0,-2.25586 -0.26368,-4.21875 -0.26367,-1.99218 -0.96679,-3.10547 -0.73242,-1.23046 -2.10938,-1.8164 -1.37695,-0.61524 -3.57422,-0.61524 -2.25586,0 -4.71679,1.11329 -2.46094,1.11328 -4.7168,2.84179 v 24.4336 h -5.50781 v -32.72461 h 5.50781 v 3.63281 q 2.57813,-2.13867 5.33203,-3.33984 2.75391,-1.20118 5.6543,-1.20118 5.30273,0 8.08594,3.19336 2.7832,3.19336 2.7832,9.19922 z"/>
                </g>
                <g transform="rotate(90)" >
                    <g >
                        <g id="g298" gorn="0.3.0.0.80.0.0" >
                            <g id="g296" gorn="0.3.0.0.80.0.0.0" >
                                <g aria-label="CAN/PWM" id="text403" gorn="0.3.0.0.80.0.0.0.0"  style="font-size:41.6667px;font-family:Droid Sans">
                                    <path id="path12954" gorn="0.3.0.0.80.0.0.0.0.0"  d="m 723.23122,-309.37763 q -1.11898,0.48829 -2.0345,0.91553 -0.89519,0.42725 -2.36003,0.89518 -1.24105,0.38656 -2.7059,0.65105 -1.4445,0.28483 -3.19417,0.28483 -3.2959,0 -6.0018,-0.91553 -2.68555,-0.93587 -4.67936,-2.90934 -1.95313,-1.93279 -3.05176,-4.90317 -1.09864,-2.99072 -1.09864,-6.93766 0,-3.7435 1.05795,-6.69353 1.05794,-2.95004 3.05176,-4.98454 1.93278,-1.97347 4.65902,-3.01107 2.74658,-1.0376 6.08317,-1.0376 2.44141,0 4.86247,0.59001 2.44141,0.59 5.41179,2.07519 v 4.78109 h -0.30517 q -2.50245,-2.09554 -4.9642,-3.05176 -2.46175,-0.95621 -5.26937,-0.95621 -2.299,0 -4.1504,0.75276 -1.83105,0.73242 -3.27555,2.299 -1.40381,1.52588 -2.19727,3.86556 -0.77311,2.31934 -0.77311,5.3711 0,3.19417 0.85449,5.49316 0.87484,2.299 2.23796,3.7435 1.42415,1.50553 3.31624,2.23795 1.91244,0.71208 4.02833,0.71208 2.90934,0 5.45248,-0.99691 2.54313,-0.99691 4.76074,-2.99072 h 0.28483 z"/>
                                    <path id="path12956" gorn="0.3.0.0.80.0.0.0.0.1"  d="m 752.81295,-307.18036 h -4.29281 l -2.97038,-8.4432 h -13.10222 l -2.97038,8.4432 h -4.08936 l 11.02703,-30.2938 h 5.37109 z m -8.50424,-11.90186 -5.31006,-14.87225 -5.33041,14.87225 z"/>
                                    <path id="path12958" gorn="0.3.0.0.80.0.0.0.0.2"  d="m 780.52293,-307.18036 h -4.98454 l -14.36362,-27.09963 v 27.09963 h -3.76383 v -30.2938 h 6.24593 l 13.10223,24.7396 v -24.7396 h 3.76383 z"/>
                                    <path id="path12960" gorn="0.3.0.0.80.0.0.0.0.3"  d="m 802.00732,-338.83728 -14.58741,37.84182 h -3.5197 l 14.52638,-37.84182 z"/>
                                    <path id="path12962" gorn="0.3.0.0.80.0.0.0.0.4"  d="m 827.31659,-328.31888 q 0,2.01416 -0.71208,3.74349 -0.69173,1.70898 -1.95312,2.97038 -1.56657,1.56657 -3.70281,2.36003 -2.13623,0.77311 -5.39144,0.77311 h -4.02832 v 11.29151 h -4.02833 v -30.2938 h 8.21941 q 2.72624,0 4.61833,0.46793 1.89209,0.44759 3.35694,1.42416 1.72933,1.15967 2.6652,2.889 0.95622,1.72933 0.95622,4.37419 z m -4.19108,0.10172 q 0,-1.56657 -0.54932,-2.72624 -0.54932,-1.15967 -1.6683,-1.89209 -0.97656,-0.6307 -2.23795,-0.89518 -1.24105,-0.28483 -3.15349,-0.28483 h -3.98763 v 12.10531 h 3.39762 q 2.44141,0 3.96729,-0.42724 1.52588,-0.4476 2.4821,-1.40381 0.95622,-0.97657 1.34277,-2.05486 0.40691,-1.07828 0.40691,-2.42106 z"/>
                                    <path id="path12964" gorn="0.3.0.0.80.0.0.0.0.5"  d="m 867.88465,-337.47416 -7.87354,30.2938 h -4.53695 l -6.36801,-25.1465 -6.22559,25.1465 h -4.43522 l -8.01596,-30.2938 h 4.13005 l 6.368,25.18719 6.26628,-25.18719 h 4.08936 l 6.32732,25.43133 6.32732,-25.43133 z"/>
                                    <path id="path12966" gorn="0.3.0.0.80.0.0.0.0.6"  d="m 900.80297,-307.18036 h -4.02833 v -26.10272 l -8.42285,17.76124 h -2.40072 l -8.36183,-17.76124 v 26.10272 h -3.76383 v -30.2938 h 5.49317 l 8.07699,16.86606 7.8125,-16.86606 h 5.5949 z"/>
                                </g>
                            </g>
                        </g>
                    </g>
                </g>
                <rect fill="#fff200" x="221.39143" width="60.000019" id="rect147" gorn="0.3.0.0.81" y="848.27045"  style="stroke:none" height="60.000019" stroke-width="13.8889" stroke="#58595b"/>
                <rect fill="#39b54a" x="221.39143" width="60.000019" id="rect149" gorn="0.3.0.0.82" y="788.27045"  style="stroke:none" height="60.000019" stroke-width="13.8889" stroke="#58595b"/>
                <rect fill="#fff200" x="221.39143" width="60.000019" id="rect151" gorn="0.3.0.0.83" y="728.27045"  style="stroke:none" height="60.000019" stroke-width="13.8889" stroke="#58595b"/>
                <rect fill="#39b54a" x="221.39143" width="60.000019" id="rect153" gorn="0.3.0.0.84" y="668.27045"  style="stroke:none" height="60.000019" stroke-width="13.8889" stroke="#58595b"/>
                <rect fill="#6f6f6f" x="214.15868" width="65.57917" id="rect2820" ry="32.789585" stroke-opacity="1" gorn="0.3.0.0.85" fill-opacity="1" y="369.90921"  style="stroke-linecap:round;stroke-dasharray:none" height="177.61026" stroke-width="13.8889" stroke="#000000"/>
                <g transform="rotate(90)" >
                    <g >
                        <g id="g368" gorn="0.3.0.0.86.0.0" >
                            <g id="g366" gorn="0.3.0.0.86.0.0.0" >
                                <g aria-label="A" id="text2928" gorn="0.3.0.0.86.0.0.0.0" font-size="348.423"  style="font-weight:bold;line-height:1.25;-inkscape-font-specification:'sans-serif Bold';letter-spacing:0px;word-spacing:0px" stroke-width="10.4167">
                                    <path id="path12969" gorn="0.3.0.0.86.0.0.0.0.0"  style="font-weight:normal;-inkscape-font-specification:sans-serif" d="m 417.28556,-2307.9141 h -11.44747 l -7.921,-22.5151 h -34.9392 l -7.921,22.5151 h -10.90494 l 29.40535,-80.7833 h 14.32291 z m -22.67793,-31.7382 -14.16014,-39.6593 -14.2144,39.6593 z"/>
                                </g>
                            </g>
                        </g>
                    </g>
                </g>
                <g transform="rotate(90)" >
                    <g >
                        <g id="g374" gorn="0.3.0.0.87.0.0" >
                            <g id="g372" gorn="0.3.0.0.87.0.0.0" >
                                <g aria-label="B" id="text2982" gorn="0.3.0.0.87.0.0.0.0" font-size="348.423"  style="font-weight:bold;line-height:1.25;-inkscape-font-specification:'sans-serif Bold';letter-spacing:0px;word-spacing:0px" stroke-width="10.4167">
                                    <path id="path12972" gorn="0.3.0.0.87.0.0.0.0.0"  style="font-weight:normal;-inkscape-font-specification:sans-serif" d="m 679.88714,-2332.7621 q 0,6.0221 -2.27865,10.6336 -2.27864,4.6116 -6.13063,7.5955 -4.55729,3.5807 -10.03689,5.0998 -5.42534,1.5191 -13.83462,1.5191 h -28.6458 v -80.7833 h 23.92575 q 8.84331,0 13.23784,0.651 4.39453,0.6511 8.40928,2.7127 4.44878,2.3329 6.45615,6.0221 2.00738,3.635 2.00738,8.7348 0,5.7509 -2.92968,9.8199 -2.92969,4.0148 -7.8125,6.4562 v 0.434 q 8.19227,1.6818 12.91232,7.2157 4.72005,5.4796 4.72005,13.8889 z m -18.06639,-36.4041 q 0,-2.9297 -0.97656,-4.937 -0.97657,-2.0074 -3.1467,-3.2552 -2.54991,-1.4649 -6.18489,-1.7904 -3.63498,-0.3798 -9.00607,-0.3798 h -12.80381 v 23.329 h 13.88888 q 5.04557,0 8.0295,-0.4883 2.98394,-0.5425 5.53385,-2.1701 2.54991,-1.6276 3.58073,-4.1775 1.08507,-2.6042 1.08507,-6.1307 z m 6.89018,36.8381 q 0,-4.8828 -1.46484,-7.7582 -1.46484,-2.8755 -5.31684,-4.8828 -2.60416,-1.3564 -6.34765,-1.7362 -3.68923,-0.434 -9.00606,-0.434 h -16.87282 v 30.0564 h 14.2144 q 7.05294,0 11.55598,-0.7053 4.50303,-0.7595 7.37846,-2.7127 3.03819,-2.1158 4.44878,-4.8285 1.41059,-2.7127 1.41059,-6.9987 z"/>
                                </g>
                            </g>
                        </g>
                    </g>
                </g>
                <g transform="rotate(90)" >
                    <g >
                        <g id="g380" gorn="0.3.0.0.88.0.0" >
                            <g id="g378" gorn="0.3.0.0.88.0.0.0" >
                                <g aria-label="C" id="text2986" gorn="0.3.0.0.88.0.0.0.0" font-size="348.423"  style="line-height:1.25;font-family:Droid Sans;-inkscape-font-specification:Droid Sans;letter-spacing:0px;word-spacing:0px" stroke-width="10.4167">
                                    <path id="path12975" gorn="0.3.0.0.88.0.0.0.0.0"  d="m 937.43299,-2335.8003 10.52517,2.6584 q -3.30946,12.9666 -11.93576,19.8025 -8.57204,6.7817 -20.99607,6.7817 -12.85806,0 -20.94182,-5.2084 -8.0295,-5.2625 -12.26127,-15.1909 -4.17751,-9.9284 -4.17751,-21.3216 0,-12.424 4.72004,-21.6471 4.7743,-9.2774 13.5091,-14.0517 8.78906,-4.8285 19.31422,-4.8285 11.93575,0 20.07377,6.0764 8.13801,6.0764 11.33896,17.0898 l -10.3624,2.4414 q -2.76693,-8.6805 -8.02951,-12.641 -5.26258,-3.9605 -13.23783,-3.9605 -9.16883,0 -15.35372,4.3945 -6.13064,4.3945 -8.62629,11.8272 -2.49566,7.3785 -2.49566,15.2452 0,10.1454 2.92968,17.7409 2.98394,7.5412 9.22309,11.2847 6.23914,3.7435 13.5091,3.7435 8.8433,0 14.97394,-5.0998 6.13064,-5.0998 8.30077,-15.1367 z"/>
                                </g>
                            </g>
                        </g>
                    </g>
                </g>
                <g transform="rotate(90)" >
                    <g >
                        <g id="g385" gorn="0.3.0.0.89.0.0" >
                            <g id="g383" gorn="0.3.0.0.89.0.0.0" >
                                <rect fill="#1a1a1a" x="617.94458" width="65.284981" id="slot" gorn="0.3.0.0.89.0.0.0.0" y="-1852.0767"  height="26.378288" stroke-width="0" stroke="none"/>
                            </g>
                        </g>
                    </g>
                </g>
                <rect fill="#a6a184" x="241.36566" width="20.000008" id="rect3495" stroke-opacity="1" gorn="0.3.0.0.90" fill-opacity="1" y="689.40094"  style="stroke-linecap:round;stroke-dasharray:none" height="20.000008" stroke-width="13.8889" stroke="none"/>
                <rect fill="#a6a184" x="240.85806" width="20.000008" id="rect4308" stroke-opacity="1" gorn="0.3.0.0.91" fill-opacity="1" y="748.27045"  style="stroke-linecap:round;stroke-dasharray:none" height="20.000008" stroke-width="13.8889" stroke="none"/>
                <rect fill="#a6a184" x="240.85806" width="20.000008" id="rect4310" stroke-opacity="1" gorn="0.3.0.0.92" fill-opacity="1" y="810.77039"  style="stroke-linecap:round;stroke-dasharray:none" height="20.000008" stroke-width="13.8889" stroke="none"/>
                <rect fill="#a6a184" x="240.85806" width="20.000008" id="rect4312" stroke-opacity="1" gorn="0.3.0.0.93" fill-opacity="1" y="869.8891"  style="stroke-linecap:round;stroke-dasharray:none" height="20.000008" stroke-width="13.8889" stroke="none"/>
                <g transform="rotate(90)" >
                    <g >
                        <g id="g397" gorn="0.3.0.0.94.0.0" >
                            <g id="g395" gorn="0.3.0.0.94.0.0.0" >
                                <g aria-label="USB" id="text4314" gorn="0.3.0.0.94.0.0.0.0"  style="font-size:41.6667px;font-family:Droid Sans">
                                    <path id="path12978" gorn="0.3.0.0.94.0.0.0.0.0"  d="m 430.97459,-319.34671 q 0,3.2959 -0.73242,5.75765 -0.71208,2.44141 -2.36003,4.06902 -1.56657,1.54622 -3.66211,2.2583 -2.09555,0.71208 -4.88282,0.71208 -2.84831,0 -4.9642,-0.75277 -2.11588,-0.75277 -3.56038,-2.21761 -1.64795,-1.6683 -2.38038,-4.02833 -0.71207,-2.36002 -0.71207,-5.79834 v -18.12745 h 4.02832 v 18.3309 q 0,2.46175 0.32552,3.88591 0.34587,1.42415 1.13933,2.58382 0.89518,1.32243 2.42106,1.99382 1.54622,0.67139 3.7028,0.67139 2.17692,0 3.7028,-0.65105 1.52588,-0.67138 2.44141,-2.01416 0.79346,-1.15967 1.11898,-2.64486 0.34587,-1.50553 0.34587,-3.72314 v -18.43263 h 4.02832 z"/>
                                    <path id="path12980" gorn="0.3.0.0.94.0.0.0.0.1"  d="m 460.67839,-315.82701 q 0,1.77002 -0.83415,3.49935 -0.8138,1.72933 -2.29899,2.92969 -1.62761,1.30208 -3.80453,2.03451 -2.15658,0.73242 -5.20834,0.73242 -3.27555,0 -5.90007,-0.61035 -2.60416,-0.61036 -5.31006,-1.81072 v -5.04557 h 0.28483 q 2.29899,1.91243 5.31006,2.95003 3.01107,1.0376 5.65593,1.0376 3.7435,0 5.81869,-1.40381 2.09554,-1.40381 2.09554,-3.74349 0,-2.01416 -0.9969,-2.97038 -0.97657,-0.95622 -2.99073,-1.48519 -1.52588,-0.4069 -3.31624,-0.67139 -1.77003,-0.26448 -3.76384,-0.67138 -4.02833,-0.8545 -5.98145,-2.90935 -1.93278,-2.0752 -1.93278,-5.39144 0,-3.80453 3.21452,-6.22559 3.21452,-2.44141 8.15837,-2.44141 3.19418,0 5.85938,0.61035 2.6652,0.61035 4.72005,1.50554 v 4.76074 h -0.28483 q -1.72933,-1.46484 -4.55729,-2.42106 -2.80762,-0.97656 -5.75766,-0.97656 -3.23486,0 -5.20833,1.34277 -1.95313,1.34277 -1.95313,3.45866 0,1.89209 0.97656,2.97038 0.97657,1.07829 3.43832,1.64795 1.30208,0.28483 3.7028,0.69173 2.40072,0.40691 4.06902,0.83415 3.37728,0.89518 5.08626,2.7059 1.70899,1.81071 1.70899,5.06592 z"/>
                                    <path id="path12982" gorn="0.3.0.0.94.0.0.0.0.2"  d="m 489.99563,-316.4984 q 0,2.2583 -0.85449,3.98763 -0.85449,1.72933 -2.29899,2.84831 -1.70899,1.34278 -3.76384,1.91244 -2.03451,0.56966 -5.18799,0.56966 h -10.7422 v -30.2938 h 8.97218 q 3.31624,0 4.96419,0.24414 1.64795,0.24414 3.15349,1.01725 1.6683,0.87484 2.42106,2.2583 0.75277,1.36312 0.75277,3.27556 0,2.15658 -1.09863,3.68246 -1.09864,1.50553 -2.92969,2.42106 v 0.16276 q 3.0721,0.6307 4.84212,2.70589 1.77002,2.05485 1.77002,5.20834 z m -6.7749,-13.65154 q 0,-1.09863 -0.36622,-1.8514 -0.36621,-0.75277 -1.18001,-1.22071 -0.95622,-0.54931 -2.31934,-0.67138 -1.36312,-0.14242 -3.37728,-0.14242 h -4.80143 v 8.74838 h 5.20833 q 1.89209,0 3.01107,-0.1831 1.11898,-0.20346 2.0752,-0.81381 0.95622,-0.61035 1.34277,-1.56657 0.40691,-0.97656 0.40691,-2.29899 z m 2.58382,13.8143 q 0,-1.83106 -0.54932,-2.90934 -0.54931,-1.07829 -1.99381,-1.83106 -0.97657,-0.50863 -2.38038,-0.65104 -1.38346,-0.16276 -3.37728,-0.16276 h -6.32731 v 11.27116 h 5.3304 q 2.64486,0 4.3335,-0.26448 1.68864,-0.28483 2.76693,-1.01725 1.13933,-0.79346 1.6683,-1.81072 0.52897,-1.01725 0.52897,-2.62451 z"/>
                                </g>
                            </g>
                        </g>
                    </g>
                </g>
                <g transform="translate(0,-229.1498)" >
                    <g >
                        <g aria-label="-Vin" id="text4316" gorn="0.3.0.0.95.0.0"  style="font-size:60px;font-family:Droid Sans;fill:#ffffff">
                            <path id="path12985" gorn="0.3.0.0.95.0.0.0"  d="m 28.984416,842.62341 h -18.28125 v -5.30273 h 18.28125 z"/>
                            <path id="path12987" gorn="0.3.0.0.95.0.0.1"  d="M 72.255901,815.43591 56.376995,859.05896 H 48.64262 L 32.763713,815.43591 h 6.210938 l 13.68164,38.37891 13.681641,-38.37891 z"/>
                            <path id="path12989" gorn="0.3.0.0.95.0.0.2"  d="m 84.35551,820.85583 h -6.210937 v -5.71289 h 6.210937 z m -0.351562,38.20313 h -5.507813 v -32.72461 h 5.507813 z"/>
                            <path id="path12991" gorn="0.3.0.0.95.0.0.3"  d="m 122.26567,859.05896 h -5.50782 v -18.63281 q 0,-2.25586 -0.26367,-4.21875 -0.26367,-1.99219 -0.96679,-3.10547 -0.73243,-1.23047 -2.10938,-1.81641 -1.37695,-0.61523 -3.57422,-0.61523 -2.25586,0 -4.7168,1.11328 -2.46093,1.11328 -4.71679,2.8418 v 24.43359 h -5.507815 v -32.72461 h 5.507815 v 3.63281 q 2.57812,-2.13867 5.33203,-3.33984 2.75391,-1.20117 5.6543,-1.20117 5.30273,0 8.08593,3.19336 2.78321,3.19336 2.78321,9.19922 z"/>
                        </g>
                    </g>
                </g>
                <rect fill="#cecece" x="2495.054" width="103.10293" id="rect12021" stroke-opacity="1" gorn="0.3.0.0.96" fill-opacity="1" y="438.91754"  style="stroke-linecap:round;stroke-dasharray:none" height="426.69281" stroke-width="21.1488" stroke="#000000"/>
                <rect fill="#cecece" x="2495.0173" width="103.17583" id="rect5182" stroke-opacity="1" gorn="0.3.0.0.97" fill-opacity="1" y="438.09152"  style="fill:#d7d7d7;fill-opacity:1;stroke:#f0f0f0;stroke-linecap:round;stroke-dasharray:none;stroke-opacity:1" height="428.34485" stroke-width="14.1314" stroke="#ffffff"/>
                <circle fill="#cecece" id="path7223" stroke-opacity="1" cx="811.26648" r="87.278023" gorn="0.3.0.0.98" fill-opacity="1"  style="stroke-linecap:round;stroke-dasharray:none" cy="897.88141" stroke-width="13.8889" stroke="#1c1c1c"/>
                <path fill="#555555" id="circle8057" stroke-opacity="1" gorn="0.3.0.0.99" fill-opacity="1"  style="stroke-linecap:round;stroke-dasharray:none" d="m 853.53926,824.66281 a 84.545555,84.545555 0 0 1 30.94582,115.49138 84.545555,84.545555 0 0 1 -115.49138,30.94582 l 42.27278,-73.2186 z" stroke-width="13.8889" stroke="none"/>
                <path fill="#aeaeae" id="path8111" stroke-opacity="1" gorn="0.3.0.0.100" fill-opacity="1"  style="stroke-linecap:round;stroke-dasharray:none" d="m 768.9937,971.10001 a 84.545555,84.545555 0 0 1 -42.27278,-73.2186 84.545555,84.545555 0 0 1 42.27278,-73.2186 84.545555,84.545555 0 0 1 84.54556,0 l -42.27278,73.2186 z" stroke-width="13.8889" stroke="none"/>
                <circle fill="#aeaeae" id="path8165" stroke-opacity="1" cx="810.85913" r="47.135029" gorn="0.3.0.0.101" fill-opacity="1"  style="stroke-linecap:round;stroke-dasharray:none" cy="898.29803" stroke-width="6.94445" stroke="#000000"/>
                <circle fill="#aeaeae" id="path8167" stroke-opacity="1" cx="812.46692" r="46.371475" gorn="0.3.0.0.102" fill-opacity="1"  style="stroke-linecap:round;stroke-dasharray:none" cy="305.27887" stroke-width="6.94445" stroke="#000000"/>
                <circle fill="#0fff00" id="circle8169" stroke-opacity="1" cx="812.46692" r="27.244217" gorn="0.3.0.0.103" fill-opacity="1"  style="stroke-linecap:round;stroke-dasharray:none" cy="305.27887" stroke-width="6.94445" stroke="#000000"/>
                <g aria-label="C" id="text9169" gorn="0.3.0.0.104"  style="font-size:55.5556px;line-height:1;-inkscape-font-specification:sans-serif">
                    <path id="path12994" gorn="0.3.0.0.104.0"  d="m 2692.1319,926.05719 q -1.492,0.65104 -2.7127,1.2207 -1.1936,0.56966 -3.1467,1.19358 -1.6547,0.51541 -3.6079,0.86806 -1.926,0.37977 -4.2589,0.37977 -4.3945,0 -8.0024,-1.2207 -3.5807,-1.24784 -6.2391,-3.87913 -2.6042,-2.57704 -4.069,-6.53755 -1.4649,-3.98763 -1.4649,-9.25022 0,-4.99133 1.4106,-8.92471 1.4106,-3.93338 4.069,-6.64605 2.5771,-2.6313 6.2121,-4.01476 3.6621,-1.38347 8.1109,-1.38347 3.2552,0 6.4832,0.78668 3.2553,0.78668 7.2158,2.76693 v 6.37479 h -0.4069 q -3.3366,-2.79406 -6.619,-4.06902 -3.2823,-1.27495 -7.0258,-1.27495 -3.0653,0 -5.5339,1.00369 -2.4414,0.97656 -4.3674,3.06532 -1.8717,2.03451 -2.9297,5.15408 -1.0308,3.09245 -1.0308,7.16147 0,4.2589 1.1394,7.32422 1.1664,3.06532 2.9839,4.99132 1.8989,2.00738 4.4217,2.98395 2.5499,0.94943 5.3711,0.94943 3.8791,0 7.2699,-1.32921 3.3909,-1.32921 6.3477,-3.98763 h 0.3798 z"/>
                </g>
                <g transform="scale(-1)" >
                    <g >
                        <g id="g423" gorn="0.3.0.0.105.0.0" >
                            <g id="g421" gorn="0.3.0.0.105.0.0.0" >
                                <g aria-label="STATUS" id="text9173" gorn="0.3.0.0.105.0.0.0.0" font-size="261.317"  style="line-height:1.25;font-family:Droid Sans;-inkscape-font-specification:Droid Sans;letter-spacing:0px;word-spacing:0px" stroke-width="10.4167">
                                    <path id="path12997" gorn="0.3.0.0.105.0.0.0.0.0"  d="m -1014.1576,-172.19109 q 0,3.54004 -1.6683,6.9987 -1.6276,3.45867 -4.598,5.85938 -3.2552,2.60417 -7.6091,4.06902 -4.3131,1.46484 -10.4166,1.46484 -6.5512,0 -11.8002,-1.2207 -5.2083,-1.22071 -10.6201,-3.62142 v -10.09116 h 0.5697 q 4.5979,3.82488 10.6201,5.90007 6.0221,2.0752 11.3118,2.0752 7.487,0 11.6374,-2.80762 4.1911,-2.80762 4.1911,-7.48699 0,-4.02832 -1.9938,-5.94075 -1.9531,-1.91244 -5.9815,-2.97038 -3.0517,-0.81381 -6.6325,-1.34278 -3.54,-0.52897 -7.5276,-1.34277 -8.0567,-1.70899 -11.9629,-5.81869 -3.8656,-4.1504 -3.8656,-10.78289 0,-7.60905 6.429,-12.45118 6.4291,-4.88282 16.3168,-4.88282 6.3883,0 11.7187,1.22071 5.3305,1.2207 9.4402,3.01107 v 9.52149 h -0.5697 q -3.4587,-2.92969 -9.1146,-4.84213 -5.6152,-1.95312 -11.5153,-1.95312 -6.4697,0 -10.4167,2.68555 -3.9062,2.68554 -3.9062,6.91732 0,3.78418 1.9531,5.94076 1.9531,2.15658 6.8766,3.2959 2.6042,0.56966 7.4056,1.38346 4.8015,0.81381 8.1381,1.6683 6.7545,1.79037 10.1725,5.41179 3.418,3.62142 3.418,10.13184 z"/>
                                    <path id="path12999" gorn="0.3.0.0.105.0.0.0.0.1"  d="m -958.00525,-208.32393 h -21.64715 v 53.42615 h -8.05665 v -53.42615 h -21.64715 v -7.16146 h 51.35095 z"/>
                                    <path id="path13001" gorn="0.3.0.0.105.0.0.0.0.2"  d="m -906.97982,-154.89778 h -8.58561 l -5.94076,-16.88641 h -26.20445 l -5.94076,16.88641 h -8.17872 l 22.05406,-60.58761 h 10.74219 z m -17.00847,-23.80373 -10.62013,-29.74449 -10.66081,29.74449 z"/>
                                    <path id="path13003" gorn="0.3.0.0.105.0.0.0.0.3"  d="m -859.45374,-208.32393 h -21.64715 v 53.42615 h -8.05665 v -53.42615 h -21.64715 v -7.16146 h 51.35095 z"/>
                                    <path id="path13005" gorn="0.3.0.0.105.0.0.0.0.4"  d="m -805.70207,-179.23048 q 0,6.5918 -1.46484,11.51531 -1.42416,4.88281 -4.72006,8.13802 -3.13314,3.09245 -7.32422,4.51661 -4.19109,1.42415 -9.76563,1.42415 -5.69662,0 -9.9284,-1.50553 -4.23177,-1.50554 -7.12077,-4.43523 -3.2959,-3.33659 -4.76075,-8.05664 -1.42415,-4.72006 -1.42415,-11.59669 v -36.25491 h 8.05665 v 36.66181 q 0,4.92351 0.65104,7.77181 0.69173,2.84831 2.27865,5.16765 1.79036,2.64486 4.84212,3.98764 3.09245,1.34277 7.40561,1.34277 4.35384,0 7.4056,-1.30208 3.05176,-1.34278 4.88282,-4.02833 1.58691,-2.31934 2.23795,-5.28972 0.69174,-3.01107 0.69174,-7.44629 v -36.86526 h 8.05664 z"/>
                                    <path id="path13007" gorn="0.3.0.0.105.0.0.0.0.5"  d="m -746.29448,-172.19109 q 0,3.54004 -1.66829,6.9987 -1.62761,3.45867 -4.59799,5.85938 -3.25521,2.60417 -7.60905,4.06902 -4.31316,1.46484 -10.41668,1.46484 -6.55111,0 -11.80014,-1.2207 -5.20833,-1.22071 -10.62012,-3.62142 v -10.09116 h 0.56966 q 4.59799,3.82488 10.62013,5.90007 6.02214,2.0752 11.31185,2.0752 7.48699,0 11.63738,-2.80762 4.19109,-2.80762 4.19109,-7.48699 0,-4.02832 -1.99382,-5.94075 -1.95313,-1.91244 -5.98145,-2.97038 -3.05176,-0.81381 -6.63249,-1.34278 -3.54004,-0.52897 -7.52768,-1.34277 -8.05664,-1.70899 -11.9629,-5.81869 -3.86556,-4.1504 -3.86556,-10.78289 0,-7.60905 6.42904,-12.45118 6.42904,-4.88282 16.31675,-4.88282 6.38835,0 11.71876,1.22071 5.3304,1.2207 9.44011,3.01107 v 9.52149 h -0.56967 q -3.45866,-2.92969 -9.11459,-4.84213 -5.61523,-1.95312 -11.5153,-1.95312 -6.46974,0 -10.41668,2.68555 -3.90625,2.68554 -3.90625,6.91732 0,3.78418 1.95313,5.94076 1.95312,2.15658 6.87663,3.2959 2.60417,0.56966 7.4056,1.38346 4.80144,0.81381 8.13803,1.6683 6.75456,1.79037 10.17253,5.41179 3.41797,3.62142 3.41797,10.13184 z"/>
                                </g>
                            </g>
                        </g>
                    </g>
                </g>
                <g aria-label="MODE" id="text9177" gorn="0.3.0.0.106" font-size="261.317"  style="line-height:1.25;font-family:Droid Sans;-inkscape-font-specification:Droid Sans;letter-spacing:0px;word-spacing:0px" stroke-width="10.4167">
                    <path id="path13010" gorn="0.3.0.0.106.0"  d="m 806.79938,1090.3223 h -8.05664 v -52.2055 l -16.84572,35.5225 h -4.80143 l -16.72365,-35.5225 v 52.2055 h -7.52768 v -60.5876 h 10.98634 l 16.15399,33.7321 15.62501,-33.7321 h 11.18978 z"/>
                    <path id="path13012" gorn="0.3.0.0.106.1"  d="m 868.24149,1036.6927 q 3.7028,4.069 5.65592,9.9691 1.99382,5.9 1.99382,13.387 0,7.487 -2.03451,13.4277 -1.99381,5.9001 -5.61523,9.8471 -3.7435,4.1097 -8.87045,6.1849 -5.08627,2.0752 -11.63738,2.0752 -6.38835,0 -11.63738,-2.1159 -5.20834,-2.1159 -8.87045,-6.1442 -3.66211,-4.0284 -5.65593,-9.8877 -1.95313,-5.8594 -1.95313,-13.3871 0,-7.4056 1.95313,-13.265 1.95313,-5.9 5.69662,-10.0911 3.58073,-3.9877 8.87045,-6.1036 5.33041,-2.1158 11.59669,-2.1158 6.51042,0 11.67807,2.1565 5.20833,2.1159 8.82976,6.0629 z m -0.73243,23.3561 q 0,-11.8001 -5.28971,-18.1885 -5.28972,-6.429 -14.445,-6.429 -9.23666,0 -14.52638,6.429 -5.24903,6.3884 -5.24903,18.1885 0,11.9222 5.3711,18.2699 5.3711,6.3069 14.40431,6.3069 9.03321,0 14.36362,-6.3069 5.37109,-6.3477 5.37109,-18.2699 z"/>
                    <path id="path13014" gorn="0.3.0.0.106.2"  d="m 939.85612,1060.0895 q 0,8.2601 -3.62142,14.974 -3.58073,6.7138 -9.56218,10.4166 -4.15039,2.5635 -9.27735,3.7028 -5.08627,1.1394 -13.42774,1.1394 h -15.2995 v -60.5876 h 15.13673 q 8.87045,0 14.07879,1.302 5.24903,1.2614 8.87045,3.4994 6.1849,3.8656 9.64356,10.2946 3.45866,6.429 3.45866,15.2588 z m -8.42285,-0.1221 q 0,-7.1207 -2.4821,-12.0036 -2.4821,-4.8828 -7.40561,-7.6904 -3.58073,-2.0345 -7.60905,-2.8076 -4.02833,-0.8138 -9.64356,-0.8138 h -7.56837 v 46.7529 h 7.56837 q 5.81869,0 10.13184,-0.8545 4.35384,-0.8544 7.97527,-3.1738 4.5166,-2.889 6.75456,-7.609 2.27865,-4.7201 2.27865,-11.8002 z"/>
                    <path id="path13016" gorn="0.3.0.0.106.3"  d="m 992.79399,1090.3223 h -39.91703 v -60.5876 h 39.91703 v 7.1614 h -31.86038 v 16.6016 h 31.86038 v 7.1615 h -31.86038 v 22.5016 h 31.86038 z"/>
                </g>
                <g transform="rotate(90)" >
                    <g >
                        <g id="g435" gorn="0.3.0.0.107.0.0" >
                            <g id="g433" gorn="0.3.0.0.107.0.0.0" >
                                <g aria-label="V+" id="text9181" gorn="0.3.0.0.107.0.0.0.0" font-size="348.423"  style="font-weight:bold;line-height:1.25;-inkscape-font-specification:'sans-serif Bold';letter-spacing:0px;word-spacing:0px" stroke-width="10.4167">
                                    <path id="path13019" gorn="0.3.0.0.107.0.0.0.0.0"  style="font-weight:normal;-inkscape-font-specification:sans-serif" d="m 456.21979,-474.76274 -29.40535,80.78334 h -14.3229 l -29.40535,-80.78334 h 11.50172 l 25.33635,71.07198 25.33634,-71.07198 z"/>
                                    <path id="path13021" gorn="0.3.0.0.107.0.0.0.0.1"  style="font-weight:normal;-inkscape-font-specification:sans-serif" d="m 537.1659,-425.01236 h -29.56812 v 29.56812 h -9.00606 v -29.56812 H 469.0236 v -8.68054 h 29.56812 v -29.56812 h 9.00606 v 29.56812 h 29.56812 z"/>
                                </g>
                            </g>
                        </g>
                    </g>
                </g>
                <g transform="rotate(90)" >
                    <g >
                        <g id="g442" gorn="0.3.0.0.108.0.0" >
                            <g id="g440" gorn="0.3.0.0.108.0.0.0" >
                                <g aria-label="V" id="text9185" gorn="0.3.0.0.108.0.0.0.0" font-size="348.423"  style="font-weight:bold;line-height:1.25;-inkscape-font-specification:'sans-serif Bold';letter-spacing:0px;word-spacing:0px" stroke-width="10.4167">
                                    <path id="path13024" gorn="0.3.0.0.108.0.0.0.0.0"  style="font-weight:normal;-inkscape-font-specification:sans-serif" d="m 823.02216,-474.76274 -29.40535,80.78334 h -14.3229 l -29.40535,-80.78334 h 11.50172 l 25.33635,71.07198 25.33634,-71.07198 z"/>
                                    <path id="path13026" gorn="0.3.0.0.108.0.0.0.0.1"  style="font-weight:normal;-inkscape-font-specification:sans-serif" d="m 903.42573,-425.01236 h -67.05722 v -8.68054 h 67.05722 z"/>
                                </g>
                            </g>
                        </g>
                    </g>
                </g>
                <rect fill="#e8e8e8" x="486.37888" width="221.32968" id="rect9239" stroke-opacity="1" gorn="0.3.0.0.109" fill-opacity="1" y="8.1973953"  style="stroke-linecap:round;stroke-dasharray:none" height="221.3297" stroke-width="6.94445" stroke="#000000"/>
                <rect fill="#e8e8e8" x="2090.5469" width="221.32968" id="rect9501" stroke-opacity="1" gorn="0.3.0.0.110" fill-opacity="1" y="8.1973953"  style="stroke-linecap:round;stroke-dasharray:none" height="221.3297" stroke-width="6.94445" stroke="#000000"/>
                <rect fill="#e8e8e8" x="486.37888" width="221.32968" id="rect9503" stroke-opacity="1" gorn="0.3.0.0.111" fill-opacity="1" y="1057.035"  style="stroke-linecap:round;stroke-dasharray:none" height="221.3297" stroke-width="6.94445" stroke="#000000"/>
                <rect fill="#e8e8e8" x="2090.5469" width="221.32968" id="rect9505" stroke-opacity="1" gorn="0.3.0.0.112" fill-opacity="1" y="1057.035"  style="stroke-linecap:round;stroke-dasharray:none" height="221.3297" stroke-width="6.94445" stroke="#000000"/>
                <path fill="none" id="path25199" gorn="0.3.0.0.113"  d="M 168.17432,95.398522 133.12411,6.596755" stroke-width="10" stroke="#000000"/>
                <path fill="none" id="path25201" stroke-opacity="1" gorn="0.3.0.0.114" fill-opacity="1"  style="font-variation-settings:normal;opacity:1;vector-effect:none;stroke-linecap:butt;stroke-linejoin:miter;stroke-miterlimit:4;stroke-dasharray:none;stroke-dashoffset:0;stop-opacity:1;-inkscape-stop-color:#000000" d="M 129.93415,129.02733 46.597651,95.055164" stroke-width="10" stroke="#000000"/>
                <path fill="none" id="path25203" stroke-opacity="1" gorn="0.3.0.0.115" fill-opacity="1"  style="font-variation-settings:normal;opacity:1;vector-effect:none;stroke-linecap:butt;stroke-linejoin:miter;stroke-miterlimit:4;stroke-dasharray:none;stroke-dashoffset:0;stop-opacity:1;-inkscape-stop-color:#000000" d="M 129.93415,234.98046 46.597651,285.95744" stroke-width="10" stroke="#000000"/>
                <path fill="none" id="path25205" stroke-opacity="1" gorn="0.3.0.0.116" fill-opacity="1"  style="font-variation-settings:normal;opacity:1;vector-effect:none;stroke-linecap:butt;stroke-linejoin:miter;stroke-miterlimit:4;stroke-dasharray:none;stroke-dashoffset:0;stop-opacity:1;-inkscape-stop-color:#000000" d="m 348.09953,321.35505 -170.7044,49.48219" stroke-width="10" stroke="#000000"/>
                <path fill="none" id="path25207" stroke-opacity="1" gorn="0.3.0.0.117" fill-opacity="1"  style="font-variation-settings:normal;opacity:1;vector-effect:none;stroke-linecap:butt;stroke-linejoin:miter;stroke-miterlimit:4;stroke-dasharray:none;stroke-dashoffset:0;stop-opacity:1;-inkscape-stop-color:#000000" d="M 348.09753,973.59375 172.93919,924.08458" stroke-width="10" stroke="#000000"/>
                <path fill="none" id="path25209" stroke-opacity="1" gorn="0.3.0.0.118" fill-opacity="1"  style="font-variation-settings:normal;opacity:1;vector-effect:none;stroke-linecap:butt;stroke-linejoin:miter;stroke-miterlimit:4;stroke-dasharray:none;stroke-dashoffset:0;stop-opacity:1;-inkscape-stop-color:#000000" d="M 129.93409,1054.1895 46.597651,1003.2119" stroke-width="10" stroke="#000000"/>
                <path fill="none" id="path25211" stroke-opacity="1" gorn="0.3.0.0.119" fill-opacity="1"  style="font-variation-settings:normal;opacity:1;vector-effect:none;stroke-linecap:butt;stroke-linejoin:miter;stroke-miterlimit:4;stroke-dasharray:none;stroke-dashoffset:0;stop-opacity:1;-inkscape-stop-color:#000000" d="M 129.93409,1160.1366 46.597651,1194.114" stroke-width="10" stroke="#000000"/>
                <path fill="none" id="path25213" stroke-opacity="1" gorn="0.3.0.0.120" fill-opacity="1"  style="font-variation-settings:normal;opacity:1;vector-effect:none;stroke-linecap:butt;stroke-linejoin:miter;stroke-miterlimit:4;stroke-dasharray:none;stroke-dashoffset:0;stop-opacity:1;-inkscape-stop-color:#000000" d="m 168.17823,1193.7713 -35.05412,88.801" stroke-width="10" stroke="#000000"/>
                <path fill="none" id="path25215" stroke-opacity="1" gorn="0.3.0.0.121" fill-opacity="1"  style="font-variation-settings:normal;opacity:1;vector-effect:none;stroke-linecap:butt;stroke-linejoin:miter;stroke-miterlimit:4;stroke-dasharray:none;stroke-dashoffset:0;stop-opacity:1;-inkscape-stop-color:#000000" d="m 2680.5563,1282.5723 -35.0544,-88.801" stroke-width="10" stroke="#000000"/>
                <path fill="none" id="path25217" stroke-opacity="1" gorn="0.3.0.0.122" fill-opacity="1"  style="font-variation-settings:normal;opacity:1;vector-effect:none;stroke-linecap:butt;stroke-linejoin:miter;stroke-miterlimit:4;stroke-dasharray:none;stroke-dashoffset:0;stop-opacity:1;-inkscape-stop-color:#000000" d="m 2683.7461,1160.1366 83.3365,33.9774" stroke-width="10" stroke="#000000"/>
                <path fill="none" id="path25219" stroke-opacity="1" gorn="0.3.0.0.123" fill-opacity="1"  style="font-variation-settings:normal;opacity:1;vector-effect:none;stroke-linecap:butt;stroke-linejoin:miter;stroke-miterlimit:4;stroke-dasharray:none;stroke-dashoffset:0;stop-opacity:1;-inkscape-stop-color:#000000" d="m 2683.7461,1054.1895 83.3365,-50.9776" stroke-width="10" stroke="#000000"/>
                <path fill="none" id="path25221" stroke-opacity="1" gorn="0.3.0.0.124" fill-opacity="1"  style="font-variation-settings:normal;opacity:1;vector-effect:none;stroke-linecap:butt;stroke-linejoin:miter;stroke-miterlimit:4;stroke-dasharray:none;stroke-dashoffset:0;stop-opacity:1;-inkscape-stop-color:#000000" d="m 2465.5787,977.5859 175.0786,-54.98673" stroke-width="10" stroke="#000000"/>
                <path fill="none" id="path25223" stroke-opacity="1" gorn="0.3.0.0.125" fill-opacity="1"  style="font-variation-settings:normal;opacity:1;vector-effect:none;stroke-linecap:butt;stroke-linejoin:miter;stroke-miterlimit:4;stroke-dasharray:none;stroke-dashoffset:0;stop-opacity:1;-inkscape-stop-color:#000000" d="m 2465.5787,315.56833 171.316,49.40725" stroke-width="10" stroke="#000000"/>
                <path fill="none" id="path25225" stroke-opacity="1" gorn="0.3.0.0.126" fill-opacity="1"  style="font-variation-settings:normal;opacity:1;vector-effect:none;stroke-linecap:butt;stroke-linejoin:miter;stroke-miterlimit:4;stroke-dasharray:none;stroke-dashoffset:0;stop-opacity:1;-inkscape-stop-color:#000000" d="m 2767.0826,285.95744 -83.3404,-50.97893" stroke-width="10" stroke="#000000"/>
                <path fill="none" id="path25227" stroke-opacity="1" gorn="0.3.0.0.127" fill-opacity="1"  style="font-variation-settings:normal;opacity:1;vector-effect:none;stroke-linecap:butt;stroke-linejoin:miter;stroke-miterlimit:4;stroke-dasharray:none;stroke-dashoffset:0;stop-opacity:1;-inkscape-stop-color:#000000" d="m 2767.0826,95.055164 -83.3404,33.976086" stroke-width="10" stroke="#000000"/>
                <path fill="none" id="path25229" stroke-opacity="1" gorn="0.3.0.0.128" fill-opacity="1"  style="font-variation-settings:normal;opacity:1;vector-effect:none;stroke-linecap:butt;stroke-linejoin:miter;stroke-miterlimit:4;stroke-dasharray:none;stroke-dashoffset:0;stop-opacity:1;-inkscape-stop-color:#000000" d="M 2680.5563,6.596755 2645.498,95.398522" stroke-width="10" stroke="#000000"/>
                <path fill="#000000" id="path25243" gorn="0.3.0.0.129"  d="m 1110.2541,1161.4196 c -1.6488,-1.2131 -1.9632,-83.608 -1.9596,-513.58552 0,-281.67733 0.5387,-512.67505 1.1919,-513.32827 1.9553,-1.9553 670.7138,-1.50245 673.0733,0.45577 2.8264,2.34569 2.9851,1025.44062 0.1593,1026.52502 -3.7982,1.4575 -670.4832,1.3911 -672.4649,-0.067 z m 500.5678,-510.77806 c 0.2169,-252.31858 0.042,-460.22404 -0.3888,-462.01212 -0.7395,-3.07003 -1.501,-3.25106 -13.6745,-3.25106 -7.0903,0 -13.26,0.59632 -13.7105,1.32517 -1.0921,1.76709 -1.0597,920.38177 0.033,922.14897 0.4713,0.7626 6.7672,1.1931 14.0992,0.964 l 13.2477,-0.4139 z m -449.1548,456.07456 c 6.2118,-5.3483 60.7883,-41.3254 63.8588,-42.096 2.5066,-0.6292 5.2024,0.259 9.2688,3.0538 3.1538,2.1675 13.5367,9.2368 23.0732,15.7096 9.5364,6.4727 20.4497,13.8981 24.2516,16.5009 10.3842,7.1088 11.6192,5.8901 10.8916,-10.747 -0.4124,-9.4277 -1.2574,-14.3715 -2.7001,-15.7971 -1.1549,-1.1412 -9.2522,-6.2861 -17.994,-11.4331 -18.1783,-10.7032 -21.3074,-13.1823 -20.6789,-16.3833 0.2476,-1.2606 8.8891,-7.319 19.2033,-13.4632 13.8407,-8.2447 19.2174,-12.2578 20.5249,-15.3193 0.9744,-2.2815 1.801,-9.858 1.8368,-16.83659 0.079,-15.31487 -1.3445,-16.59562 -10.3623,-9.32504 -10.7059,8.63152 -53.6114,37.18503 -55.8756,37.18503 -1.19,0 -16.3433,-9.4824 -33.674,-21.0719 -38.0646,-25.45501 -37.9168,-25.19446 -18.1448,-31.97151 7.351,-2.51964 33.522,-12.14313 58.1579,-21.38552 24.6358,-9.2424 47.5056,-17.80304 50.8216,-19.02363 7.7444,-2.85059 9.6547,-7.28673 8.8987,-20.66521 -0.6601,-11.68188 -1.8477,-13.36567 -12.1077,-17.16602 -37.3669,-13.84087 -106.9928,-40.30981 -113.1285,-43.00682 -11.4656,-5.03988 -13.2321,-3.57634 -13.2321,10.96266 0,8.39556 0.5935,11.99877 2.2491,13.65433 1.2369,1.23698 7.6762,3.90444 14.3094,5.9277 6.6332,2.02324 12.9103,4.70275 13.9492,5.95446 1.4198,1.71076 1.7958,8.0675 1.5143,25.60245 -0.4313,26.86491 -0.2951,26.57525 -14.4346,30.69539 -13.7845,4.01672 -15.8362,5.0338 -16.7076,8.28241 -0.4622,1.72302 -0.8492,15.38847 -0.8601,30.36768 l -0.02,27.23493 4.1713,3.8308 c 2.2942,2.1069 12.3888,8.7074 22.4325,14.6676 23.9617,14.2198 23.9892,13.8073 -1.9756,29.6985 -10.693,6.5445 -20.6087,13.3401 -22.035,15.1015 -2.0969,2.5895 -2.5932,5.891 -2.5932,17.2507 0,7.7266 0.4335,14.4818 0.9633,15.0116 1.497,1.4969 3.6545,1.1457 6.1475,-1.0008 z m 46.6401,-176.0497 c -1.815,-1.81501 -2.5013,-26.37303 -0.8568,-30.65855 1.197,-3.11955 1.916,-3.00731 18.5129,2.88991 8.011,2.84651 17.3408,6.15587 20.7328,7.35416 6.6451,2.34748 10.9341,5.7459 9.7235,7.70453 -0.4137,0.6695 -2.7115,1.64759 -5.1062,2.17354 -2.3946,0.52596 -12.1331,3.50194 -21.6411,6.6133 -19.4707,6.37156 -19.0026,6.2856 -21.3651,3.92311 z m 143.0316,160.9613 c 8.1938,-6.2 18.7991,-13.9857 23.5673,-17.3015 4.7682,-3.3158 12.5708,-8.8545 17.339,-12.3083 4.7682,-3.4538 16.0931,-11.6618 25.1664,-18.24 9.0732,-6.5782 17.9708,-12.632 19.7724,-13.4529 3.8931,-1.7738 4.7874,-1.2784 29.0865,16.1111 9.3524,6.6931 28.7083,20.5306 43.013,30.75 14.3046,10.2194 28.0893,20.2442 30.6325,22.2773 2.5432,2.0331 5.3066,3.2747 6.1409,2.7591 2.3146,-1.4306 2.0458,-60.2109 -0.2893,-63.2579 -0.9934,-1.2963 -18.0615,-13.1233 -37.9291,-26.2822 -49.2116,-32.59448 -47.6871,-31.29613 -40.124,-34.1716 2.7479,-1.04475 5.709,-1.03001 9.7532,0.0485 3.194,0.85184 19.3195,2.25598 35.8345,3.12032 23.3982,1.22456 30.4957,1.18268 32.1494,-0.18973 2.7996,-2.32347 3.1517,-51.81691 0.3882,-54.58033 -2.5087,-2.50878 -207.871,-2.50878 -210.3798,0 -2.6194,2.61934 -2.4266,52.24424 0.2115,54.43361 1.4123,1.17217 13.3877,1.26845 43.7087,0.35142 22.9698,-0.69472 42.0315,-1.01928 42.3593,-0.72125 1.4565,1.32434 -2.9072,7.62685 -5.9263,8.55941 -1.8365,0.56728 -8.866,4.63915 -15.621,9.04859 -40.4091,26.37786 -64.4148,42.60216 -65.2427,44.09426 -0.7521,1.3556 -2.0053,54.9283 -1.3834,59.1412 0.3555,2.4085 3.5275,0.59 17.7728,-10.1891 z m 312.8417,-107.15191 c 5.3937,-3.28871 8.4245,-8.56038 10.5404,-18.33365 2.4216,-11.18512 4.3847,-14.91404 8.3792,-15.91659 2.7746,-0.6964 4.3204,-0.12252 6.3192,2.34583 4.2018,5.189 2.7712,12.76238 -3.2137,17.01294 -3.8578,2.73982 -5.8537,9.73522 -3.641,12.76127 4.4126,6.03461 15.281,-2.1114 18.8496,-14.12801 6.2018,-20.88371 -13.1945,-40.21823 -27.9181,-27.82915 -4.2674,3.59078 -7.3253,10.06961 -10.2722,21.76443 -1.9214,7.62474 -5.9375,11.35569 -10.8867,10.11354 -8.222,-2.0636 -8.185,-15.28254 0.064,-22.78886 3.7495,-3.41194 4.9862,-5.71292 4.9862,-9.27709 0,-6.29428 -1.9834,-7.20285 -8.9076,-4.08049 -15.7762,7.11408 -17.3515,39.13089 -2.3745,48.26208 6.0283,3.67538 12.1492,3.70712 18.0753,0.0938 z m -2.516,-61.39811 c 2.2736,-2.73949 0.6617,-7.62991 -2.886,-8.75589 -1.5377,-0.48804 -4.7555,-2.84705 -7.1507,-5.24228 -7.3499,-7.34996 -5.3898,-18.62065 4.091,-23.52339 10.276,-5.31391 23.4805,-3.81202 30.7952,3.5027 5.834,5.83402 5.5434,12.14558 -0.9508,20.65081 -5.292,6.93071 -6.2337,10.82182 -3.3233,13.73218 6.7839,6.78394 20.2733,-9.24062 20.2733,-24.08349 0,-12.62602 -8.3601,-24.23192 -20.4134,-28.33888 -23.6035,-8.04254 -46.2517,5.95636 -46.3545,28.65186 -0.039,8.59598 3.0575,15.44194 9.571,21.16086 5.4655,4.7988 13.3324,5.87937 16.3482,2.24552 z M 1532.402,909.45396 c 3.1788,-1.45972 6.9794,-4.00324 8.4457,-5.65228 6.3553,-7.14737 6.5958,-10.27409 6.6625,-86.60019 l 0.063,-72.57374 -3.251,-1.83947 c -2.582,-1.46085 -24.5146,-1.69075 -106.5626,-1.11699 l -103.3116,0.72246 -0.8102,25.28604 c -0.6193,19.32715 -0.3684,26.03337 1.0647,28.45726 l 1.8749,3.1712 43.3665,-0.87143 c 23.8516,-0.47928 43.3665,-0.46867 43.3665,0.0236 0,2.0938 -7.2261,7.30609 -18.7366,13.51488 -26.0763,14.06566 -65.9362,37.13042 -69.0421,39.95092 -3.1521,2.86253 -3.251,3.78124 -3.251,30.19924 0,20.93785 0.4323,27.41279 1.8669,27.96331 1.6088,0.61736 55.0522,-24.33342 79.2507,-36.99931 12.0842,-6.3251 12.273,-6.21381 13.144,7.7463 0.7842,12.57016 2.8814,18.36849 8.5617,23.67212 7.5774,7.07482 10.8627,7.54883 52.5052,7.57533 34.8292,0.0221 39.6325,-0.25978 44.7924,-2.62922 z m -69.4977,-56.14979 c -2.749,-2.74899 -2.9408,-46.31656 -0.2195,-49.84808 1.4486,-1.87991 5.1906,-2.42865 18.9038,-2.77213 15.4381,-0.38671 17.244,-0.16675 18.6055,2.26607 1.9195,3.43002 1.8447,46.09127 -0.087,49.54287 -1.2248,2.1885 -3.7843,2.5648 -18.3006,2.69063 -12.7046,0.1101 -17.3775,-0.35448 -18.9024,-1.87936 z m 237.1082,2.51541 c 3.5495,-2.94584 2.7016,-8.53774 -1.5391,-10.15005 -5.0068,-1.90358 -56.385,-1.82938 -59.965,0.0865 -3.5687,1.90992 -3.6263,7.87225 -0.1,10.34289 3.7264,2.61076 58.4205,2.36268 61.6041,-0.27943 z m -408.4042,-21.95427 c 1.7703,-4.83641 1.0378,-37.04243 -0.8862,-38.9665 -1.6737,-1.67364 -5.6623,-3.08745 -35.0216,-12.41381 -15.221,-4.83513 -29.6115,-9.15137 -49.1272,-14.73497 -2.5586,-0.73205 -3.6123,-2.04193 -3.6123,-4.4906 0,-2.45057 1.0517,-3.75595 3.6123,-4.48356 17.2609,-4.90483 82.06,-26.60642 83.5796,-27.99131 2.9976,-2.73174 3.4263,-36.64927 0.5062,-40.04658 -2.0093,-2.33762 -7.0204,-2.52861 -66.3433,-2.52861 -41.4707,0 -65.1584,0.5291 -66.9646,1.49575 -2.3985,1.28361 -2.7949,3.10294 -2.7949,12.82734 0,8.40065 0.5709,11.80537 2.2072,13.16339 1.7353,1.44013 11.1349,1.60901 43.9604,0.78988 42.6158,-1.06348 48.6554,-0.5237 46.8478,4.18696 -0.4448,1.1591 -3.7715,2.51785 -7.532,3.07642 -3.7045,0.55022 -15.1882,3.87529 -25.5193,7.38904 -10.3312,3.51373 -26.9116,9.0179 -36.8454,12.23148 -10.4594,3.38361 -19.1258,7.05994 -20.5901,8.73446 -3.1601,3.61378 -3.5653,18.69624 -0.569,21.18292 1.0778,0.89447 20.4216,7.87049 42.9863,15.50226 49.7933,16.841 51.4164,17.48341 49.3627,19.53714 -1.6112,1.61118 -83.3679,1.93719 -85.9478,0.34272 -0.6948,-0.42941 -2.8602,0.26559 -4.812,1.54447 -3.1699,2.07697 -3.5488,3.33457 -3.5488,11.77886 0,15.84928 -6.8705,14.37899 69.249,14.81931 l 66.5834,0.38519 z m 408.4373,1.67169 c 0.5095,-0.82433 0.9827,-11.67119 1.0515,-24.10412 0.1152,-20.78531 -0.098,-22.7476 -2.6472,-24.37226 -1.8093,-1.15318 -3.9016,-1.32894 -6.0234,-0.50603 -2.7595,1.07028 -3.251,2.33473 -3.251,8.36353 0,8.882 0.1325,8.8388 -27.1872,8.86487 -11.4541,0.0115 -21.9323,0.68721 -23.4799,1.51547 -3.652,1.95449 -3.5966,7.89326 0.098,10.48092 2.2816,1.59809 7.4095,1.88113 24.2734,1.33984 24.7542,-0.79457 26.2959,-0.18843 26.2959,10.33884 0,3.36046 0.7802,6.89019 1.7339,7.84383 2.129,2.12906 7.8744,2.2769 9.1362,0.23511 z m -14.1561,-60.08081 c 8.5093,-4.07951 11.991,-8.23257 15.4329,-18.40878 7.6444,-22.60133 -14.9384,-44.30188 -40.2161,-38.64497 -21.5774,4.82881 -31.8037,26.27039 -21.5311,45.14457 8.5538,15.71614 27.9633,20.70704 46.3143,11.90918 z m -23.445,-10.58564 c -10.2938,-2.43098 -15.1716,-7.71682 -15.1716,-16.44068 0,-7.08062 6.8139,-14.42795 15.566,-16.78466 6.5549,-1.76505 11.3187,-1.04742 19.1885,2.89063 11.5136,5.76142 11.6292,22.13302 0.197,27.89403 -5.1133,2.57675 -14.3681,3.71871 -19.7799,2.44068 z m -318.2919,-33.98801 c 4.4921,-2.00626 36.2137,-13.73916 50.2599,-18.58963 6.5113,-2.24851 15.1882,-5.39643 46.2373,-16.77464 9.1391,-3.34909 18.2421,-6.63658 20.2288,-7.30552 1.9868,-0.66894 8.814,-3.13404 15.1717,-5.47802 21.6983,-7.99987 47.6678,-17.40684 58.7846,-21.29363 6.1244,-2.14126 11.5389,-4.94673 12.076,-6.25696 1.7714,-4.32144 0.6705,-60.00134 -1.2241,-61.9112 -0.949,-0.95661 -12.7791,-5.60092 -26.289,-10.32069 -13.51,-4.71977 -34.967,-12.30109 -47.6823,-16.84736 -12.7152,-4.54628 -25.7195,-9.11481 -28.8983,-10.15227 -3.1788,-1.03747 -10.0061,-3.47861 -15.1716,-5.42475 -5.1656,-1.94615 -26.4258,-9.76016 -47.2449,-17.36448 -20.819,-7.60432 -39.2573,-14.5777 -40.974,-15.49643 -5.8925,-3.15358 -6.4609,-0.40369 -5.9225,28.65207 0.2754,14.86071 1.1149,27.76844 1.8654,28.68385 0.7506,0.9154 3.1262,2.08998 5.279,2.61017 3.1493,0.76095 27.5495,9.70981 54.1827,19.87171 7.3733,2.81331 8.2507,5.72431 8.2507,27.37572 0,22.48538 -1.0251,26.71732 -6.8123,28.12247 -2.2135,0.53747 -14.1029,4.7091 -26.4208,9.2703 -12.3179,4.5612 -24.7825,9.04947 -27.6991,9.97393 -2.9165,0.92447 -5.9544,2.46593 -6.7507,3.42549 -1.1369,1.36985 -2.4365,41.12392 -1.7921,54.82052 0.1467,3.11788 4.1346,3.27269 10.5456,0.40935 z m 107.6953,-89.02624 c -2.1479,-1.25107 -2.5286,-3.70238 -2.5286,-16.28362 0,-20.78679 0.7787,-21.27478 21.1929,-13.2811 7.0194,2.74865 15.515,5.69669 18.879,6.5512 7.4961,1.90415 10.8579,6.6783 6.7947,9.64938 -1.4446,1.05631 -3.7738,1.92054 -5.176,1.92054 -1.4022,0 -10.12,2.92596 -19.3729,6.50213 -9.2529,3.57617 -16.9218,6.48236 -17.042,6.45818 -0.1202,-0.0241 -1.3564,-0.70668 -2.7471,-1.51671 z m 213.5903,63.73227 c 6.473,-4.89772 8.2048,-5.25392 10.733,-2.20757 2.4821,2.99067 16.3559,2.94409 19.365,-0.065 1.2278,-1.22782 2.8662,-4.64144 3.6408,-7.58582 2.0247,-7.69613 2.4192,-34.6908 0.5345,-36.57552 -0.9958,-0.99579 -11.9818,-1.5454 -30.891,-1.5454 -25.0224,0 -29.5904,0.33483 -31.0075,2.27281 -2.3322,3.18944 -1.0813,30.27673 1.7642,38.20284 4.2286,11.779 15.7806,15.13086 25.861,7.50368 z m -15.916,-13.36596 c -2.6811,-3.82783 -3.0299,-17.10385 -0.5154,-19.61834 2.1287,-2.12866 10.4626,-2.26788 14.2552,-0.23815 4.0265,2.15495 3.9031,14.0445 -0.1999,19.26068 -3.8241,4.86157 -10.3509,5.14877 -13.5399,0.59581 z m 28.9474,-0.12657 c -3.3767,-2.46906 -4.991,-15.81398 -2.3046,-19.0509 0.9928,-1.19616 3.9642,-2.17484 6.6033,-2.17484 5.8328,0 9.6106,4.49623 8.418,10.01881 -1.2848,5.94886 -3.712,11.65494 -4.9578,11.65494 -0.6333,0 -2.036,0.33945 -3.1172,0.75435 -1.0812,0.41488 -3.17,-0.12614 -4.6417,-1.20236 z m -388.0246,-38.0533 c 1.5692,-1.56921 2.1662,-464.77594 0.6022,-467.30644 -1.2829,-2.07588 -25.7146,-1.6898 -28.3583,0.44813 -1.8655,1.50864 -2.0417,3.71021 -1.0696,13.36548 0.6401,6.35763 1.1358,110.68166 1.1016,231.83116 -0.054,190.18429 0.2223,220.47984 2.0203,221.79472 2.642,1.93217 23.7478,1.82293 25.7038,-0.13308 z m 396.4936,-12.10336 c 13.4226,-6.91225 19.7811,-25.83712 13.1093,-39.01766 -6.3519,-12.54843 -15.484,-17.81567 -31.1013,-17.93863 -9.3602,-0.0737 -11.7764,0.46698 -17.7325,3.96806 -9.7157,5.711 -14.518,13.51954 -15.2345,24.77122 -0.6499,10.20646 2.1528,17.36206 9.5532,24.39034 9.4505,8.97539 28.0668,10.69588 41.4058,3.82667 z m -27.3839,-10.75181 c -16.953,-6.16394 -16.3593,-24.83722 1.0106,-31.78727 6.6225,-2.64981 12.9251,-2.13988 21.088,1.70613 8.2136,3.86987 11.7336,16.04399 6.712,23.21336 -4.9921,7.12717 -18.9477,10.45387 -28.8106,6.86778 z m 1.3573,-60.28133 5.6921,-2.86384 6.3699,3.18125 c 4.7337,2.36411 8.0035,2.99712 12.7298,2.4644 12.2414,-1.37978 14.8577,-6.80964 15.1278,-31.39635 0.1094,-9.9525 -0.4273,-18.26642 -1.2311,-19.07016 -2.2943,-2.29438 -58.8362,-2.12564 -61.619,0.18388 -2.6153,2.17053 -2.9232,6.27373 -0.7722,10.29285 1.2728,2.37819 3.0962,2.79485 12.231,2.79485 9.4969,0 10.9264,0.35734 12.3932,3.09813 0.9261,1.7304 1.3069,5.71616 0.8627,9.02846 -0.9961,7.42654 -6.3311,12.43699 -13.2424,12.43699 -10.1197,0 -15.2354,4.57219 -12.9992,11.61797 0.8536,2.68936 1.7192,2.86703 9.8506,2.02193 4.9031,-0.50959 11.4762,-2.21525 14.6068,-3.79036 z m 13.9185,-12.63522 c -3.4905,-3.49043 -5.3123,-14.55634 -3.0825,-18.72281 1.5941,-2.9786 4.2785,-3.6872 11.6478,-3.07477 5.6244,0.46743 7.2246,2.70805 7.2246,10.11616 0,12.03931 -8.87,18.60135 -15.7899,11.68142 z m -142.0669,-17.6182 c 3.8123,-1.84548 7.8742,-5.3958 10.2094,-8.92343 l 3.8782,-5.85855 0.4116,-73.475 c 0.2265,-40.41125 -0.1391,-74.45933 -0.8124,-75.66238 -1.0755,-1.9218 -13.9167,-2.18739 -105.7602,-2.18739 -60.4648,0 -105.0874,0.55141 -105.8439,1.30793 -0.7194,0.71936 -1.3373,12.84224 -1.3732,26.93975 -0.05,19.84093 0.3788,26.03394 1.9,27.41178 1.5089,1.36666 10.0176,1.54452 36.6432,0.76598 32.2235,-0.94223 34.8413,-0.8312 36.9854,1.56866 1.9662,2.20071 2.4253,9.08551 3.1044,46.55382 0.8764,48.35255 1.1784,50.05395 10.1892,57.39913 8.2143,6.69589 10.7115,6.99847 58.7172,7.11465 43.4516,0.10519 45.6943,-0.0228 51.7511,-2.95495 z m -70.9385,-57.37417 c -2.0017,-2.21182 -2.3914,-6.17779 -2.3914,-24.33963 0,-27.47209 -0.7989,-26.47991 21.3231,-26.47991 12.6538,0 16.5175,0.47917 18.3089,2.27059 1.8737,1.87368 2.2706,6.28482 2.2706,25.23519 0,21.22566 -0.2116,23.0779 -2.7948,24.46039 -1.5372,0.82267 -9.8892,1.49575 -18.56,1.49575 -13.438,0 -16.1181,-0.39005 -18.1564,-2.64238 z m 275.5993,24.67736 c 1.4162,-7.06709 -1.1981,-21.83743 -4.276,-24.15885 -1.5361,-1.15847 -12.0061,-7.16898 -23.2667,-13.35671 -12.1815,-6.69366 -21.0701,-12.51526 -21.9457,-14.37333 -1.3571,-2.87975 -0.5819,-3.57444 9.9534,-8.92001 6.2838,-3.18837 17.6223,-9.44431 25.1967,-13.90208 l 13.7716,-8.10504 0.016,-6.09362 c 0.01,-3.3515 0.4087,-8.46899 0.8888,-11.3722 0.7194,-4.35017 0.3571,-5.55464 -2.0599,-6.8482 -2.4639,-1.3186 -4.9745,-0.33665 -15.6992,6.14038 -19.6252,11.85227 -66.9481,39.22147 -73.7161,42.63367 -10.9355,5.51338 -10.452,6.18227 14.7124,20.35413 22.0704,12.42942 52.3865,29.93728 63.5763,36.716 4.7682,2.88858 9.4306,5.25363 10.3609,5.25567 0.9302,0.001 2.0496,-1.78437 2.4876,-3.96981 z m -91.7234,-80.74962 c 3.646,-2.09429 8.147,-5.1828 10.0022,-6.86335 l 3.3731,-3.05555 -0.4243,-41.19029 c -0.2333,-22.65466 0.075,-41.99848 0.6857,-42.98627 1.6636,-2.69169 4.7046,-2.19184 11.0553,1.8172 3.407,2.15075 6.1124,5.16214 6.6841,7.44014 0.5283,2.10484 0.5341,16.57166 0.013,32.14851 -0.564,16.85607 -0.4013,29.1616 0.402,30.39661 1.1553,1.77623 2.213,1.68577 7.344,-0.628 10.5821,-4.77184 11.0682,-6.18239 9.6526,-28.00961 -0.6806,-10.49543 -0.8745,-20.0286 -0.4308,-21.18483 1.4308,-3.72852 8.7216,-2.42041 14.4563,2.59372 l 5.3708,4.69598 -1.5295,10.59474 c -0.8412,5.8271 -1.1607,11.19136 -0.71,11.92056 1.5188,2.45749 5.1548,1.35317 15.2066,-4.61852 l 10.0056,-5.94433 v -22.86872 c 0,-12.5778 -0.544,-23.20494 -1.2089,-23.61589 -0.6649,-0.41095 -4.2113,0.85111 -7.8809,2.80455 -7.5411,4.01447 -12.0859,4.45458 -16.2359,1.57227 -1.5676,-1.08871 -16.1795,-9.77253 -32.4709,-19.29739 -16.2915,-9.52487 -31.9032,-18.68461 -34.6927,-20.35499 -2.9943,-1.79302 -5.8305,-2.56816 -6.924,-1.89235 -1.4635,0.90447 -1.8501,15.21917 -1.8421,68.21056 0.01,36.88622 0.033,68.20372 0.061,69.59445 0.069,3.46214 2.2726,3.18136 10.038,-1.2792 z m -200.2948,-67.8366 c 9.6811,-3.2987 14.9868,-9.93852 16.2927,-20.38959 0.5765,-4.61325 0.6897,-25.09111 0.2516,-45.50638 -0.5781,-26.93919 -0.339,-37.70984 0.8719,-39.27432 1.2753,-1.64754 5.6985,-2.25658 18.7662,-2.5839 15.2448,-0.38186 17.2559,-0.14558 18.5575,2.1803 0.9139,1.63302 1.3879,20.84711 1.2674,51.37752 -0.1183,29.99025 0.3724,50.25445 1.2743,52.62686 l 1.4668,3.85791 h 20.9596 c 20.5347,0 20.9757,-0.0659 21.7618,-3.25106 0.4413,-1.78808 0.6163,-35.76169 0.3888,-75.4969 -0.2806,-49.02335 -0.4255,-64.93622 -1.4852,-72.00674 -2.9909,-10.73699 -11.1137,-19.25498 -20.6022,-19.85356 l -44.9074,0.41528 -44.9075,0.41527 c -10.648,0.39842 -14.93,12.4291 -14.8753,19.36704 -0.8505,7.29403 -0.8032,19.39806 -0.8172,41.57798 -0.021,33.33825 -0.4856,45.62603 -1.7739,46.91431 -2.3267,2.32665 -34.7435,1.83422 -37.6426,-0.57181 -1.7179,-1.42571 -1.9684,-10.0273 -1.545,-53.04965 0.2779,-28.24142 -0.015,-52.1608 -0.6501,-53.15418 -1.2809,-2.00228 -40.9657,-2.6395 -43.6158,-0.70033 l 3.2728,157.44744 c 6.1313,11.47547 7.7503,11.80991 57.5234,11.88305 35.976,0.0529 44.6067,-0.32983 50.1674,-2.22454 z m 281.3735,-51.1921 c 10.0142,-5.10886 9.8785,-4.39774 10.1931,-53.38825 0.3263,-50.7971 0.452,-50.30256 -10.7462,-42.26058 -3.5518,2.55071 -7.4519,4.63766 -8.6669,4.63766 -1.8564,0 -30.7998,-16.19865 -48.6131,-27.20712 -2.7814,-1.71893 -6.6256,-3.12776 -8.5425,-3.13073 -5.1473,-0.008 -21.8007,9.99688 -21.8007,13.09721 0,0.88616 30.19,18.34024 49.8496,28.82014 13.8301,7.37238 21.3799,12.29491 23.2617,15.16694 1.6084,2.45477 2.0281,6.91508 1.7156,18.23366 -0.3902,14.13172 -0.5923,15.00938 -3.5538,15.43113 -4.0405,0.57541 -14.3825,-4.68749 -16.318,-8.30395 -0.8212,-1.53457 -1.5031,-8.84734 -1.5153,-16.2506 -0.028,-17.06721 -0.8423,-18.56542 -8.2008,-15.08985 -4.8349,2.28364 -33.1541,18.16646 -41.9415,23.52286 -4.6668,2.84471 -2.7515,5.78701 6.9575,10.68814 9.5349,4.81319 14.2789,5.29654 19.3531,1.97183 4.4572,-2.92049 6.4882,-1.6364 6.6164,4.18335 0.056,2.53589 0.5491,5.74037 1.0962,7.12106 1.1484,2.89844 38.6951,25.46562 42.5685,25.58549 1.4224,0.0441 5.1516,-1.22876 8.2871,-2.82839 z" stroke-width="1.44492"/>
                <rect fill="#6f6f6f" x="2518.7502" width="53.691189" id="rect1555" ry="4.6310954" stroke-opacity="1" fill-opacity="1" gorn="0.3.0.0.130" y="461.57874"  style="stop-color:#000000" height="47.37458" stroke-width="20.8318" stroke="none"/>
                <rect fill="#6f6f6f" x="2518.7502" width="53.691189" id="rect1671" ry="4.6310954" stroke-opacity="1" fill-opacity="1" gorn="0.3.0.0.131" y="530.77356"  style="stop-color:#000000" height="47.37458" stroke-width="20.8318" stroke="none"/>
                <rect fill="#6f6f6f" x="2518.7502" width="53.691189" id="rect1673" ry="4.6310954" stroke-opacity="1" fill-opacity="1" gorn="0.3.0.0.132" y="599.96838"  style="stop-color:#000000" height="47.37458" stroke-width="20.8318" stroke="none"/>
                <rect fill="#6f6f6f" x="2518.7502" width="53.691189" id="rect1675" ry="4.6310954" stroke-opacity="1" fill-opacity="1" gorn="0.3.0.0.133" y="666.93005"  style="stop-color:#000000" height="47.37458" stroke-width="20.8318" stroke="none"/>
                <rect fill="#6f6f6f" x="2518.7502" width="53.691189" id="rect1677" ry="4.6310954" stroke-opacity="1" fill-opacity="1" gorn="0.3.0.0.134" y="733.33344"  style="stop-color:#000000" height="47.37458" stroke-width="20.8318" stroke="none"/>
                <rect fill="#6f6f6f" x="2518.7502" width="53.691189" id="rect1679" ry="4.6310954" stroke-opacity="1" fill-opacity="1" gorn="0.3.0.0.135" y="798.06195"  style="stop-color:#000000" height="47.37458" stroke-width="20.8318" stroke="none"/>
                <path fill="none" id="path3268" stroke-opacity="1" gorn="0.3.0.0.136"  style="stroke-linecap:round;stroke-linejoin:miter;stroke-dasharray:none" d="m 2544.8004,624.96484 c 14.8419,-22.83766 13.1675,-42.59568 27.9158,-61.41462" stroke-width="13.88786705" stroke="#2727c3"/>
                <path fill="none" id="path3266" stroke-opacity="1" gorn="0.3.0.0.137"  style="stroke-linecap:round;stroke-linejoin:miter;stroke-dasharray:none" d="m 2546.4754,693.07925 c -15.0386,-56.30697 3.7808,-93.83793 10.608,-135.11218" stroke-width="13.88786705" stroke="#b4af00"/>
                <path fill="none" id="path3264" stroke-opacity="1" gorn="0.3.0.0.138"  style="stroke-linecap:round;stroke-linejoin:miter;stroke-dasharray:none" d="m 2548.1503,758.96038 c -14.0894,-67.72732 -12.5875,-131.20247 -42.4318,-203.22657" stroke-width="13.88786705" stroke="#16651c"/>
                <path fill="none" id="path3262" stroke-opacity="1" gorn="0.3.0.0.139"  style="stroke-linecap:round;stroke-linejoin:miter;stroke-dasharray:none" d="m 2547.0338,821.49164 c -31.865,-124.91261 -8.9331,-182.38282 -13.3997,-273.57423" stroke-width="13.88786705" stroke="#242424"/>
                <path id="rect1744" gorn="0.3.0.0.140"  style="fill:#4d4d4d;fill-opacity:1" d="M 2479.196,568.5449 C 2442.1987,269.578 2613.9361,111.4324 2754.7269,109.05695 h 95.0652 v 125.00006 h -57.0998 c -125.8065,-0.89765 -232.7257,75.14956 -197.3668,333.30881 -21.0299,42.12834 -96.2163,43.24494 -116.1295,1.17908 z"/>
                <rect fill="none" x="0.0017538939" width="100.00004" id="connector0pin" gorn="0.3.0.0.141" y="411.10928"  height="100.00004" stroke="none"/>
                <rect fill="none" x="0.0017538939" width="100.00004" id="connector1pin" gorn="0.3.0.0.142" y="558.09326"  height="100.00004" stroke="none"/>
                <rect fill="none" x="2746.1348" width="100.00004" id="connector2pin" gorn="0.3.0.0.143" y="595.87878"  height="100.00004" stroke="none"/>
                <rect fill="none" x="2744.4788" width="100.00004" id="connector3pin" gorn="0.3.0.0.144" y="327.44241"  height="100.00004" stroke="none"/>
                <rect fill="none" x="231.58723" width="38.541679" id="connector4pin" gorn="0.3.0.0.145" y="859.84259"  height="38.541679" stroke-width="0.385416" stroke="none"/>
                <rect fill="none" x="232.133" width="38.541679" id="connector5pin" gorn="0.3.0.0.146" y="799.86243"  height="38.541679" stroke-width="0.385416" stroke="none"/>
                <rect fill="none" x="231.58723" width="38.541679" id="connector6pin" gorn="0.3.0.0.147" y="739.06812"  height="38.541679" stroke-width="0.385416" stroke="none"/>
                <rect fill="none" x="232.09482" width="38.541679" id="connector7pin" gorn="0.3.0.0.148" y="680.13013"  height="38.541679" stroke-width="0.385416" stroke="none"/>
                <g transform="rotate(90)" >
                    <g >
                        <rect fill="none" x="506.21259" width="20.973932" id="connector8pin" gorn="0.3.0.0.149.0.0" y="-1918.9905"  height="20.973927" stroke-width="0" stroke="none"/>
                    </g>
                </g>
                <g transform="rotate(90)" >
                    <g >
                        <rect fill="none" x="506.21259" width="20.973932" id="connector9pin" gorn="0.3.0.0.150.0.0" y="-1984.6766"  height="20.973927" stroke-width="0" stroke="none"/>
                    </g>
                </g>
                <g transform="rotate(90)" >
                    <g >
                        <rect fill="none" x="571.89825" width="20.973932" id="connector10pin" gorn="0.3.0.0.151.0.0" y="-1918.9905"  height="20.973927" stroke-width="0" stroke="none"/>
                    </g>
                </g>
                <g transform="rotate(90)" >
                    <g >
                        <rect fill="none" x="571.89825" width="20.973932" id="connector11pin" gorn="0.3.0.0.152.0.0" y="-1984.6766"  height="20.973927" stroke-width="0" stroke="none"/>
                    </g>
                </g>
                <g transform="rotate(90)" >
                    <g >
                        <rect fill="none" x="637.58356" width="20.973932" id="connector12pin" gorn="0.3.0.0.153.0.0" y="-1918.9905"  height="20.973927" stroke-width="0" stroke="none"/>
                    </g>
                </g>
                <g transform="rotate(90)" >
                    <g >
                        <rect fill="none" x="637.58356" width="20.973932" id="connector13pin" gorn="0.3.0.0.154.0.0" y="-1984.6766"  height="20.973927" stroke-width="0" stroke="none"/>
                    </g>
                </g>
                <g transform="rotate(90)" >
                    <g >
                        <rect fill="none" x="703.27026" width="20.973932" id="connector14pin" gorn="0.3.0.0.155.0.0" y="-1918.9905"  height="20.973927" stroke-width="0" stroke="none"/>
                    </g>
                </g>
                <g transform="rotate(90)" >
                    <g >
                        <rect fill="none" x="703.27026" width="20.973932" id="connector15pin" gorn="0.3.0.0.156.0.0" y="-1984.6766"  height="20.973927" stroke-width="0" stroke="none"/>
                    </g>
                </g>
                <g transform="rotate(90)" >
                    <g >
                        <rect fill="none" x="768.95569" width="20.973932" id="connector16pin" gorn="0.3.0.0.157.0.0" y="-1918.9905"  height="20.973927" stroke-width="0" stroke="none"/>
                    </g>
                </g>
                <g transform="rotate(90)" >
                    <g >
                        <rect fill="none" x="768.95569" width="20.973932" id="connector17pin" gorn="0.3.0.0.158.0.0" y="-1984.6766"  height="20.973927" stroke-width="0" stroke="none"/>
                    </g>
                </g>
                <rect fill="none" x="2746.1348" width="100.00004" id="connector18pin" gorn="0.3.0.0.159" y="863.97937"  height="100.00004" stroke="none"/>
                <rect fill="none" x="2746.1348" width="100.00004" id="connector19pin" gorn="0.3.0.0.160" y="120.73471"  height="100.00004" stroke="none"/>
            </g>
        </g>
    </g>
</svg>
