<?xml version='1.0' encoding='UTF-8' standalone='no'?>
<svg xmlns="http://www.w3.org/2000/svg"  x="0px" gorn="0" version="1.1" id="Layer_1" enable-background="new 0 0 113.39 167.24" height="60.489658mm" y="0px" viewBox="0 0 50.032707 60.489656" width="50.032707mm">
    <metadata  id="metadata54">
        <rdf:RDF xmlns:rdf="http://www.w3.org/1999/02/22-rdf-syntax-ns#">
            <cc:Work xmlns:rdf="http://www.w3.org/1999/02/22-rdf-syntax-ns#" xmlns:cc="http://creativecommons.org/ns#" rdf:about="">
                <dc:format xmlns:dc="http://purl.org/dc/elements/1.1/">image/svg+xml</dc:format>
                <dc:type rdf:resource="http://purl.org/dc/dcmitype/StillImage" xmlns:rdf="http://www.w3.org/1999/02/22-rdf-syntax-ns#" xmlns:dc="http://purl.org/dc/elements/1.1/"/>
            </cc:Work>
        </rdf:RDF>
    </metadata>
    <defs  id="defs52"/>
    <desc  id="desc2">
        <referenceFile >YumoE6B2_1_breadboard.svg</referenceFile>
    </desc>
    <g  transform="matrix(0.01926181,0,0,0.01926181,9.5052267,-4.2019627)">
        <g >
            <g  gorn="0.3.0.0" id="breadboard">
                <path  style="fill-rule:nonzero;" stroke-width="7.73834" stroke="none" gorn="0.3.0.0.0" fill="#1a1a1a" id="path36686" fill-opacity="1" d="m 1525.5035,1416.1725 c 0,-438.72743 -238.3416,-816.43691 -692.0916,-816.43691 -507.0069,0 -747.200264,404.31421 -749.817693,816.43691 l 156.420833,4.4478 c 6.45263,-142.8571 138.51406,-610.36756 575.77227,-605.7124 437.25819,4.65516 541.91819,495.1545 549.61729,603.4194 z"/>
                <path  style="fill-rule:nonzero;" stroke-width="7.73834" stroke="none" gorn="0.3.0.0.1" fill="#e7e8e9" id="path36958" fill-opacity="1" d="m 1102.7551,3301.7045 110.9159,-2.5795 v 54.1684 h 85.1217 l -2.5795,-54.1684 -38.6917,-28.3738 -5.1588,-325.0098 h -152.1869 l -139.29,2.5793 H 656.5115 l -242.4678,2.5792 H 352.137 l 5.1589,314.6924 -49.00941,28.3739 v 51.5888 h 85.12171 v -41.2711 h 25.7944 z"/>
                <path  style="fill-rule:nonzero;" stroke-width="7.73834" stroke="none" gorn="0.3.0.0.2" fill="#d1d3d4" id="path36960" fill-opacity="1" d="m 1221.4093,3017.9656 2.5794,188.2994 -846.05721,5.159 -2.5794,-188.2992 z"/>
                <path  style="fill-rule:nonzero;" stroke-width="7.73834" stroke="none" gorn="0.3.0.0.3" fill="#e7e8e9" id="path36962" fill-opacity="1" d="m 919.61479,3085.0314 2.5794,154.7664 h -79.9628 l -2.5793,-154.7664 z"/>
                <path  style="fill-rule:nonzero;" stroke-width="7.73834" stroke="none" gorn="0.3.0.0.4" fill="#e7e8e9" id="path36964" fill-opacity="1" d="m 646.19369,3087.6106 2.5795,154.7667 h -79.9628 l -2.5796,-154.7667 z"/>
                <path  style="fill-rule:nonzero;" stroke-width="7.73834" stroke="none" gorn="0.3.0.0.5" fill="#e7e8e9" id="path36966" fill-opacity="1" d="m 499.16539,3090.1898 2.5794,154.7669 h -79.9627 v -154.7669 z"/>
                <text  x="789.56116" font-family="Droid Sans" gorn="0.3.0.0.6" fill="#000000" id="text99" y="3291.1667" font-size="13.8289">B</text>
                <path  style="fill-rule:nonzero;" stroke-width="7.73834" stroke="none" gorn="0.3.0.0.7" fill="#e7e8e9" id="path36968" fill-opacity="1" d="m 782.90419,3085.0314 2.5795,157.3459 h -79.9628 l -2.5794,-154.7667 z"/>
                <path  stroke-width="0" stroke="none" gorn="0.3.0.0.8" fill="#666666" id="connector0pin" d="m 500.00015,3355.442 c 0,1.1368 -0.42075,2.0594 -0.93878,2.0594 h -16.87245 c -0.51802,0 -0.93878,-0.9226 -0.93878,-2.0594 v -47.9645 c 0,-1.1368 0.42076,-2.0594 0.93878,-2.0594 h 16.87245 c 0.51803,0 0.93878,0.9226 0.93878,2.0594 z"/>
                <path  style="fill-rule:nonzero;" stroke-width="7.73834" stroke="none" gorn="0.3.0.0.9" fill="#d1d3d4" id="path36970" fill-opacity="1" d="m 473.37089,2987.0123 2.5795,36.1125 h -38.6917 v -36.1125 z"/>
                <path  stroke-width="0" stroke="none" gorn="0.3.0.0.10" fill="#666666" id="connector1pin" d="m 662.5002,3356.4837 c 0,1.1368 -0.42076,2.0594 -0.93877,2.0594 h -16.87247 c -0.51801,0 -0.93877,-0.9226 -0.93877,-2.0594 v -47.9645 c 0,-1.1368 0.42076,-2.0594 0.93877,-2.0594 h 16.87247 c 0.51801,0 0.93877,0.9226 0.93877,2.0594 z"/>
                <path  style="fill-rule:nonzero;" stroke-width="7.73834" stroke="none" gorn="0.3.0.0.11" fill="#d1d3d4" id="path36972" fill-opacity="1" d="m 625.55819,2984.4331 v 38.6917 h -38.6917 v -36.1125 z"/>
                <path  stroke-width="0" stroke="none" gorn="0.3.0.0.12" fill="#666666" id="connector2pin" d="m 816.74555,3355.442 c 0,1.1368 -0.42077,2.0594 -0.93667,2.0594 h -16.87455 c -0.51804,0 -0.93878,-0.9226 -0.93878,-2.0594 v -47.9645 c 0,-1.1368 0.42074,-2.0594 0.93878,-2.0594 h 16.87455 c 0.5159,0 0.93667,0.9226 0.93667,2.0594 z"/>
                <path  style="fill-rule:nonzero;" stroke-width="7.73834" stroke="none" gorn="0.3.0.0.13" fill="#d1d3d4" id="path36974" fill-opacity="1" d="m 757.10969,2984.4331 v 38.6917 h -36.1122 v -36.1125 z"/>
                <path  stroke-width="0" stroke="none" gorn="0.3.0.0.14" fill="#666666" id="connector3pin" d="m 974.21415,3356.4837 c 0,1.1368 -0.42074,2.0594 -0.93664,2.0594 h -16.8746 c -0.51802,0 -0.93876,-0.9226 -0.93876,-2.0594 v -47.9645 c 0,-1.1368 0.42074,-2.0594 0.93876,-2.0594 h 16.8746 c 0.5159,0 0.93664,0.9226 0.93664,2.0594 z"/>
                <path  style="fill-rule:nonzero;" stroke-width="7.73834" stroke="none" gorn="0.3.0.0.15" fill="#d1d3d4" id="path36976" fill-opacity="1" d="m 901.55869,2984.4331 v 38.6917 h -36.1123 v -36.1125 z"/>
                <path  stroke-width="0" stroke="none" gorn="0.3.0.0.16" fill="#666666" id="connector4pin" d="m 1129.1669,3356.4837 c 0,1.1368 -0.4207,2.0594 -0.9367,2.0594 h -16.8746 c -0.518,0 -0.9388,-0.9226 -0.9388,-2.0594 v -47.9645 c 0,-1.1368 0.4208,-2.0594 0.9388,-2.0594 h 16.8746 c 0.516,0 0.9367,0.9226 0.9367,2.0594 z"/>
                <path  style="fill-rule:nonzero;" stroke-width="7.73834" stroke="none" gorn="0.3.0.0.17" fill="#e7e8e9" id="path36978" fill-opacity="1" d="m 1051.1665,3085.0314 2.5794,154.7664 h -79.9628 v -154.7664 z"/>
                <text  x="469.58237" font-family="Droid Sans" gorn="0.3.0.0.18" fill="#000000" id="text95" y="3283.9963" font-size="13.8289">V</text>
                <path  style="fill-rule:nonzero;" stroke-width="7.73834" stroke="none" gorn="0.3.0.0.19" fill="#e7e8e9" id="path36980" fill-opacity="1" d="m 1182.7178,3085.0314 2.5794,154.7664 h -79.9627 l -2.5794,-154.7664 z"/>
                <text  x="636.94879" font-family="Droid Sans" gorn="0.3.0.0.20" fill="#000000" id="text97" font-size="13.8289" y="3291.1667">A</text>
                <path  style="fill-rule:nonzero;" stroke-width="7.73834" stroke="none" gorn="0.3.0.0.21" fill="#d1d3d4" id="path36982" fill-opacity="1" d="m 1027.9515,2984.4331 v 38.6917 h -36.1123 l -2.5794,-36.1125 z"/>
                <text  x="947.14795" font-family="Droid Sans" gorn="0.3.0.0.22" fill="#000000" id="text101" font-size="13.8289" y="3291.1667">Z</text>
                <path  style="fill-rule:nonzero;" stroke-width="7.73834" stroke="none" gorn="0.3.0.0.23" fill="#d1d3d4" id="path36984" fill-opacity="1" d="m 1154.344,2984.4331 v 38.6917 h -36.1122 v -36.1125 z"/>
                <text  x="1100.0037" font-family="Droid Sans" gorn="0.3.0.0.24" fill="#000000" id="text103" y="3290.4729" font-size="13.8289">G</text>
                <path  style="fill-rule:nonzero;" stroke-width="7.73834" stroke="none" gorn="0.3.0.0.25" fill="#414040" id="path36640" fill-opacity="1" d="m 69.896397,1572.1863 c -510.729987,423.0292 -510.729987,423.0292 -510.729987,423.0292 0,0 -103.1777,126.3924 -20.6355,288.8976 0,0 121.23389,214.0941 348.22499,116.0749 183.140497,-136.7108 183.140497,-136.7108 183.140497,-136.7108 0,-291.4767 0,-291.4767 0,-291.4767 15.476699,0 15.476699,0 15.476699,0 0,-126.3934 0,-126.3934 0,-126.3934 -15.476699,0 -15.476699,0 -15.476699,0 z"/>
                <path  style="fill-rule:nonzero;" stroke-width="7.73834" stroke="none" gorn="0.3.0.0.26" fill="#1a1a1a" id="path36642" fill-opacity="1" d="m 85.373096,2273.7956 -15.476699,-10.3184 v -291.4767 l 15.476699,18.0558 z"/>
                <path  style="fill-rule:nonzero;" stroke-width="7.73834" stroke="none" gorn="0.3.0.0.27" fill="#1a1a1a" id="path36644" fill-opacity="1" d="m 85.373096,2273.7956 v 0 l -15.476699,-10.3184 v -291.4767 l 15.476699,18.0558 v 283.7393 0 0 0 0 -283.7393 -2.5791 l -15.476699,-15.4767 v 291.4767 2.58 z"/>
                <path  style="fill-rule:nonzero;" stroke-width="7.73834" stroke="none" gorn="0.3.0.0.28" fill="#414040" id="path36646" fill-opacity="1" d="M 90.531996,2947.0305 C 348.4764,3204.9744 348.4764,3204.9744 348.4764,3204.9744 c 913.1232,5.1592 913.1232,5.1592 913.1232,5.1592 257.9444,-263.1031 257.9444,-263.1031 257.9444,-263.1031 2.5795,-1625.0499 2.5795,-1625.0499 2.5795,-1625.0499 0,0 18.0561,-415.29091 -376.5989,-629.38501 0,0 -371.4399,-237.3084 -791.8894,67.0659 0,0 -273.421104,211.51413 -268.262104,562.31911 5.1589,1625.0499 5.1589,1625.0499 5.1589,1625.0499 z"/>
                <path  style="fill-rule:nonzero;" stroke-width="7.73834" stroke="none" gorn="0.3.0.0.29" fill="#414040" id="path36648" fill-opacity="1" d="m 90.531996,2947.0305 c -2.5795,2.5792 -2.5795,2.5792 -2.5795,2.5792 257.944404,260.5239 257.944404,260.5239 257.944404,260.5239 918.2821,5.1584 918.2821,5.1584 918.2821,5.1584 257.9445,-265.6823 257.9445,-265.6823 257.9445,-265.6823 5.1589,-1627.6291 5.1589,-1627.6291 5.1589,-1627.6291 -5.1589,0 -5.1589,0 -5.1589,0 5.1589,0 5.1589,0 5.1589,0 0,0 0,-2.58 0,-5.1592 0,-28.3742 -5.1589,-134.1309 -54.1684,-260.5241 -49.0094,-123.81341 -141.8694,-265.68261 -325.0099,-366.28081 -2.5795,2.5791 -2.5795,2.5791 -2.5795,2.5791 2.5795,-2.5791 2.5795,-2.5791 2.5795,-2.5791 0,0 -139.2901,-90.2809 -343.0662,-90.2809 -128.9722,0 -288.8976,38.6917 -451.4027,157.3466 0,0 0,0 0,0 0,0 0,0 0,0 0,0 -69.6449,51.5884 -136.7105,149.6075 -67.0655,95.43921 -134.131104,234.72931 -134.131104,407.55251 0,2.5792 0,5.1584 0,7.7384 0,0 0,0 0,0 2.5795,1627.6291 2.5795,1627.6291 2.5795,1627.6291 2.5794,0 2.5794,0 2.5794,0 2.5795,-2.5792 2.5795,-2.5792 2.5795,-2.5792 2.5794,0 2.5794,0 2.5794,0 -5.1589,-1625.0499 -5.1589,-1625.0499 -5.1589,-1625.0499 0,0 0,0 0,0 0,-2.58 0,-5.1592 0,-7.7384 0,-172.8232 67.065504,-309.5333 134.131104,-404.97331 33.5328,-46.43 67.0655,-82.5417 92.8601,-108.3366 12.8971,-12.8968 23.2149,-20.6351 30.9532,-28.3734 2.5795,-2.5799 5.1589,-5.1591 7.7383,-7.7384 2.5795,0 2.5795,-2.5799 2.5795,-2.5799 -2.5795,-2.5791 -2.5795,-2.5791 -2.5795,-2.5791 2.5795,5.159 2.5795,5.159 2.5795,5.159 165.0844,-121.2341 319.851,-157.3466 448.8232,-157.3466 100.5984,0 185.72007,23.215 245.0473,43.8509 30.9533,10.3175 54.1683,23.215 69.645,30.9533 7.7383,2.5792 15.4767,7.7384 18.056,10.3175 2.5795,0 5.159,2.58 5.159,2.58 2.5794,0 2.5794,0 2.5794,0 0,0 0,0 0,0 0,0 0,0 0,0 180.5611,100.5983 273.4211,239.8883 322.4306,363.70161 49.0094,123.8133 51.5888,229.57 51.5888,257.9442 0,2.5792 0,5.1592 0,5.1592 0,0 0,0 0,0 -5.1588,1625.0499 -5.1588,1625.0499 -5.1588,1625.0499 -252.7856,260.5232 -252.7856,260.5232 -252.7856,260.5232 -910.5438,-5.1584 -910.5438,-5.1584 -910.5438,-5.1584 C 93.111396,2947.0305 93.111396,2947.0305 93.111396,2947.0305 c -2.5794,0 -2.5794,0 -2.5794,0 2.5794,0 2.5794,0 2.5794,0 -2.5794,0 -2.5794,0 -2.5794,0 z"/>
                <path  style="fill-rule:nonzero;" stroke-width="7.73834" stroke="none" gorn="0.3.0.0.30" fill="#414040" id="path36650" fill-opacity="1" d="m 1166.1602,682.27809 c 497.8327,-402.3928 497.8327,-402.3928 497.8327,-402.3928 0,0 175.4023,-154.76668 366.281,25.7938 0,0 167.6639,170.2432 -2.5793,368.8607 -521.0477,425.60821 -521.0477,425.60821 -521.0477,425.60821 0,0 -67.0657,-260.52411 -340.4867,-417.86991 z"/>
                <path  style="fill-rule:nonzero;" stroke-width="7.73834" stroke="none" gorn="0.3.0.0.31" fill="#000000" id="path36652" fill-opacity="1" d="m 1166.1602,682.27809 c 0,0 242.4678,116.0749 340.4867,417.86991 -10.3179,28.3742 -10.3179,28.3742 -10.3179,28.3742 0,0 -72.2244,-294.05661 -358.5428,-443.66491 z"/>
                <path  style="fill-rule:nonzero;" stroke-width="7.73834" stroke="none" gorn="0.3.0.0.32" fill="#000000" id="path36654" fill-opacity="1" d="m 1166.1602,682.27809 c -2.5795,2.5792 -2.5795,2.5792 -2.5795,2.5792 0,0 2.5795,0 2.5795,2.58 28.3739,12.8967 245.0472,131.5516 335.3277,412.71071 5.159,0 5.159,0 5.159,0 -5.159,0 -5.159,0 -5.159,0 -7.7383,28.3742 -7.7383,28.3742 -7.7383,28.3742 2.5794,0 2.5794,0 2.5794,0 2.5795,0 2.5795,0 2.5795,0 0,0 -69.645,-296.63651 -361.1223,-446.24411 0,2.5792 0,2.5792 0,2.5792 0,5.1592 0,5.1592 0,5.1592 28.374,-5.1592 28.374,-5.1592 28.374,-5.1592 0,-2.5792 0,-2.5792 0,-2.5792 -2.5795,2.5792 -2.5795,2.5792 -2.5795,2.5792 2.5795,-2.5792 2.5795,-2.5792 2.5795,-2.5792 0,-2.5791 0,-2.5791 0,-2.5791 -41.2711,2.5791 -41.2711,2.5791 -41.2711,2.5791 10.3178,5.1592 10.3178,5.1592 10.3178,5.1592 144.4488,74.8033 232.1499,185.7199 286.3183,275.99993 25.7943,46.43008 43.8505,87.70158 56.7477,118.65498 5.1589,15.4766 7.7383,25.7941 10.3178,33.5325 2.5795,5.1591 2.5795,7.7383 2.5795,10.3176 2.5794,2.5799 2.5794,2.5799 2.5794,2.5799 2.5794,12.8968 2.5794,12.8968 2.5794,12.8968 12.8972,-41.271 12.8972,-41.271 12.8972,-41.271 0,0 0,0 0,0 -98.0188,-304.37411 -340.4866,-420.44901 -340.4866,-420.44901 -2.5794,0 -2.5794,0 -2.5794,0 0,0 0,0 0,0 z"/>
                <path  style="fill-rule:evenodd;" stroke-width="7.73834" stroke="none" gorn="0.3.0.0.33" fill="#1a1a1a" id="path36660" fill-opacity="1" d="m 1658.834,465.60469 c 108.3367,-82.5424 108.3367,-82.5424 108.3367,-82.5424 54.1683,-43.85 134.1311,-33.5325 177.9816,23.215 0,0 0,0 0,0 43.8506,54.1684 33.5328,131.5516 -23.215,175.4025 -108.3366,82.5425 -108.3366,82.5425 -108.3366,82.5425 -54.1684,43.85 -134.1311,33.5325 -177.9817,-23.215 0,0 0,0 0,0 -43.8505,-54.1684 -33.5328,-131.5517 23.215,-175.4026 z"/>
                <path  style="fill-rule:evenodd;" stroke-width="7.73834" stroke="none" gorn="0.3.0.0.34" fill="#1a1a1a" id="path36662" fill-opacity="1" d="m -301.5436,2054.5422 c 108.3367,-85.1217 108.3367,-85.1217 108.3367,-85.1217 54.1683,-41.2709 134.131097,-30.9533 177.981597,23.215 0,0 0,0 0,0 43.8506,54.1683 33.5328,134.1316 -20.6356,175.4024 -110.916097,82.5427 -110.916097,82.5427 -110.916097,82.5427 -54.1682,43.85 -134.131,33.5325 -177.9816,-20.636 0,0 0,0 0,0 -41.271,-56.7475 -30.9533,-134.1309 23.215,-175.4024 z"/>
                <path  style="fill-rule:evenodd;" stroke-width="7.73834" stroke="none" gorn="0.3.0.0.35" fill="#b3b3b3" id="path36664" fill-opacity="1" d="m 688.963,788.03549 c 294.05667,-67.0657 585.5339,121.2334 650.02,415.29001 67.0655,294.0567 -118.6544,585.5341 -412.7111,652.6 C 629.6357,1920.4113 338.1586,1737.2705 271.093,1440.6346 206.607,1146.578 389.7474,855.10059 686.3835,788.03549 Z"/>
                <path  style="fill-rule:evenodd;" stroke-width="7.73834" stroke="none" gorn="0.3.0.0.36" fill="#b3b3b3" id="path36666" fill-opacity="1" d="m 696.7014,837.04469 c 270.8416,-61.9067 539.1038,110.91589 601.0104,381.75751 59.3272,270.8416 -110.9161,539.1041 -381.7578,598.4316 C 645.1124,1879.1405 376.8502,1708.8971 314.9437,1438.0555 255.6164,1167.2139 423.2803,896.37219 694.1219,837.04469 Z"/>
                <path  style="fill-rule:nonzero;" stroke-width="7.73834" stroke="none" gorn="0.3.0.0.37" fill="#808080" id="path36668" fill-opacity="1" d="m 699.2807,839.62389 c 36.1123,-7.7382 72.2245,-12.8967 108.3367,-12.8967 226.9911,0 433.3466,159.92507 484.9355,392.07501 10.3178,36.1125 12.8972,72.225 12.8972,108.3367 0,229.5708 -157.346,435.9265 -389.4961,487.5149 -38.6916,7.7383 -74.8038,12.8975 -110.9161,12.8975 -226.9909,0 -433.3465,-157.3458 -487.5149,-392.0757 -7.7383,-36.1118 -10.3177,-72.2242 -10.3177,-108.3367 0,-229.5701 157.346,-435.92581 389.4961,-487.51501 2.5793,0 2.5793,0 2.5793,0 -2.5793,-7.7382 -2.5793,-7.7382 -2.5793,-7.7382 -2.5795,0 -2.5795,0 -2.5795,0 -234.7294,54.1682 -394.6549,263.10321 -394.6549,495.25321 0,36.1125 5.1587,74.8042 12.8971,110.9166 51.589,234.7292 260.5239,394.655 492.6738,394.655 36.1123,0 74.804,-2.58 110.9161,-10.3184 234.7295,-54.1682 397.2345,-263.1033 397.2345,-495.2532 0,-36.1117 -5.1589,-72.2242 -12.8972,-110.9159 -51.589,-234.72914 -260.5239,-394.65501 -492.6739,-394.65501 -36.1122,0 -74.8038,2.5793 -110.916,10.3177 -2.5795,2.5799 -2.5795,2.5799 -2.5795,2.5799 0,5.1583 0,5.1583 0,5.1583 5.1588,0 5.1588,0 5.1588,0 z"/>
                <path  style="fill-rule:evenodd;" stroke-width="7.73834" stroke="none" gorn="0.3.0.0.38" fill="#e6e6e6" id="path36670" fill-opacity="1" d="m 712.178,898.95139 c 229.5706,-51.5892 456.5616,95.43917 508.1506,327.58911 49.0093,232.1501 -95.4395,461.7209 -325.01,513.3099 -229.5706,51.5885 -456.5617,-92.8599 -508.1505,-325.0099 -51.589,-232.15 92.8599,-461.72082 322.4304,-515.88911 z"/>
                <path  style="fill-rule:nonzero;" stroke-width="7.73834" stroke="none" gorn="0.3.0.0.39" fill="#808080" id="path36672" fill-opacity="1" d="m 712.178,901.53059 c 30.9534,-7.7384 61.9067,-10.3175 92.8599,-10.3175 193.45837,0 368.8606,136.71081 412.7112,335.32741 7.7383,30.9534 10.3178,61.9067 10.3178,92.8601 0,198.6174 -134.1312,374.0198 -332.7483,417.8699 -30.9534,7.7384 -61.9067,10.3183 -92.86,10.3183 -193.4583,0 -368.8605,-134.1316 -412.7112,-332.7483 -7.7383,-33.5333 -10.3177,-64.4866 -10.3177,-95.4399 0,-196.0376 134.1311,-371.44002 330.1688,-417.87001 2.5795,0 2.5795,0 2.5795,0 0,-2.5792 0,-2.5792 0,-2.5792 -2.5795,0 -2.5795,0 -2.5795,0 -198.6172,43.85079 -332.7483,221.83241 -332.7483,420.44921 0,30.9533 2.5795,64.4865 10.3179,95.4399 43.8505,201.1967 219.2526,337.9067 415.2905,337.9067 30.9533,0 61.9066,-2.5793 95.4394,-10.3176 198.6172,-46.4299 332.7483,-224.4116 332.7483,-423.029 0,-30.9534 -2.5794,-61.9067 -10.3177,-92.8601 -43.8507,-201.1966 -219.2529,-337.90661 -415.2907,-337.90661 -30.9532,0 -61.9065,2.5792 -92.8599,10.3175 -2.5795,0 -2.5795,0 -2.5795,0 0,2.5792 0,2.5792 0,2.5792 2.5795,0 2.5795,0 2.5795,0 z"/>
                <path  style="fill-rule:nonzero;" stroke-width="7.73834" stroke="none" gorn="0.3.0.0.40" fill="#999999" id="path36674" fill-opacity="1" d="m 786.9819,945.38138 c 8.17612,-4.09941 23.78016,-6.26214 38.6917,0 l 296.636,170.24332 c 11.6206,9.2459 20.8796,20.5905 20.6356,37.9351 v 338.664 c 0,0 -7.3602,24.5979 -20.6356,33.5325 l -299.2155,175.4025 c -11.11806,6.6708 -27.95341,7.367 -48.07682,-2.5799 L 495.5046,1528.3355 c -9.87174,-6.7118 -23.0272,-17.0188 -23.215,-36.1117 v -343.0665 c 0.29043,-14.1896 5.81358,-22.1054 18.0562,-33.5326 z"/>
                <path  style="fill-rule:nonzero;" stroke-width="7.73834" stroke="none" gorn="0.3.0.0.41" fill="#333333" id="path36676" fill-opacity="1" d="m 784.4024,1868.8221 c 2.5795,92.8601 2.5795,92.8601 2.5795,92.8601 2.5794,5.1591 2.5794,5.1591 2.5794,5.1591 5.1589,5.1592 5.1589,5.1592 5.1589,5.1592 7.7384,0 7.7384,0 7.7384,0 25.7943,0 25.7943,0 25.7943,0 2.5795,-2.58 2.5795,-2.58 2.5795,-2.58 5.1589,-2.5792 5.1589,-2.5792 5.1589,-2.5792 2.5795,-2.5791 2.5795,-2.5791 2.5795,-2.5791 -2.5795,-95.4401 -2.5795,-95.4401 -2.5795,-95.4401 0,0 -28.3739,5.1592 -51.5889,0 z"/>
                <path  style="fill-rule:nonzero;" stroke-width="7.73834" stroke="none" gorn="0.3.0.0.42" fill="#4d4d4d" id="path36678" fill-opacity="1" d="m 779.2436,1866.243 c 2.5793,92.86 2.5793,92.86 2.5793,92.86 2.5795,7.7383 2.5795,7.7383 2.5795,7.7383 5.1589,2.5792 5.1589,2.5792 5.1589,2.5792 5.1589,2.58 5.1589,2.58 5.1589,2.58 25.7944,0 25.7944,0 25.7944,0 5.159,-2.58 5.159,-2.58 5.159,-2.58 5.1588,-2.5792 5.1588,-2.5792 5.1588,-2.5792 2.5795,-5.1591 2.5795,-5.1591 2.5795,-5.1591 -2.5795,-95.4392 -2.5795,-95.4392 -2.5795,-95.4392 0,0 -28.3738,5.1591 -51.5888,0 z"/>
                <path  style="fill-rule:nonzero;" stroke-width="7.73834" stroke="none" gorn="0.3.0.0.43" fill="#1a1a1a" id="path36680" fill-opacity="1" d="m 103.4291,1425.158 -12.897104,-10.3175 v -95.4399 H 103.4291 Z"/>
                <path  style="fill-rule:nonzero;" stroke-width="7.73834" stroke="none" gorn="0.3.0.0.44" fill="#1a1a1a" id="path36688" fill-opacity="1" d="m 103.4291,1425.158 c 0,0 33.5329,-18.0559 30.9534,-51.5891 0,0 -36.112204,-368.86 273.4211,-601.01001 0,0 304.3744,-250.2066 706.7676,-54.1684 0,0 381.7578,159.9251 366.2812,662.91671 0,0 0,25.7949 28.3738,43.8508 0,-105.7574 0,-105.7574 0,-105.7574 0,0 20.6357,-402.39341 -366.281,-616.48661 0,0 -304.3744,-196.0383 -673.2349,0 0,0 -374.019504,190.8782 -366.2812,616.48661 z"/>
                <path  style="fill-rule:nonzero;" stroke-width="7.73834" stroke="none" gorn="0.3.0.0.45" fill="#1a1a1a" id="path36690" fill-opacity="1" d="m 1454.3468,1427.8247 c 0,0 44.8881,-14.6199 70.9809,2.8069 l -0.098,-154.643 C 1525.024,952.84689 1221.6232,598.41214 818.29074,598.40198 406.51771,598.3916 84.418567,896.14538 83.460515,1278.1119 l -0.399609,159.3208 89.139734,-41.2675 c 1.24308,-410.33562 215.74062,-711.08526 649.27341,-709.44387 433.53275,1.64138 613.61035,326.53337 632.87275,741.10337 z"/>
                <path  style="fill-rule:nonzero;" stroke-width="7.73834" stroke="none" gorn="0.3.0.0.46" fill="#4d4d4d" id="path36696" fill-opacity="1" d="m 1473.114,1461.2705 c 41.2712,-20.6359 41.2712,-20.6359 41.2712,-20.6359 0,0 -49.0095,-15.4766 -46.43,-67.0657 -38.6917,-2.5792 -38.6917,-2.5792 -38.6917,-2.5792 0,0 -10.3178,54.1683 43.8505,90.2808 z"/>
                <path  style="fill-rule:nonzero;" stroke-width="7.73834" stroke="none" gorn="0.3.0.0.47" fill="#4d4d4d" id="path36698" fill-opacity="1" d="m 1473.114,1461.2705 c 0,5.1584 0,5.1584 0,5.1584 51.5889,-28.3734 51.5889,-28.3734 51.5889,-28.3734 -7.7383,-2.5799 -7.7383,-2.5799 -7.7383,-2.5799 0,0 0,0 0,0 -2.5794,0 -15.4767,-5.1585 -25.7944,-12.8968 -10.3178,-10.3182 -20.6356,-23.215 -20.6356,-46.43 0,-2.5799 0,-2.5799 0,-2.5799 0,-2.5792 0,-2.5792 0,-2.5792 -46.43,-5.1591 -46.43,-5.1591 -46.43,-5.1591 0,5.1591 0,5.1591 0,5.1591 0,0 0,2.5792 0,10.3175 0,18.0566 5.1589,56.7483 46.43,85.1217 2.5794,0 2.5794,0 2.5794,0 0,0 0,0 0,0 0,-5.1584 0,-5.1584 0,-5.1584 0,-2.5799 0,-2.5799 0,-2.5799 -36.1122,-25.7943 -41.2711,-61.9067 -41.2711,-77.3834 0,-5.1584 0,-5.1584 0,-7.7383 0,-2.5792 0,-2.5792 0,-2.5792 0,0 0,0 0,0 -2.5794,0 -2.5794,0 -2.5794,0 -2.5795,2.5792 -2.5795,2.5792 -2.5795,2.5792 38.6917,2.5799 38.6917,2.5799 38.6917,2.5799 2.5795,-2.5799 2.5795,-2.5799 2.5795,-2.5799 -5.159,0 -5.159,0 -5.159,0 0,0 0,2.5799 0,2.5799 0,25.7943 12.8973,43.8501 25.7945,54.1683 12.8972,10.3175 25.7945,12.8968 25.7945,12.8968 0,-2.5793 0,-2.5793 0,-2.5793 0,-5.159 0,-5.159 0,-5.159 -43.8506,23.215 -43.8506,23.215 -43.8506,23.215 2.5794,2.5799 2.5794,2.5799 2.5794,2.5799 0,-2.5799 0,-2.5799 0,-2.5799 z"/>
                <path  style="fill-rule:nonzero;" stroke-width="7.73834" stroke="none" gorn="0.3.0.0.48" fill="#4d4d4d" id="path36700" fill-opacity="1" d="m 1467.9552,1373.5689 -44.981,-1.3213 c 4.6512,-332.5936 -221.543,-676.77608 -610.83916,-675.81776 -387.89121,0.95486 -620.52749,258.66234 -625.9828,670.08686 -0.5347,40.3256 -16.93171,74.448 -51.12447,101.1713 l -40.421152,-25.4083 c 36.003812,-20.3102 46.383322,-73.793 46.390102,-75.6997 1.66349,-467.36591 283.82732,-717.57846 671.23826,-717.73874 388.99142,-0.16093 655.92472,284.38516 655.72022,724.72764 z"/>
                <path  style="fill-rule:nonzero;" stroke-width="7.73834" stroke="none" gorn="0.3.0.0.49" fill="#333333" id="path36708" fill-opacity="1" d="m 90.531996,1414.8405 c 0,25.7941 0,25.7941 0,25.7941 0,0 59.327204,-15.4766 56.747704,-67.0657 -12.8972,0 -12.8972,0 -12.8972,0 0,0 -5.1589,64.4866 -43.850504,41.2716 z"/>
                <path  style="fill-rule:nonzero;" stroke-width="7.73834" stroke="none" gorn="0.3.0.0.50" fill="#333333" id="path36710" fill-opacity="1" d="m 90.531996,1414.8405 c -5.1589,0 -5.1589,0 -5.1589,0 2.5794,30.9533 2.5794,30.9533 2.5794,30.9533 2.5795,-2.5799 2.5795,-2.5799 2.5795,-2.5799 0,0 15.476604,-2.5793 30.953304,-12.8968 12.8972,-10.3182 28.3739,-28.374 28.3739,-54.1683 0,0 0,-2.5799 0,-2.5799 0,-5.1584 0,-5.1584 0,-5.1584 -18.0561,2.5792 -18.0561,2.5792 -18.0561,2.5792 -2.5795,2.5792 -2.5795,2.5792 -2.5795,2.5792 0,0 0,0 0,2.5799 0,2.5793 0,15.4767 -5.1588,23.215 -2.5795,5.1584 -5.159,10.3176 -7.7384,12.8968 -2.5794,2.5799 -5.1589,5.1591 -10.3178,5.1591 -5.1588,0 -7.738304,-2.5792 -15.476604,-5.1591 0,0 0,0 0,0 0,0 0,0 0,0 -5.1589,0 -5.1589,0 -5.1589,0 0,2.5799 0,2.5799 0,2.5799 5.1589,0 5.1589,0 5.1589,0 0,2.5792 0,2.5792 0,2.5792 0,0 0,0 0,0 0,-2.5792 0,-2.5792 0,-2.5792 -2.5795,2.5792 -2.5795,2.5792 -2.5795,2.5792 7.7383,5.1591 12.897304,5.1591 18.056104,5.1591 7.7384,0 12.8972,-2.5799 18.0562,-7.7383 5.1588,-7.7384 7.7383,-18.0566 10.3177,-25.7949 2.5795,-7.7384 2.5795,-15.4767 2.5795,-15.4767 -2.5795,0 -2.5795,0 -2.5795,0 0,5.1592 0,5.1592 0,5.1592 12.8972,-2.5793 12.8972,-2.5793 12.8972,-2.5793 0,-2.5799 0,-2.5799 0,-2.5799 -5.1589,0 -5.1589,0 -5.1589,0 0,0 0,2.5799 0,2.5799 0,23.215 -12.8972,38.6917 -25.7944,49.0092 -5.1589,2.5792 -12.8973,7.7383 -18.056104,10.3176 -2.5795,0 -5.1589,0 -5.1589,0 -2.5794,2.5799 -2.5794,2.5799 -2.5794,2.5799 0,0 0,0 0,0 0,2.5791 0,2.5791 0,2.5791 2.5794,0 2.5794,0 2.5794,0 0,-25.7941 0,-25.7941 0,-25.7941 -2.5794,0 -2.5794,0 -2.5794,0 0,2.5792 0,2.5792 0,2.5792 z"/>
                <path  style="fill-rule:nonzero;" stroke-width="7.73834" stroke="none" gorn="0.3.0.0.51" fill="#333333" id="path36712" fill-opacity="1" d="m 1480.8524,1373.5689 c 0,0 5.1588,64.4866 43.8505,41.2716 -2.5794,25.7941 -2.5794,25.7941 -2.5794,25.7941 0,0 -54.1683,-2.5791 -54.1683,-67.0657 z"/>
                <path  style="fill-rule:nonzero;" stroke-width="7.73834" stroke="none" gorn="0.3.0.0.52" fill="#333333" id="path36714" fill-opacity="1" d="m 1480.8524,1373.5689 c -5.1589,0 -5.1589,0 -5.1589,0 0,0 2.5794,12.8975 5.1589,25.7949 2.5794,5.1584 5.1588,10.3176 10.3178,15.4767 5.1588,5.1584 10.3177,7.7383 18.056,7.7383 5.159,0 10.3178,0 15.4767,-5.1591 0,-2.5792 0,-2.5792 0,-2.5792 -5.1589,0 -5.1589,0 -5.1589,0 0,25.7941 0,25.7941 0,25.7941 2.5795,0 2.5795,0 2.5795,0 0,-2.5791 0,-2.5791 0,-2.5791 0,0 0,0 0,0 -2.5795,-2.5799 -15.4766,-2.5799 -28.3739,-10.3183 -10.3178,-10.3175 -23.215,-25.7941 -23.215,-54.1683 -2.5794,0 -2.5794,0 -2.5794,0 -2.5795,2.5799 -2.5795,2.5799 -2.5795,2.5799 12.8972,2.5793 12.8972,2.5793 12.8972,2.5793 2.5795,-5.1592 2.5795,-5.1592 2.5795,-5.1592 -5.1589,0 -5.1589,0 -5.1589,0 5.1589,0 5.1589,0 5.1589,0 0,-2.5792 0,-2.5792 0,-2.5792 -18.0562,-2.5792 -18.0562,-2.5792 -18.0562,-2.5792 0,5.1584 0,5.1584 0,5.1584 2.5795,33.5332 15.4767,51.5891 30.9534,61.9067 15.4766,7.7383 28.3739,7.7383 28.3739,7.7383 5.1589,0 5.1589,0 5.1589,0 0,-36.1118 0,-36.1118 0,-36.1118 -5.1589,5.1585 -5.1589,5.1585 -5.1589,5.1585 -5.1589,2.5799 -10.3178,5.1591 -12.8973,5.1591 -5.1588,0 -10.3177,-2.5792 -12.8972,-7.7383 -5.1588,-5.1592 -7.7383,-12.8975 -10.3178,-20.6358 0,-5.1585 -2.5794,-7.7384 -2.5794,-10.3175 0,-2.5793 0,-2.5793 0,-2.5793 0,-2.5799 0,-2.5799 0,-2.5799 0,-2.5792 0,-2.5792 0,-2.5792 -2.5794,0 -2.5794,0 -2.5794,0 z"/>
                <path  style="fill-rule:evenodd;" stroke-width="7.73834" stroke="none" gorn="0.3.0.0.53" fill="#ffffff" id="path36718" fill-opacity="1" d="m 1661.4134,493.97889 c 103.1778,-77.3833 103.1778,-77.3833 103.1778,-77.3833 49.0095,-36.1124 123.8133,-28.3741 165.0844,20.6351 38.6917,51.589 30.9533,121.2341 -20.6354,159.9257 -103.1779,74.8042 -103.1779,74.8042 -103.1779,74.8042 -51.5888,38.6917 -123.8133,28.3734 -165.0844,-20.6358 -38.6917,-49.0092 -30.9533,-118.6542 20.6355,-157.3459 z"/>
                <path  style="fill-rule:evenodd;" stroke-width="7.73834" stroke="none" gorn="0.3.0.0.54" fill="#ffffff" id="path36720" fill-opacity="1" d="m -298.9642,2080.3371 c 103.1779,-74.8041 103.1779,-74.8041 103.1779,-74.8041 51.5888,-38.6917 123.813297,-28.3742 165.084397,20.6357 38.6915998,49.0092 30.95329982,118.6542 -20.6357,157.3459 -103.177697,77.3835 -103.177697,77.3835 -103.177697,77.3835 -49.0094,36.1125 -123.8132,28.3741 -165.0843,-20.636 -38.6917,-51.5883 -30.9533,-121.2333 20.6354,-159.925 z"/>
                <path  style="fill-rule:nonzero;" stroke-width="7.73834" stroke="none" gorn="0.3.0.0.55" fill="#1a1a1a" id="path36722" fill-opacity="1" d="m 69.896397,1845.6071 15.476699,-15.4766 v -291.4767 l -15.476699,33.5325 z"/>
                <path  style="fill-rule:nonzero;" stroke-width="7.73834" stroke="none" gorn="0.3.0.0.56" fill="#000000" id="path36724" fill-opacity="1" d="m 69.896397,1845.6071 v 0 l 15.476699,-15.4766 v 0 -291.4767 l -15.476699,33.5325 v 273.4208 0 0 0 -273.4208 l 15.476699,-33.5325 v 291.4767 z"/>
                <path  style="fill-rule:nonzero;" stroke-width="7.73834" stroke="none" gorn="0.3.0.0.57" fill="#1a1a1a" id="path36802" fill-opacity="1" d="m 1261.5996,3210.1336 c -87.7011,0 -87.7011,0 -87.7011,0 -10.3178,-5.1592 -10.3178,-5.1592 -10.3178,-5.1592 0,0 43.8506,-10.3175 41.2712,-49.0091 0,-268.2623 0,-268.2623 0,-268.2623 0,0 5.1588,-134.1309 147.0283,-144.4491 113.4955,0 113.4955,0 113.4955,0 0,0 51.5889,-10.3176 51.5889,-46.43 5.1589,0 5.1589,0 5.1589,0 2.5794,255.365 2.5794,255.365 2.5794,255.365 -263.1033,257.9447 -263.1033,257.9447 -263.1033,257.9447 z"/>
                <path  style="fill-rule:nonzero;" stroke-width="7.73834" stroke="none" gorn="0.3.0.0.58" fill="#000000" id="path36804" fill-opacity="1" d="m 1308.0296,2874.8055 h -2.5795 v 23.215 h 36.1122 v 36.1125 h 25.7945 v -36.1125 h 36.1122 v -25.7942 h -36.1122 v -36.1125 h -25.7945 v 36.1125 h -36.1122 v 2.5792 h 2.5795 v 2.58 h 38.6917 v -36.1125 h 12.8972 v 36.1125 h 36.1122 v 12.8967 h -36.1122 v 36.1125 h -12.8972 v -36.1125 h -33.5328 v -15.4767 h -5.1589 v 2.58 z"/>
                <path  stroke-width="7.73834" stroke="none" gorn="0.3.0.0.59" fill="none" id="path36806" d="m 1308.0296,2874.8055 h -2.5795 v 23.215 h 36.1122 v 36.1125 h 25.7945 v -36.1125 h 36.1122 v -25.7942 h -36.1122 v -36.1125 h -25.7945 v 36.1125 h -36.1122 v 2.5792 h 2.5795 v 2.58 h 38.6917 v -36.1125 h 12.8972 v 36.1125 h 36.1122 v 12.8967 h -36.1122 v 36.1125 h -12.8972 v -36.1125 h -33.5328 v -15.4767 h -5.1589 v 2.58 -2.58"/>
                <path  style="fill-rule:nonzero;" stroke-width="7.73834" stroke="none" gorn="0.3.0.0.60" fill="#2b2b2b" id="path36808" fill-opacity="1" d="m 1176.4779,3207.5537 c 87.7011,0 87.7011,0 87.7011,0 -18.0561,-49.0092 -18.0561,-49.0092 -18.0561,-49.0092 -36.1122,0 -36.1122,0 -36.1122,0 0,0 -2.5794,23.215 -41.2711,49.0092 7.7383,0 7.7383,0 7.7383,0 z"/>
                <path  style="fill-rule:nonzero;" stroke-width="7.73834" stroke="none" gorn="0.3.0.0.61" fill="#2b2b2b" id="path36810" fill-opacity="1" d="m 1475.6935,2928.9738 c 0,-159.925 0,-159.925 0,-159.925 0,0 41.2711,-20.6358 43.8505,-30.9533 0,206.355 0,206.355 0,206.355 -43.8505,-15.4767 -43.8505,-15.4767 -43.8505,-15.4767 z"/>
                <path  style="fill-rule:nonzero;" stroke-width="7.73834" stroke="none" gorn="0.3.0.0.62" fill="#2c2c2c" id="path36812" fill-opacity="1" d="m 1326.0857,2988.3014 c -49.0094,-10.3176 -79.9628,-54.1684 -79.9628,-103.1776 0,-7.7383 0,-15.4767 2.5794,-23.215 10.3179,-51.5892 54.1684,-85.1217 105.7573,-85.1217 7.7384,0 15.4767,0 23.215,2.5792 49.0094,10.3175 85.1216,54.1683 85.1216,105.7575 0,7.7384 -2.5794,15.4767 -2.5794,23.215 -12.8973,49.0092 -56.7478,85.1216 -105.7572,85.1216 -7.7383,0 -15.4766,-2.5799 -20.6356,-2.5799 0,0 0,0 0,0 -5.1589,0 -5.1589,0 -5.1589,0 0,0 0,0 0,0 -2.5794,-2.5791 -2.5794,-2.5791 -2.5794,-2.5791 0,0 0,0 0,0 m -116.075,170.2431 c 36.1122,0 36.1122,0 36.1122,0 229.5706,-229.5707 229.5706,-229.5707 229.5706,-229.5707 0,-159.925 0,-159.925 0,-159.925 0,0 0,0 0,0 -154.7667,0 -154.7667,0 -154.7667,0 0,0 -95.4394,10.3175 -103.1777,139.29 -7.7384,250.2057 -7.7384,250.2057 -7.7384,250.2057 z"/>
                <path  style="fill-rule:nonzero;" stroke-width="7.73834" stroke="none" gorn="0.3.0.0.63" fill="#313131" id="path36814" fill-opacity="1" d="m 1475.6935,2769.0488 v 159.925 0 z"/>
                <path  stroke-width="7.73834" stroke="none" gorn="0.3.0.0.64" fill="none" id="path36816" d="m 1475.6935,2769.0488 v 159.925 0 -159.925"/>
                <path  style="fill-rule:evenodd;" stroke-width="7.73834" stroke="none" gorn="0.3.0.0.65" fill="#1a1a1a" id="path36818" fill-opacity="1" d="m 1331.2446,2985.7221 c 56.7477,12.8968 110.9161,-23.2149 123.8133,-79.9633 12.8973,-54.1683 -23.215,-110.9158 -79.9627,-123.8133 -54.1684,-12.8967 -110.9162,23.215 -123.8133,79.9633 -12.8973,56.7475 23.215,110.9159 79.9627,123.8133 0,0 0,0 0,0 z"/>
                <path  style="fill-rule:nonzero;" stroke-width="7.73834" stroke="none" gorn="0.3.0.0.66" fill="#1a1a1a" id="path36820" fill-opacity="1" d="m 1331.2446,2990.8805 c 7.7384,0 15.4767,2.5799 23.215,2.5799 49.0094,0 92.8599,-36.1124 105.7572,-85.1216 0,-7.7383 2.5794,-15.4766 2.5794,-23.215 0,-51.5892 -36.1122,-95.44 -85.1216,-105.7575 -7.7383,-2.5792 -15.4766,-2.5792 -23.215,-2.5792 -51.5889,0 -95.4394,33.5325 -105.7573,85.1217 -2.5794,7.7383 -2.5794,15.4767 -2.5794,23.215 0,49.0092 33.5328,92.86 82.5422,105.7567 5.1589,0 5.1589,0 5.1589,0 0,-7.7383 0,-7.7383 0,-7.7383 -2.5794,0 -2.5794,0 -2.5794,0 -46.43,-10.3175 -79.9627,-51.5884 -79.9627,-98.0184 0,-7.7383 2.5794,-15.4767 2.5794,-23.215 10.3177,-46.43 54.1683,-79.9633 100.5983,-79.9633 5.1589,0 12.8972,2.58 20.6356,2.58 46.43,10.3175 79.9627,54.1683 79.9627,100.5983 0,5.1584 0,12.8967 -2.5794,20.635 -10.3178,46.4301 -51.5889,79.9633 -98.0189,79.9633 -7.7383,0 -15.4766,0 -23.215,-2.5799 -2.5795,0 -2.5795,0 -2.5795,0 -2.5794,5.1592 -2.5794,5.1592 -2.5794,5.1592 5.1589,2.5791 5.1589,2.5791 5.1589,2.5791 z"/>
                <path  style="fill-rule:nonzero;" stroke-width="7.73834" stroke="none" gorn="0.3.0.0.67" fill="#000000" id="path36822" fill-opacity="1" d="m 1308.0296,2892.8622 v -18.0567 h 36.1122 v -36.1117 h 20.6355 v 36.1117 h 36.1123 v 18.0567 h -36.1123 v 36.1116 h -20.6355 v -36.1116 z"/>
                <path  style="fill-rule:nonzero;" stroke-width="7.73834" stroke="none" gorn="0.3.0.0.68" fill="#000000" id="path36824" fill-opacity="1" d="m 1308.0296,2892.8622 h 5.1589 v -15.4767 h 33.5328 v -36.1125 h 12.8972 v 36.1125 h 36.1122 v 12.8967 h -36.1122 v 36.1125 h -12.8972 v -36.1125 h -38.6917 v 2.58 h 5.1589 -5.1589 v 5.1583 h 33.5327 v 36.1125 h 25.7945 v -36.1125 h 36.1122 v -25.7942 h -36.1122 v -36.1125 h -25.7945 v 36.1125 h -36.1122 v 25.7942 h 2.5795 z"/>
                <path  stroke-width="7.73834" stroke="none" gorn="0.3.0.0.69" fill="none" id="path36826" d="m 1308.0296,2892.8622 h 5.1589 v -15.4767 h 33.5328 v -36.1125 h 12.8972 v 36.1125 h 36.1122 v 12.8967 h -36.1122 v 36.1125 h -12.8972 v -36.1125 h -38.6917 v 2.58 h 5.1589 -5.1589 v 5.1583 h 33.5327 v 36.1125 h 25.7945 v -36.1125 h 36.1122 v -25.7942 h -36.1122 v -36.1125 h -25.7945 v 36.1125 h -36.1122 v 25.7942 h 2.5795 v -5.1583"/>
                <path  style="fill-rule:nonzero;" stroke-width="7.73834" stroke="none" gorn="0.3.0.0.70" fill="#1a1a1a" id="path36846" fill-opacity="1" d="m 351.0558,3207.5537 c 87.7011,0 87.7011,0 87.7011,0 10.3178,-5.1584 10.3178,-5.1584 10.3178,-5.1584 0,0 -41.2711,-12.8974 -41.2711,-49.0099 0,-268.2616 0,-268.2616 0,-268.2616 0,0 -5.1589,-136.7108 -147.0283,-144.4492 -110.9161,0 -110.9161,0 -110.9161,0 0,0 -54.168404,-10.3175 -54.168404,-46.4299 -5.1588,0 -5.1588,0 -5.1588,0 0,255.365 0,255.365 0,255.365 260.523804,257.944 260.523804,257.944 260.523804,257.944 z"/>
                <path  style="fill-rule:nonzero;" stroke-width="7.73834" stroke="none" gorn="0.3.0.0.71" fill="#000000" id="path36848" fill-opacity="1" d="m 304.6257,2872.2263 h -2.5793 v 15.4767 h -36.1122 v 36.1125 H 253.037 v -36.1125 h -36.1123 v -12.8975 h 36.1123 v -36.1117 h 12.8972 v 36.1117 h 38.6915 v -2.5792 h -2.5793 2.5793 v -5.1592 h -30.9533 v -33.5325 h -28.3737 v 33.5325 h -33.5329 v 28.3742 h 33.5329 v 36.1125 h 28.3737 v -36.1125 h 36.1123 v -28.3742 h -5.159 z"/>
                <path  stroke-width="7.73834" stroke="none" gorn="0.3.0.0.72" fill="none" id="path36850" d="m 304.6257,2872.2263 h -2.5793 v 15.4767 h -36.1122 v 36.1125 H 253.037 v -36.1125 h -36.1123 v -12.8975 h 36.1123 v -36.1117 h 12.8972 v 36.1117 h 38.6915 v -2.5792 h -2.5793 2.5793 v -5.1592 h -30.9533 v -33.5325 h -28.3737 v 33.5325 h -33.5329 v 28.3742 h 33.5329 v 36.1125 h 28.3737 v -36.1125 h 36.1123 v -28.3742 h -5.159 v 5.1592"/>
                <path  style="fill-rule:nonzero;" stroke-width="7.73834" stroke="none" gorn="0.3.0.0.73" fill="#2b2b2b" id="path36852" fill-opacity="1" d="m 436.1774,3204.9744 c -87.701,0 -87.701,0 -87.701,0 20.6355,-49.0091 20.6355,-49.0091 20.6355,-49.0091 33.5328,0 33.5328,0 33.5328,0 0,0 5.1589,23.215 41.2711,49.0091 -7.7384,0 -7.7384,0 -7.7384,0 z"/>
                <path  style="fill-rule:nonzero;" stroke-width="7.73834" stroke="none" gorn="0.3.0.0.74" fill="#2b2b2b" id="path36854" fill-opacity="1" d="m 136.962,2926.3947 c 0,-159.9258 0,-159.9258 0,-159.9258 0,0 -38.691704,-20.6351 -41.271204,-30.9533 -2.5794,206.3557 -2.5794,206.3557 -2.5794,206.3557 C 136.962,2926.3947 136.962,2926.3947 136.962,2926.3947 Z"/>
                <path  style="fill-rule:nonzero;" stroke-width="7.73834" stroke="none" gorn="0.3.0.0.75" fill="#2c2c2c" id="path36856" fill-opacity="1" d="m 232.4014,2985.7221 c -46.4301,-12.8974 -79.9628,-56.7483 -79.9628,-103.1783 0,-7.7383 0,-15.4767 2.5794,-25.7942 10.3178,-49.0091 54.1684,-82.5425 105.7573,-82.5425 7.7384,0 15.4767,0 23.215,2.58 49.0094,10.3175 85.1216,54.1684 85.1216,105.7567 0,7.7384 -2.5795,15.4767 -2.5795,23.215 -12.8972,49.0101 -56.7477,85.1217 -105.7571,85.1217 -7.7383,0 -15.4766,-2.5791 -20.6356,-2.5791 0,0 0,0 0,0 -5.1589,0 -5.1589,0 -5.1589,0 -2.5794,-2.5793 -2.5794,-2.5793 -2.5794,-2.5793 0,0 0,0 0,0 M 136.962,2766.4689 c 0,0 0,0 0,0 0,159.9258 0,159.9258 0,159.9258 232.1499,229.5706 232.1499,229.5706 232.1499,229.5706 33.5328,0 33.5328,0 33.5328,0 -7.7383,-250.2065 -7.7383,-250.2065 -7.7383,-250.2065 -7.7383,-128.9717 -103.1777,-139.2899 -103.1777,-139.2899 -154.7667,0 -154.7667,0 -154.7667,0 z"/>
                <path  style="fill-rule:nonzero;" stroke-width="7.73834" stroke="none" gorn="0.3.0.0.76" fill="#313131" id="path36858" fill-opacity="1" d="m 136.962,2926.3947 v 0 -159.9258 0 z"/>
                <path  stroke-width="7.73834" stroke="none" gorn="0.3.0.0.77" fill="none" id="path36860" d="m 136.962,2926.3947 v 0 -159.9258 0 159.9258"/>
                <path  style="fill-rule:evenodd;" stroke-width="7.73834" stroke="none" gorn="0.3.0.0.78" fill="#1a1a1a" id="path36862" fill-opacity="1" d="m 237.5603,2983.1422 c 56.7477,12.8975 110.9161,-23.215 123.8133,-79.9625 12.8972,-54.1684 -23.215,-110.9159 -77.3833,-123.8134 -56.7478,-12.8974 -113.4956,23.215 -126.3928,79.9625 -12.8972,56.7484 23.215,110.9166 79.9628,123.8134 0,0 0,0 0,0 z"/>
                <path  style="fill-rule:nonzero;" stroke-width="7.73834" stroke="none" gorn="0.3.0.0.79" fill="#1a1a1a" id="path36864" fill-opacity="1" d="m 237.5603,2988.3014 c 7.7384,0 15.4767,2.5791 23.215,2.5791 49.0094,0 92.8599,-36.1116 105.7571,-85.1217 0,-7.7383 2.5795,-15.4766 2.5795,-23.215 0,-51.5883 -36.1122,-95.4392 -85.1216,-105.7567 -7.7383,-2.58 -15.4766,-2.58 -23.215,-2.58 -51.5889,0 -95.4395,33.5334 -105.7573,82.5425 -2.5794,10.3175 -2.5794,18.0559 -2.5794,25.7942 0,49.01 33.5327,92.8601 82.5422,105.7576 5.1589,0 5.1589,0 5.1589,0 0,-7.7384 0,-7.7384 0,-7.7384 -2.5794,0 -2.5794,0 -2.5794,0 -46.43,-10.3176 -77.3833,-51.5892 -77.3833,-98.0192 0,-7.7383 0,-15.4767 0,-23.215 12.8972,-46.43 54.1683,-79.9625 100.5983,-79.9625 7.7384,0 12.8971,2.5792 20.6354,2.5792 49.0095,10.3183 79.9629,54.1683 79.9629,100.5983 0,5.1592 0,12.8975 -2.5795,20.6359 -10.3177,46.43 -51.5888,79.9625 -98.0188,79.9625 -7.7383,0 -15.4766,0 -23.215,-2.5792 -2.5795,0 -2.5795,0 -2.5795,0 -2.5794,5.1591 -2.5794,5.1591 -2.5794,5.1591 5.1589,2.5793 5.1589,2.5793 5.1589,2.5793 z"/>
                <path  style="fill-rule:nonzero;" stroke-width="7.73834" stroke="none" gorn="0.3.0.0.80" fill="#000000" id="path36866" fill-opacity="1" d="m 214.3453,2890.2822 v -18.0559 h 36.1122 v -36.1125 h 20.6355 v 36.1125 h 36.1123 v 18.0559 H 271.093 v 36.1125 h -20.6355 v -36.1125 z"/>
                <path  style="fill-rule:nonzero;" stroke-width="7.73834" stroke="none" gorn="0.3.0.0.81" fill="#000000" id="path36868" fill-opacity="1" d="m 214.3453,2890.2822 h 5.1589 v -15.4767 h 36.1122 v -36.1117 h 10.3178 v 36.1117 h 36.1122 v 12.8975 h -36.1122 v 36.1125 h -10.3178 v -36.1125 h -41.2711 v 2.5792 h 5.1589 -5.1589 v 5.1591 h 33.5327 v 36.1125 h 25.7944 v -36.1125 h 36.1123 v -28.3742 h -36.1123 v -33.5325 H 247.878 v 33.5325 h -36.1122 v 28.3742 h 2.5795 z"/>
                <path  stroke-width="7.73834" stroke="none" gorn="0.3.0.0.82" fill="none" id="path36870" d="m 214.3453,2890.2822 h 5.1589 v -15.4767 h 36.1122 v -36.1117 h 10.3178 v 36.1117 h 36.1122 v 12.8975 h -36.1122 v 36.1125 h -10.3178 v -36.1125 h -41.2711 v 2.5792 h 5.1589 -5.1589 v 5.1591 h 33.5327 v 36.1125 h 25.7944 v -36.1125 h 36.1123 v -28.3742 h -36.1123 v -33.5325 H 247.878 v 33.5325 h -36.1122 v 28.3742 h 2.5795 v -5.1591"/>
                <path  style="fill-rule:nonzero;" stroke-width="7.73834" stroke="none" gorn="0.3.0.0.83" fill="#cccccc" id="path36904" fill-opacity="1" d="m 825.6736,1698.5789 v 49.0099 c 0,0 -38.6917,2.5791 -46.43,0 v -49.0099 c 20.40462,6.7637 34.09078,9.2549 46.43,0 z"/>
                <path  style="fill-rule:nonzero;" stroke-width="7.73834" stroke="none" gorn="0.3.0.0.84" fill="#fafafa" id="path8900" fill-opacity="1" d="m 782.91078,1025.1569 c 8.17612,-4.0994 23.78016,-6.2621 38.6917,0 l 234.13582,125.0189 c 11.6206,9.2459 20.8796,20.5905 20.6356,37.9351 v 338.664 c 0,0 -7.3602,24.5979 -20.6356,33.5325 L 819.02298,1697.601 c -11.11806,6.6708 -27.95341,7.367 -48.07682,-2.5799 L 553.9335,1562.8866 c -9.87174,-6.7118 -23.0272,-17.0188 -23.215,-36.1117 v -343.0665 c 0.29043,-14.1896 5.81358,-22.1054 18.0562,-33.5326 z"/>
                <path  style="stroke-linecap:butt;stroke-linejoin:miter;stroke-dasharray:none;" stroke-width="13.8889" stroke="#ffffff" gorn="0.3.0.0.85" fill="none" id="path8968" stroke-opacity="1" d="M 977.66622,878.11788 C 1212.794,984.01393 1292.2374,1189.1846 1283.6352,1351.3024"/>
                <path  style="stroke-linecap:butt;stroke-linejoin:miter;stroke-dasharray:none;" stroke-width="13.8889" stroke="#e6e6e6" gorn="0.3.0.0.86" fill="none" id="path8970" stroke-opacity="1" d="m 328.37161,1319.2824 c 9.132,219.745 126.42499,387.559 327.31565,464.2901"/>
                <path  style="stroke-linecap:butt;stroke-linejoin:miter;stroke-dasharray:none;" stroke-width="13.8889" stroke="#e6e6e6" gorn="0.3.0.0.87" fill="none" id="path9731" stroke-opacity="1" d="m 276.78382,1347.7446 c 19.88216,219.745 143.7978,389.3379 327.31565,466.069"/>
                <path  style="fill-rule:nonzero;" stroke-width="7.73834" stroke="none" gorn="0.3.0.0.88" fill="#1a1a1a" id="path43961" fill-opacity="1" d="m 69.896397,1972.0005 15.476699,18.0558 v -18.0558 z"/>
                <path  style="fill-rule:nonzero;" stroke-width="7.73834" stroke="none" gorn="0.3.0.0.89" fill="#1a1a1a" id="path43963" fill-opacity="1" d="m 69.896397,1972.0005 v 0 l 15.476699,18.0558 v -18.0558 h -18.056199 2.5795 v 0 0 h 15.476699 v 15.4767 z"/>
                <path  style="fill-rule:nonzero;" stroke-width="7.73834" stroke="none" gorn="0.3.0.0.90" fill="#1a1a1a" id="path43965" fill-opacity="1" d="m 69.896397,1845.6071 h 15.476699 v -15.4766 z"/>
                <path  style="fill-rule:nonzero;" stroke-width="7.73834" stroke="none" gorn="0.3.0.0.91" fill="#1a1a1a" id="path43967" fill-opacity="1" d="m 69.896397,1845.6071 v 0 h 15.476699 v -15.4766 l -18.056199,15.4766 h 2.5795 v 0 0 l 15.476699,-15.4766 v 15.4766 z"/>
                <path  style="fill-rule:nonzero;" stroke-width="7.73834" stroke="none" gorn="0.3.0.0.92" fill="#1a1a1a" id="path43969" fill-opacity="1" d="m 98.270296,2098.3929 c 0,0 0,-46.4299 51.588904,-46.4299 h 136.7105 c 94.67991,-1.2579 144.8625,-61.0034 144.38513,-136.2811 -0.47738,-75.2776 -45.22763,-154.5033 -144.38513,-155.1964 H 149.8592 c 0,0 -43.8506,7.7384 -56.747804,-41.2708 h -7.7383 v 379.1782 z"/>
                <path  style="fill-rule:nonzero;" stroke-width="7.73834" stroke="none" gorn="0.3.0.0.93" fill="#333333" id="path43971" fill-opacity="1" d="m 111.1675,2078.3799 c 0,0 0,-41.2708 46.43,-38.6917 h 123.8132 c 62.45073,1.6617 132.70936,-52.0532 130.8592,-128.8527 -1.85016,-76.7995 -37.70422,-127.2098 -130.8592,-126.5122 H 157.5975 c 0,0 -41.2711,5.1591 -51.5889,-38.6917 h -7.738304 v 332.7483 z"/>
                <path  style="fill-rule:evenodd;" stroke-width="7.73834" stroke="none" gorn="0.3.0.0.94" fill="#1a1a1a" id="path43973" fill-opacity="1" d="m 263.3547,1804.3363 c 54.1683,-12.8974 110.9161,23.215 123.8134,79.9625 12.8971,56.7484 -23.215,110.9167 -79.9628,123.8134 -56.7478,12.8975 -110.9161,-23.215 -123.8133,-79.9626 -12.8973,-54.1683 23.215,-110.9158 77.3833,-123.8133 2.5794,0 2.5794,0 2.5794,0 z"/>
                <path  style="fill-rule:nonzero;" stroke-width="7.73834" stroke="none" gorn="0.3.0.0.95" fill="#1a1a1a" id="path43975" fill-opacity="1" d="m 175.6536,1904.9346 c 0,10.3175 2.5794,18.0559 2.5794,25.7942 12.8973,49.01 56.7478,82.5425 105.7573,82.5425 7.7384,0 15.4767,0 23.215,-2.5792 51.5888,-10.3183 85.1216,-54.1683 85.1216,-103.1783 0,-7.7383 0,-18.0558 -2.5795,-25.7942 -10.3177,-49.0091 -54.1683,-82.5424 -105.7571,-82.5424 -58.1191,0.05 -108.16918,47.7245 -108.3367,105.7574 z"/>
                <path  style="fill-rule:nonzero;" stroke-width="7.73834" stroke="none" gorn="0.3.0.0.96" fill="#000000" id="path43979" fill-opacity="1" d="m 234.9808,1920.4113 h 36.1122 v 36.1125 h 28.374 v -36.1125 h 33.5327 v -28.3742 H 299.467 v -33.5325 h -28.374 v 33.5325 h -36.1122 z"/>
                <path  stroke-width="7.73834" stroke="none" gorn="0.3.0.0.97" fill="none" id="path43981" d="m 240.1397,1897.1963 h -5.1589 v 23.215 h 36.1122 v 36.1125 h 28.374 v -36.1125 h 33.5327 v -28.3742 H 299.467 v -33.5325 h -28.374 v 33.5325 h -36.1122 v 5.1592 h 5.1589 v 2.5792 h 38.6917 v -36.1117 h 12.8973 v 36.1117 h 36.1121 v 12.8975 h -36.1121 v 36.1125 h -12.8973 v -36.1125 h -36.1122 v -15.4767 h -2.5795 v 2.5792 -2.5792"/>
                <path  style="fill-rule:nonzero;" stroke-width="7.73834" stroke="none" gorn="0.3.0.0.98" fill="#1a1a1a" id="path43983" fill-opacity="1" d="m 90.531996,2100.9722 c 0,0 0,-33.5326 38.691604,-43.8501 0,-288.8982 0,-288.8982 0,-288.8982 0,0 -36.112204,-12.8968 -41.271104,-43.8501 -5.1589,381.7575 -5.1589,381.7575 -5.1589,381.7575 z"/>
                <path  style="fill-rule:nonzero;" stroke-width="8.09053" stroke="none" gorn="0.3.0.0.99" fill="#2e2e2e" id="path43985" fill-opacity="1" d="m 186.03508,1899.7364 c 0,45.0217 15.65913,66.1881 35.70065,84.7473 29.01151,18.0383 52.24598,21.5773 68.65506,15.8901 -24.71582,-18.5383 -47.32903,-31.9741 -58.31376,-47.8643 -13.73109,-18.5383 -13.08745,-36.883 -13.08745,-50.1251 v 0 c 0,-13.2421 5.49232,-26.4833 16.47715,-37.0774 8.23868,-10.5932 21.96967,-18.5383 32.9545,-23.8354 16.47704,-7.945 32.95429,-13.2412 41.19287,-15.8901 -13.73079,-13.2413 -27.46188,-18.5384 -41.19287,-18.5384 -43.63816,10.0637 -82.38615,46.8537 -82.38615,92.6933 z"/>
                <path  style="fill-rule:nonzero;" stroke-width="7.73834" stroke="none" gorn="0.3.0.0.100" fill="#1a1a1a" id="path43987" fill-opacity="1" d="m 98.270296,2098.3929 c 0,0 28.373804,-41.2708 33.532804,-46.4299 7.7382,-5.1592 -51.589004,15.4766 -33.532804,46.4299 z"/>
                <path  style="stroke-linecap:round;stroke-linejoin:miter;" stroke-width="2.93982" stroke="#a6a6a6" gorn="0.3.0.0.101" fill="none" id="path43989" stroke-opacity="1" d="m 262.50143,1820.0407 c -33.01422,12.4694 -55.32091,38.1583 -63.52217,63.522"/>
                <path  style="stroke-linecap:round;stroke-linejoin:miter;" stroke-width="2.93982" stroke="#a6a6a6" gorn="0.3.0.0.102" fill="none" id="path43991" stroke-opacity="1" d="m 256.84105,1992.7607 c -33.01422,-12.4694 -52.80518,-43.1898 -61.00644,-68.5535"/>
                <path  style="fill-rule:nonzero;" stroke-width="7.73834" stroke="none" gorn="0.3.0.0.103" fill="#1a1a1a" id="path44733" fill-opacity="1" d="m 1513.7432,2098.3929 c 0,0 0,-46.4299 -51.5889,-46.4299 h -136.7105 c -94.6799,-1.2579 -144.8625,-61.0034 -144.3851,-136.2811 0.4774,-75.2776 45.2276,-154.5033 144.3851,-155.1964 h 136.7105 c 0,0 43.8506,7.7384 56.7478,-41.2708 h 6.8553 l -0.2943,379.1782 z"/>
                <path  style="fill-rule:nonzero;" stroke-width="7.73834" stroke="none" gorn="0.3.0.0.104" fill="#333333" id="path44735" fill-opacity="1" d="m 1500.846,2078.3799 c 0,0 0,-41.2708 -46.43,-38.6917 h -123.8132 c -62.4507,1.6617 -132.7094,-52.0532 -130.8592,-128.8527 1.8502,-76.7995 37.7042,-127.2098 130.8592,-126.5122 h 123.8132 c 0,0 41.2711,5.1591 51.5889,-38.6917 h 7.7383 v 332.7483 z"/>
                <path  style="fill-rule:evenodd;" stroke-width="7.73834" stroke="none" gorn="0.3.0.0.105" fill="#1a1a1a" id="path44737" fill-opacity="1" d="m 1348.6588,1804.3363 c -54.1683,-12.8974 -110.9161,23.215 -123.8134,79.9625 -12.8971,56.7484 23.215,110.9167 79.9628,123.8134 56.7478,12.8975 110.9161,-23.215 123.8133,-79.9626 12.8973,-54.1683 -23.215,-110.9158 -77.3833,-123.8133 -2.5794,0 -2.5794,0 -2.5794,0 z"/>
                <path  style="fill-rule:nonzero;" stroke-width="7.73834" stroke="none" gorn="0.3.0.0.106" fill="#1a1a1a" id="path44739" fill-opacity="1" d="m 1436.3599,1904.9346 c 0,10.3175 -2.5794,18.0559 -2.5794,25.7942 -12.8973,49.01 -56.7478,82.5425 -105.7573,82.5425 -7.7384,0 -15.4767,0 -23.215,-2.5792 -51.5888,-10.3183 -85.1216,-54.1683 -85.1216,-103.1783 0,-7.7383 0,-18.0558 2.5795,-25.7942 10.3177,-49.0091 54.1683,-82.5424 105.7571,-82.5424 58.1191,0.05 108.1692,47.7245 108.3367,105.7574 z"/>
                <path  style="fill-rule:nonzero;" stroke-width="7.73834" stroke="none" gorn="0.3.0.0.107" fill="#000000" id="path44741" fill-opacity="1" d="m 1377.0327,1920.4113 h -36.1122 v 36.1125 h -28.374 v -36.1125 h -33.5327 v -28.3742 h 33.5327 v -33.5325 h 28.374 v 33.5325 h 36.1122 z"/>
                <path  stroke-width="7.73834" stroke="none" gorn="0.3.0.0.108" fill="none" id="path44743" d="m 1371.8738,1897.1963 h 5.1589 v 23.215 h -36.1122 v 36.1125 h -28.374 v -36.1125 h -33.5327 v -28.3742 h 33.5327 v -33.5325 h 28.374 v 33.5325 h 36.1122 v 5.1592 h -5.1589 v 2.5792 h -38.6917 v -36.1117 h -12.8973 v 36.1117 h -36.1121 v 12.8975 h 36.1121 v 36.1125 h 12.8973 v -36.1125 h 36.1122 v -15.4767 h 2.5795 v 2.5792 -2.5792"/>
                <path  style="fill-rule:nonzero;" stroke-width="7.73834" stroke="none" gorn="0.3.0.0.109" fill="#1a1a1a" id="path44745" fill-opacity="1" d="m 1521.4815,2100.9722 c 0,0 0,-33.5326 -38.6916,-43.8501 v -288.8982 c 0,0 36.1122,-12.8968 41.2711,-43.8501 z"/>
                <path  style="fill-rule:nonzero;" stroke-width="8.09053" stroke="none" gorn="0.3.0.0.110" fill="#2e2e2e" id="path44747" fill-opacity="1" d="m 1230.5232,1899.7364 c 0,45.0217 15.6591,66.1881 35.7007,84.7473 29.0115,18.0383 52.2459,21.5773 68.655,15.8901 -24.7158,-18.5383 -47.329,-31.9741 -58.3137,-47.8643 -13.7311,-18.5383 -13.0875,-36.883 -13.0875,-50.1251 v 0 c 0,-13.2421 5.4923,-26.4833 16.4772,-37.0774 8.2386,-10.5932 21.9696,-18.5383 32.9545,-23.8354 16.477,-7.945 32.9542,-13.2412 41.1928,-15.8901 -13.7308,-13.2413 -27.4619,-18.5384 -41.1928,-18.5384 -43.6382,10.0637 -82.3862,46.8537 -82.3862,92.6933 z"/>
                <path  style="fill-rule:nonzero;" stroke-width="7.73834" stroke="none" gorn="0.3.0.0.111" fill="#1a1a1a" id="path44749" fill-opacity="1" d="m 1513.7432,2098.3929 c 0,0 -28.3738,-41.2708 -33.5328,-46.4299 -7.7382,-5.1592 51.589,15.4766 33.5328,46.4299 z"/>
                <path  style="stroke-linecap:round;stroke-linejoin:miter;" stroke-width="2.93982" stroke="#a6a6a6" gorn="0.3.0.0.112" fill="none" id="path44751" stroke-opacity="1" d="m 1306.9896,1820.0407 c -33.0143,12.4694 -55.321,38.1583 -63.5222,63.522"/>
                <path  style="stroke-linecap:round;stroke-linejoin:miter;" stroke-width="2.93982" stroke="#a6a6a6" gorn="0.3.0.0.113" fill="none" id="path44753" stroke-opacity="1" d="m 1301.3292,1992.7607 c -33.0142,-12.4694 -52.8052,-43.1898 -61.0065,-68.5535"/>
                <path  style="fill-rule:nonzero;" stroke-width="8.09053" stroke="none" gorn="0.3.0.0.114" fill="#2e2e2e" id="path44783" fill-opacity="1" d="m 158.11634,2876.5398 c 0,45.0217 15.65913,66.1881 35.70065,84.7473 29.01151,18.0383 52.24598,21.5773 68.65506,15.8901 -24.71582,-18.5383 -47.32903,-31.9741 -58.31376,-47.8643 -13.73109,-18.5383 -13.08745,-36.883 -13.08745,-50.1251 v 0 c 0,-13.2421 5.49232,-26.4833 16.47715,-37.0774 8.23868,-10.5932 21.96967,-18.5383 32.9545,-23.8354 16.47704,-7.945 32.95429,-13.2412 41.19287,-15.8901 -13.73079,-13.2413 -27.46188,-18.5384 -41.19287,-18.5384 -43.63816,10.0637 -82.38615,46.8537 -82.38615,92.6933 z"/>
                <path  style="stroke-linecap:round;stroke-linejoin:miter;" stroke-width="2.93982" stroke="#a6a6a6" gorn="0.3.0.0.115" fill="none" id="path44785" stroke-opacity="1" d="m 234.58269,2796.8441 c -33.01422,12.4694 -55.32091,38.1583 -63.52217,63.522"/>
                <path  style="stroke-linecap:round;stroke-linejoin:miter;" stroke-width="2.93982" stroke="#a6a6a6" gorn="0.3.0.0.116" fill="none" id="path44787" stroke-opacity="1" d="m 228.92231,2969.5641 c -33.01422,-12.4694 -52.80518,-43.1898 -61.00644,-68.5535"/>
                <path  style="fill-rule:nonzero;" stroke-width="8.09053" stroke="none" gorn="0.3.0.0.117" fill="#2e2e2e" id="path44789" fill-opacity="1" d="m 1256.0801,2878.9016 c 0,45.0217 15.6591,66.1881 35.7007,84.7473 29.0115,18.0383 52.2459,21.5773 68.655,15.8901 -24.7158,-18.5383 -47.329,-31.9741 -58.3137,-47.8643 -13.7311,-18.5383 -13.0875,-36.883 -13.0875,-50.1251 v 0 c 0,-13.2421 5.4923,-26.4833 16.4772,-37.0774 8.2386,-10.5932 21.9696,-18.5383 32.9545,-23.8354 16.477,-7.945 32.9542,-13.2412 41.1928,-15.8901 -13.7308,-13.2413 -27.4619,-18.5384 -41.1928,-18.5384 -43.6382,10.0637 -82.3862,46.8537 -82.3862,92.6933 z"/>
                <path  style="stroke-linecap:round;stroke-linejoin:miter;" stroke-width="2.93982" stroke="#a6a6a6" gorn="0.3.0.0.118" fill="none" id="path44791" stroke-opacity="1" d="m 1332.5465,2799.2059 c -33.0143,12.4694 -55.321,38.1583 -63.5222,63.522"/>
                <path  style="stroke-linecap:round;stroke-linejoin:miter;" stroke-width="2.93982" stroke="#a6a6a6" gorn="0.3.0.0.119" fill="none" id="path44793" stroke-opacity="1" d="m 1326.8861,2971.9259 c -33.0142,-12.4694 -52.8052,-43.1898 -61.0065,-68.5535"/>
            </g>
        </g>
    </g>
</svg>
